G04*
G04 #@! TF.GenerationSoftware,Altium Limited,Altium Designer,20.2.6 (244)*
G04*
G04 Layer_Physical_Order=1*
G04 Layer_Color=255*
%FSLAX25Y25*%
%MOIN*%
G70*
G04*
G04 #@! TF.SameCoordinates,9E550E5B-D3D8-464A-AF3F-8E1B55BAFF32*
G04*
G04*
G04 #@! TF.FilePolarity,Positive*
G04*
G01*
G75*
%ADD13C,0.01000*%
%ADD16R,0.03150X0.01772*%
%ADD17R,0.02756X0.03543*%
%ADD18R,0.03937X0.06890*%
%ADD19R,0.13976X0.07087*%
%ADD20R,0.03543X0.02756*%
%ADD33C,0.00900*%
%ADD34C,0.06000*%
%ADD35C,0.07087*%
%ADD36R,0.07087X0.07087*%
%ADD37C,0.06299*%
%ADD38O,0.09843X0.06890*%
%ADD39O,0.06890X0.09843*%
%ADD40C,0.03000*%
G36*
X110941Y248342D02*
X115941Y243342D01*
X115941Y229343D01*
X111941Y225342D01*
X92441D01*
X90441Y227343D01*
Y246342D01*
X92441Y248342D01*
X110941Y248342D01*
D02*
G37*
G36*
X127941Y212343D02*
Y204842D01*
X126441Y203343D01*
X115441D01*
X113941Y204842D01*
Y212343D01*
X115441Y213843D01*
X126441D01*
X127941Y212343D01*
D02*
G37*
G36*
X179941Y256842D02*
X179941Y217019D01*
X178932Y216009D01*
X178622Y215546D01*
X178514Y215000D01*
X178514Y215000D01*
Y200933D01*
X178211Y200730D01*
X177680Y199936D01*
X177494Y199000D01*
X177680Y198064D01*
X178211Y197270D01*
X178614Y197000D01*
X179005Y196739D01*
X179941Y196553D01*
X179941D01*
Y195343D01*
X179941Y195343D01*
X179941Y159019D01*
X178432Y157509D01*
X178122Y157046D01*
X178014Y156500D01*
X178014Y156500D01*
Y140933D01*
X177711Y140730D01*
X177180Y139936D01*
X176994Y139000D01*
X177180Y138064D01*
X177711Y137270D01*
X178505Y136739D01*
X179441Y136553D01*
X179554Y136575D01*
X179838Y136343D01*
X179941D01*
Y136258D01*
X179941Y136258D01*
Y135500D01*
X179941Y135500D01*
X179941Y99519D01*
X178932Y98509D01*
X178622Y98046D01*
X178514Y97500D01*
X178514Y97500D01*
Y80433D01*
X178211Y80230D01*
X177680Y79436D01*
X177494Y78500D01*
X177680Y77564D01*
X178211Y76770D01*
X179005Y76239D01*
X179941Y76053D01*
Y74843D01*
X179941Y74843D01*
X179941Y36519D01*
X178932Y35509D01*
X178622Y35046D01*
X178514Y34500D01*
X178514Y34500D01*
Y19433D01*
X178211Y19230D01*
X177680Y18436D01*
X177494Y17500D01*
X177680Y16564D01*
X178211Y15770D01*
X179005Y15239D01*
X179941Y15053D01*
Y14000D01*
Y3500D01*
X177941Y1500D01*
X48941D01*
X48441Y2000D01*
X5441Y45000D01*
Y51000D01*
X8941Y54500D01*
X10643D01*
X10755Y54414D01*
X11836Y53966D01*
X12996Y53814D01*
X14156Y53966D01*
X15237Y54414D01*
X15349Y54500D01*
X17441D01*
X57941Y14000D01*
X66441D01*
Y25500D01*
X69941Y29000D01*
X94441D01*
X98441Y25000D01*
Y14000D01*
X151929D01*
X151993Y14155D01*
X152420D01*
Y22845D01*
X151441D01*
Y33500D01*
X150034Y34906D01*
X149978Y35042D01*
X149329Y35888D01*
X148483Y36537D01*
X148347Y36594D01*
X145941Y39000D01*
X126441D01*
X116941Y48500D01*
Y62500D01*
X129941Y75500D01*
X146683D01*
Y74998D01*
X152420D01*
Y83687D01*
X151441D01*
Y94342D01*
X145941Y99843D01*
X126441D01*
X116941Y109343D01*
Y123343D01*
X129941Y136343D01*
X146683D01*
Y135655D01*
X152420D01*
Y144345D01*
X151441D01*
Y155000D01*
X145941Y160500D01*
X126441D01*
X116941Y170000D01*
Y184000D01*
X129941Y197000D01*
X138164D01*
X138790Y196582D01*
X139726Y196396D01*
X140662Y196582D01*
X141288Y197000D01*
X146683D01*
Y195498D01*
X152420D01*
Y204187D01*
X151441D01*
Y214843D01*
X145941Y220342D01*
X126441D01*
X116941Y229842D01*
Y243843D01*
X129941Y256842D01*
X179941Y256842D01*
D02*
G37*
G36*
X110941Y188500D02*
X115941Y183500D01*
X115941Y169500D01*
X111941Y165500D01*
X92441D01*
X91515Y166426D01*
Y181204D01*
X91515Y181204D01*
X91406Y181750D01*
X91097Y182213D01*
X91097Y182213D01*
X90441Y182869D01*
Y186500D01*
X92441Y188500D01*
X110941Y188500D01*
D02*
G37*
G36*
X127941Y152500D02*
Y145000D01*
X126441Y143500D01*
X115441D01*
X113941Y145000D01*
Y152500D01*
X115441Y154000D01*
X126441D01*
X127941Y152500D01*
D02*
G37*
G36*
X110941Y128342D02*
X115941Y123343D01*
X115941Y109343D01*
X111941Y105342D01*
X92441D01*
X90441Y107343D01*
Y126342D01*
X92441Y128342D01*
X110941Y128342D01*
D02*
G37*
G36*
X127941Y91843D02*
Y84342D01*
X126441Y82842D01*
X115441D01*
X113941Y84342D01*
Y91843D01*
X115441Y93343D01*
X126441D01*
X127941Y91843D01*
D02*
G37*
G36*
X110941Y67500D02*
X115941Y62500D01*
X115941Y48500D01*
X111941Y44500D01*
X92441D01*
X90441Y46500D01*
Y65500D01*
X92441Y67500D01*
X110941Y67500D01*
D02*
G37*
G36*
X127941Y31000D02*
Y23500D01*
X126441Y22000D01*
X115441D01*
X113941Y23500D01*
Y31000D01*
X115441Y32500D01*
X126441D01*
X127941Y31000D01*
D02*
G37*
%LPC*%
G36*
X95191Y246732D02*
Y245592D01*
X96331D01*
X96325Y245623D01*
X95883Y246284D01*
X95221Y246726D01*
X95191Y246732D01*
D02*
G37*
G36*
X93691D02*
X93661Y246726D01*
X92999Y246284D01*
X92557Y245623D01*
X92551Y245592D01*
X93691D01*
Y246732D01*
D02*
G37*
G36*
X96331Y244092D02*
X95191D01*
Y242952D01*
X95221Y242959D01*
X95883Y243401D01*
X96325Y244062D01*
X96331Y244092D01*
D02*
G37*
G36*
X93691D02*
X92551D01*
X92557Y244062D01*
X92999Y243401D01*
X93661Y242959D01*
X93691Y242952D01*
Y244092D01*
D02*
G37*
G36*
X95191Y241733D02*
Y240593D01*
X96331D01*
X96325Y240623D01*
X95883Y241284D01*
X95221Y241726D01*
X95191Y241733D01*
D02*
G37*
G36*
X93691D02*
X93661Y241726D01*
X92999Y241284D01*
X92557Y240623D01*
X92551Y240593D01*
X93691D01*
Y241733D01*
D02*
G37*
G36*
X96331Y239092D02*
X95191D01*
Y237952D01*
X95221Y237959D01*
X95883Y238401D01*
X96325Y239062D01*
X96331Y239092D01*
D02*
G37*
G36*
X93691D02*
X92551D01*
X92557Y239062D01*
X92999Y238401D01*
X93661Y237959D01*
X93691Y237952D01*
Y239092D01*
D02*
G37*
G36*
X113799Y240886D02*
X107061D01*
Y237593D01*
X113799D01*
Y240886D01*
D02*
G37*
G36*
X104561D02*
X97823D01*
Y237593D01*
X104561D01*
Y240886D01*
D02*
G37*
G36*
X95191Y236232D02*
Y235092D01*
X96331D01*
X96325Y235123D01*
X95883Y235784D01*
X95221Y236227D01*
X95191Y236232D01*
D02*
G37*
G36*
X93691D02*
X93661Y236227D01*
X92999Y235784D01*
X92557Y235123D01*
X92551Y235092D01*
X93691D01*
Y236232D01*
D02*
G37*
G36*
X96331Y233593D02*
X95191D01*
Y232453D01*
X95221Y232459D01*
X95883Y232901D01*
X96325Y233562D01*
X96331Y233593D01*
D02*
G37*
G36*
X93691D02*
X92551D01*
X92557Y233562D01*
X92999Y232901D01*
X93661Y232459D01*
X93691Y232453D01*
Y233593D01*
D02*
G37*
G36*
X113799Y235092D02*
X107061D01*
Y231799D01*
X113799D01*
Y235092D01*
D02*
G37*
G36*
X104561D02*
X97823D01*
Y231799D01*
X104561D01*
Y235092D01*
D02*
G37*
G36*
X95191Y230732D02*
Y229592D01*
X96331D01*
X96325Y229623D01*
X95883Y230284D01*
X95221Y230727D01*
X95191Y230732D01*
D02*
G37*
G36*
X93691D02*
X93661Y230727D01*
X92999Y230284D01*
X92557Y229623D01*
X92551Y229592D01*
X93691D01*
Y230732D01*
D02*
G37*
G36*
X96331Y228093D02*
X95191D01*
Y226953D01*
X95221Y226959D01*
X95883Y227401D01*
X96325Y228062D01*
X96331Y228093D01*
D02*
G37*
G36*
X93691D02*
X92551D01*
X92557Y228062D01*
X92999Y227401D01*
X93661Y226959D01*
X93691Y226953D01*
Y228093D01*
D02*
G37*
G36*
X126276Y212169D02*
X124951D01*
Y211533D01*
X126276D01*
Y212169D01*
D02*
G37*
G36*
X123451D02*
X122126D01*
Y211533D01*
X123451D01*
Y212169D01*
D02*
G37*
G36*
X118476Y212114D02*
X117348D01*
Y210593D01*
X118476D01*
Y212114D01*
D02*
G37*
G36*
X115848D02*
X114720D01*
Y210593D01*
X115848D01*
Y212114D01*
D02*
G37*
G36*
X126276Y210033D02*
X124951D01*
Y209398D01*
X126276D01*
Y210033D01*
D02*
G37*
G36*
X123451D02*
X122126D01*
Y209398D01*
X123451D01*
Y210033D01*
D02*
G37*
G36*
X118476Y209092D02*
X117348D01*
Y207571D01*
X118476D01*
Y209092D01*
D02*
G37*
G36*
X115848D02*
X114720D01*
Y207571D01*
X115848D01*
Y209092D01*
D02*
G37*
G36*
X123191Y208232D02*
Y207092D01*
X124331D01*
X124325Y207123D01*
X123883Y207784D01*
X123221Y208226D01*
X123191Y208232D01*
D02*
G37*
G36*
X121691D02*
X121661Y208226D01*
X120999Y207784D01*
X120557Y207123D01*
X120551Y207092D01*
X121691D01*
Y208232D01*
D02*
G37*
G36*
X124331Y205592D02*
X123191D01*
Y204452D01*
X123221Y204459D01*
X123883Y204901D01*
X124325Y205562D01*
X124331Y205592D01*
D02*
G37*
G36*
X121691D02*
X120551D01*
X120557Y205562D01*
X120999Y204901D01*
X121661Y204459D01*
X121691Y204452D01*
Y205592D01*
D02*
G37*
G36*
X167691Y247196D02*
Y245014D01*
X169873D01*
X169629Y245604D01*
X169044Y246367D01*
X168281Y246952D01*
X167691Y247196D01*
D02*
G37*
G36*
X147691D02*
Y245014D01*
X149873D01*
X149629Y245604D01*
X149044Y246367D01*
X148282Y246952D01*
X147691Y247196D01*
D02*
G37*
G36*
X165191Y247196D02*
X164600Y246952D01*
X163838Y246367D01*
X163253Y245604D01*
X163008Y245014D01*
X165191D01*
Y247196D01*
D02*
G37*
G36*
X145191D02*
X144600Y246952D01*
X143838Y246367D01*
X143253Y245604D01*
X143008Y245014D01*
X145191D01*
Y247196D01*
D02*
G37*
G36*
X165191Y242514D02*
X163008D01*
X163253Y241923D01*
X163838Y241161D01*
X164600Y240576D01*
X165191Y240331D01*
Y242514D01*
D02*
G37*
G36*
X145191D02*
X143008D01*
X143253Y241923D01*
X143838Y241161D01*
X144600Y240576D01*
X145191Y240331D01*
Y242514D01*
D02*
G37*
G36*
X169873D02*
X167691D01*
Y240331D01*
X168281Y240576D01*
X169044Y241161D01*
X169629Y241923D01*
X169873Y242514D01*
D02*
G37*
G36*
X149873D02*
X147691D01*
Y240331D01*
X148282Y240576D01*
X149044Y241161D01*
X149629Y241923D01*
X149873Y242514D01*
D02*
G37*
G36*
X135059Y240886D02*
X128321D01*
Y237593D01*
X135059D01*
Y240886D01*
D02*
G37*
G36*
X125821D02*
X119083D01*
Y237593D01*
X125821D01*
Y240886D01*
D02*
G37*
G36*
X135059Y235092D02*
X128321D01*
Y231799D01*
X135059D01*
Y235092D01*
D02*
G37*
G36*
X125821D02*
X119083D01*
Y231799D01*
X125821D01*
Y235092D01*
D02*
G37*
G36*
X166441Y239187D02*
X165384Y239048D01*
X164399Y238640D01*
X163553Y237991D01*
X162904Y237145D01*
X162496Y236159D01*
X162356Y235102D01*
X162496Y234045D01*
X162904Y233060D01*
X163553Y232214D01*
X164399Y231565D01*
X165384Y231157D01*
X166441Y231018D01*
X167498Y231157D01*
X168483Y231565D01*
X169329Y232214D01*
X169978Y233060D01*
X170386Y234045D01*
X170526Y235102D01*
X170386Y236159D01*
X169978Y237145D01*
X169329Y237991D01*
X168483Y238640D01*
X167498Y239048D01*
X166441Y239187D01*
D02*
G37*
G36*
X146441D02*
X145384Y239048D01*
X144399Y238640D01*
X143553Y237991D01*
X142904Y237145D01*
X142496Y236159D01*
X142356Y235102D01*
X142496Y234045D01*
X142904Y233060D01*
X143553Y232214D01*
X144399Y231565D01*
X145384Y231157D01*
X146441Y231018D01*
X147498Y231157D01*
X148483Y231565D01*
X149329Y232214D01*
X149978Y233060D01*
X150386Y234045D01*
X150525Y235102D01*
X150386Y236159D01*
X149978Y237145D01*
X149329Y237991D01*
X148483Y238640D01*
X147498Y239048D01*
X146441Y239187D01*
D02*
G37*
G36*
X166441Y230525D02*
X165384Y230386D01*
X164399Y229978D01*
X163553Y229329D01*
X162904Y228483D01*
X162496Y227498D01*
X162356Y226441D01*
X162496Y225384D01*
X162904Y224399D01*
X163553Y223553D01*
X164399Y222904D01*
X165384Y222496D01*
X166441Y222356D01*
X167498Y222496D01*
X168483Y222904D01*
X169329Y223553D01*
X169978Y224399D01*
X170386Y225384D01*
X170526Y226441D01*
X170386Y227498D01*
X169978Y228483D01*
X169329Y229329D01*
X168483Y229978D01*
X167498Y230386D01*
X166441Y230525D01*
D02*
G37*
G36*
X146441D02*
X145384Y230386D01*
X144399Y229978D01*
X143553Y229329D01*
X142904Y228483D01*
X142496Y227498D01*
X142356Y226441D01*
X142496Y225384D01*
X142904Y224399D01*
X143553Y223553D01*
X144399Y222904D01*
X145384Y222496D01*
X146441Y222356D01*
X147498Y222496D01*
X148483Y222904D01*
X149329Y223553D01*
X149978Y224399D01*
X150386Y225384D01*
X150525Y226441D01*
X150386Y227498D01*
X149978Y228483D01*
X149329Y229329D01*
X148483Y229978D01*
X147498Y230386D01*
X146441Y230525D01*
D02*
G37*
G36*
X167691Y217275D02*
Y215092D01*
X169873D01*
X169629Y215683D01*
X169044Y216445D01*
X168281Y217030D01*
X167691Y217275D01*
D02*
G37*
G36*
X165191D02*
X164600Y217030D01*
X163838Y216445D01*
X163253Y215683D01*
X163008Y215092D01*
X165191D01*
Y217275D01*
D02*
G37*
G36*
X169873Y212593D02*
X167691D01*
Y210410D01*
X168281Y210655D01*
X169044Y211240D01*
X169629Y212002D01*
X169873Y212593D01*
D02*
G37*
G36*
X165191D02*
X163008D01*
X163253Y212002D01*
X163838Y211240D01*
X164600Y210655D01*
X165191Y210410D01*
Y212593D01*
D02*
G37*
G36*
X165799Y203787D02*
X164081D01*
Y200592D01*
X165799D01*
Y203787D01*
D02*
G37*
G36*
X162581D02*
X160862D01*
Y200592D01*
X162581D01*
Y203787D01*
D02*
G37*
G36*
X165799Y199092D02*
X164081D01*
Y195898D01*
X165799D01*
Y199092D01*
D02*
G37*
G36*
X162581D02*
X160862D01*
Y195898D01*
X162581D01*
Y199092D01*
D02*
G37*
G36*
X167691Y187354D02*
Y185171D01*
X169873D01*
X169629Y185762D01*
X169044Y186524D01*
X168281Y187109D01*
X167691Y187354D01*
D02*
G37*
G36*
X147691D02*
Y185171D01*
X149873D01*
X149629Y185762D01*
X149044Y186524D01*
X148282Y187109D01*
X147691Y187354D01*
D02*
G37*
G36*
X165191Y187354D02*
X164600Y187109D01*
X163838Y186524D01*
X163253Y185762D01*
X163008Y185171D01*
X165191D01*
Y187354D01*
D02*
G37*
G36*
X145191D02*
X144600Y187109D01*
X143838Y186524D01*
X143253Y185762D01*
X143008Y185171D01*
X145191D01*
Y187354D01*
D02*
G37*
G36*
X165191Y182671D02*
X163008D01*
X163253Y182081D01*
X163838Y181318D01*
X164600Y180733D01*
X165191Y180489D01*
Y182671D01*
D02*
G37*
G36*
X145191D02*
X143008D01*
X143253Y182081D01*
X143838Y181318D01*
X144600Y180733D01*
X145191Y180489D01*
Y182671D01*
D02*
G37*
G36*
X169873D02*
X167691D01*
Y180489D01*
X168281Y180733D01*
X169044Y181318D01*
X169629Y182081D01*
X169873Y182671D01*
D02*
G37*
G36*
X149873D02*
X147691D01*
Y180489D01*
X148282Y180733D01*
X149044Y181318D01*
X149629Y182081D01*
X149873Y182671D01*
D02*
G37*
G36*
X135059Y181043D02*
X128321D01*
Y177750D01*
X135059D01*
Y181043D01*
D02*
G37*
G36*
X125821D02*
X119083D01*
Y177750D01*
X125821D01*
Y181043D01*
D02*
G37*
G36*
X135059Y175250D02*
X128321D01*
Y171957D01*
X135059D01*
Y175250D01*
D02*
G37*
G36*
X125821D02*
X119083D01*
Y171957D01*
X125821D01*
Y175250D01*
D02*
G37*
G36*
X166441Y179344D02*
X165384Y179205D01*
X164399Y178797D01*
X163553Y178148D01*
X162904Y177302D01*
X162496Y176317D01*
X162356Y175260D01*
X162496Y174203D01*
X162904Y173218D01*
X163553Y172372D01*
X164399Y171722D01*
X165384Y171315D01*
X166441Y171175D01*
X167498Y171315D01*
X168483Y171722D01*
X169329Y172372D01*
X169978Y173218D01*
X170386Y174203D01*
X170526Y175260D01*
X170386Y176317D01*
X169978Y177302D01*
X169329Y178148D01*
X168483Y178797D01*
X167498Y179205D01*
X166441Y179344D01*
D02*
G37*
G36*
X146441D02*
X145384Y179205D01*
X144399Y178797D01*
X143553Y178148D01*
X142904Y177302D01*
X142496Y176317D01*
X142356Y175260D01*
X142496Y174203D01*
X142904Y173218D01*
X143553Y172372D01*
X144399Y171722D01*
X145384Y171315D01*
X146441Y171175D01*
X147498Y171315D01*
X148483Y171722D01*
X149329Y172372D01*
X149978Y173218D01*
X150386Y174203D01*
X150525Y175260D01*
X150386Y176317D01*
X149978Y177302D01*
X149329Y178148D01*
X148483Y178797D01*
X147498Y179205D01*
X146441Y179344D01*
D02*
G37*
G36*
X166441Y170683D02*
X165384Y170544D01*
X164399Y170136D01*
X163553Y169487D01*
X162904Y168641D01*
X162496Y167656D01*
X162356Y166598D01*
X162496Y165541D01*
X162904Y164556D01*
X163553Y163710D01*
X164399Y163061D01*
X165384Y162653D01*
X166441Y162514D01*
X167498Y162653D01*
X168483Y163061D01*
X169329Y163710D01*
X169978Y164556D01*
X170386Y165541D01*
X170526Y166598D01*
X170386Y167656D01*
X169978Y168641D01*
X169329Y169487D01*
X168483Y170136D01*
X167498Y170544D01*
X166441Y170683D01*
D02*
G37*
G36*
X146441D02*
X145384Y170544D01*
X144399Y170136D01*
X143553Y169487D01*
X142904Y168641D01*
X142496Y167656D01*
X142356Y166598D01*
X142496Y165541D01*
X142904Y164556D01*
X143553Y163710D01*
X144399Y163061D01*
X145384Y162653D01*
X146441Y162514D01*
X147498Y162653D01*
X148483Y163061D01*
X149329Y163710D01*
X149978Y164556D01*
X150386Y165541D01*
X150525Y166598D01*
X150386Y167656D01*
X149978Y168641D01*
X149329Y169487D01*
X148483Y170136D01*
X147498Y170544D01*
X146441Y170683D01*
D02*
G37*
G36*
X167691Y157432D02*
Y155250D01*
X169873D01*
X169629Y155841D01*
X169044Y156603D01*
X168281Y157188D01*
X167691Y157432D01*
D02*
G37*
G36*
X165191D02*
X164600Y157188D01*
X163838Y156603D01*
X163253Y155841D01*
X163008Y155250D01*
X165191D01*
Y157432D01*
D02*
G37*
G36*
X169873Y152750D02*
X167691D01*
Y150567D01*
X168281Y150812D01*
X169044Y151397D01*
X169629Y152159D01*
X169873Y152750D01*
D02*
G37*
G36*
X165191D02*
X163008D01*
X163253Y152159D01*
X163838Y151397D01*
X164600Y150812D01*
X165191Y150567D01*
Y152750D01*
D02*
G37*
G36*
X165799Y143945D02*
X164081D01*
Y140750D01*
X165799D01*
Y143945D01*
D02*
G37*
G36*
X162581D02*
X160862D01*
Y140750D01*
X162581D01*
Y143945D01*
D02*
G37*
G36*
X165799Y139250D02*
X164081D01*
Y136055D01*
X165799D01*
Y139250D01*
D02*
G37*
G36*
X162581D02*
X160862D01*
Y136055D01*
X162581D01*
Y139250D01*
D02*
G37*
G36*
X167691Y126854D02*
Y124671D01*
X169873D01*
X169629Y125262D01*
X169044Y126024D01*
X168281Y126609D01*
X167691Y126854D01*
D02*
G37*
G36*
X147691D02*
Y124671D01*
X149873D01*
X149629Y125262D01*
X149044Y126024D01*
X148282Y126609D01*
X147691Y126854D01*
D02*
G37*
G36*
X165191Y126854D02*
X164600Y126609D01*
X163838Y126024D01*
X163253Y125262D01*
X163008Y124671D01*
X165191D01*
Y126854D01*
D02*
G37*
G36*
X145191D02*
X144600Y126609D01*
X143838Y126024D01*
X143253Y125262D01*
X143008Y124671D01*
X145191D01*
Y126854D01*
D02*
G37*
G36*
X165191Y122171D02*
X163008D01*
X163253Y121581D01*
X163838Y120818D01*
X164600Y120233D01*
X165191Y119989D01*
Y122171D01*
D02*
G37*
G36*
X145191D02*
X143008D01*
X143253Y121581D01*
X143838Y120818D01*
X144600Y120233D01*
X145191Y119989D01*
Y122171D01*
D02*
G37*
G36*
X169873D02*
X167691D01*
Y119989D01*
X168281Y120233D01*
X169044Y120818D01*
X169629Y121581D01*
X169873Y122171D01*
D02*
G37*
G36*
X149873D02*
X147691D01*
Y119989D01*
X148282Y120233D01*
X149044Y120818D01*
X149629Y121581D01*
X149873Y122171D01*
D02*
G37*
G36*
X135059Y120886D02*
X128321D01*
Y117593D01*
X135059D01*
Y120886D01*
D02*
G37*
G36*
X125821D02*
X119083D01*
Y117593D01*
X125821D01*
Y120886D01*
D02*
G37*
G36*
X135059Y115093D02*
X128321D01*
Y111799D01*
X135059D01*
Y115093D01*
D02*
G37*
G36*
X125821D02*
X119083D01*
Y111799D01*
X125821D01*
Y115093D01*
D02*
G37*
G36*
X166441Y118844D02*
X165384Y118705D01*
X164399Y118297D01*
X163553Y117648D01*
X162904Y116802D01*
X162496Y115817D01*
X162356Y114760D01*
X162496Y113703D01*
X162904Y112718D01*
X163553Y111872D01*
X164399Y111223D01*
X165384Y110814D01*
X166441Y110675D01*
X167498Y110814D01*
X168483Y111223D01*
X169329Y111872D01*
X169978Y112718D01*
X170386Y113703D01*
X170526Y114760D01*
X170386Y115817D01*
X169978Y116802D01*
X169329Y117648D01*
X168483Y118297D01*
X167498Y118705D01*
X166441Y118844D01*
D02*
G37*
G36*
X146441D02*
X145384Y118705D01*
X144399Y118297D01*
X143553Y117648D01*
X142904Y116802D01*
X142496Y115817D01*
X142356Y114760D01*
X142496Y113703D01*
X142904Y112718D01*
X143553Y111872D01*
X144399Y111223D01*
X145384Y110814D01*
X146441Y110675D01*
X147498Y110814D01*
X148483Y111223D01*
X149329Y111872D01*
X149978Y112718D01*
X150386Y113703D01*
X150525Y114760D01*
X150386Y115817D01*
X149978Y116802D01*
X149329Y117648D01*
X148483Y118297D01*
X147498Y118705D01*
X146441Y118844D01*
D02*
G37*
G36*
X166441Y110183D02*
X165384Y110044D01*
X164399Y109636D01*
X163553Y108987D01*
X162904Y108141D01*
X162496Y107156D01*
X162356Y106098D01*
X162496Y105041D01*
X162904Y104056D01*
X163553Y103210D01*
X164399Y102561D01*
X165384Y102153D01*
X166441Y102014D01*
X167498Y102153D01*
X168483Y102561D01*
X169329Y103210D01*
X169978Y104056D01*
X170386Y105041D01*
X170526Y106098D01*
X170386Y107156D01*
X169978Y108141D01*
X169329Y108987D01*
X168483Y109636D01*
X167498Y110044D01*
X166441Y110183D01*
D02*
G37*
G36*
X146441D02*
X145384Y110044D01*
X144399Y109636D01*
X143553Y108987D01*
X142904Y108141D01*
X142496Y107156D01*
X142356Y106098D01*
X142496Y105041D01*
X142904Y104056D01*
X143553Y103210D01*
X144399Y102561D01*
X145384Y102153D01*
X146441Y102014D01*
X147498Y102153D01*
X148483Y102561D01*
X149329Y103210D01*
X149978Y104056D01*
X150386Y105041D01*
X150525Y106098D01*
X150386Y107156D01*
X149978Y108141D01*
X149329Y108987D01*
X148483Y109636D01*
X147498Y110044D01*
X146441Y110183D01*
D02*
G37*
G36*
X167691Y96933D02*
Y94750D01*
X169873D01*
X169629Y95341D01*
X169044Y96103D01*
X168281Y96688D01*
X167691Y96933D01*
D02*
G37*
G36*
X165191D02*
X164600Y96688D01*
X163838Y96103D01*
X163253Y95341D01*
X163008Y94750D01*
X165191D01*
Y96933D01*
D02*
G37*
G36*
X169873Y92250D02*
X167691D01*
Y90067D01*
X168281Y90312D01*
X169044Y90897D01*
X169629Y91659D01*
X169873Y92250D01*
D02*
G37*
G36*
X165191D02*
X163008D01*
X163253Y91659D01*
X163838Y90897D01*
X164600Y90312D01*
X165191Y90067D01*
Y92250D01*
D02*
G37*
G36*
X165799Y83287D02*
X164081D01*
Y80093D01*
X165799D01*
Y83287D01*
D02*
G37*
G36*
X162581D02*
X160862D01*
Y80093D01*
X162581D01*
Y83287D01*
D02*
G37*
G36*
X165799Y78592D02*
X164081D01*
Y75398D01*
X165799D01*
Y78592D01*
D02*
G37*
G36*
X162581D02*
X160862D01*
Y75398D01*
X162581D01*
Y78592D01*
D02*
G37*
G36*
X167691Y66354D02*
Y64171D01*
X169873D01*
X169629Y64762D01*
X169044Y65524D01*
X168281Y66109D01*
X167691Y66354D01*
D02*
G37*
G36*
X147691D02*
Y64171D01*
X149873D01*
X149629Y64762D01*
X149044Y65524D01*
X148282Y66109D01*
X147691Y66354D01*
D02*
G37*
G36*
X165191Y66354D02*
X164600Y66109D01*
X163838Y65524D01*
X163253Y64762D01*
X163008Y64171D01*
X165191D01*
Y66354D01*
D02*
G37*
G36*
X145191D02*
X144600Y66109D01*
X143838Y65524D01*
X143253Y64762D01*
X143008Y64171D01*
X145191D01*
Y66354D01*
D02*
G37*
G36*
Y61671D02*
X143008D01*
X143253Y61081D01*
X143838Y60318D01*
X144600Y59733D01*
X145191Y59489D01*
Y61671D01*
D02*
G37*
G36*
X165191D02*
X163008D01*
X163253Y61081D01*
X163838Y60318D01*
X164600Y59733D01*
X165191Y59489D01*
Y61671D01*
D02*
G37*
G36*
X169873D02*
X167691D01*
Y59489D01*
X168281Y59733D01*
X169044Y60318D01*
X169629Y61081D01*
X169873Y61671D01*
D02*
G37*
G36*
X149873D02*
X147691D01*
Y59489D01*
X148282Y59733D01*
X149044Y60318D01*
X149629Y61081D01*
X149873Y61671D01*
D02*
G37*
G36*
X135059Y60043D02*
X128321D01*
Y56750D01*
X135059D01*
Y60043D01*
D02*
G37*
G36*
X125821D02*
X119083D01*
Y56750D01*
X125821D01*
Y60043D01*
D02*
G37*
G36*
X135059Y54250D02*
X128321D01*
Y50957D01*
X135059D01*
Y54250D01*
D02*
G37*
G36*
X125821D02*
X119083D01*
Y50957D01*
X125821D01*
Y54250D01*
D02*
G37*
G36*
X166441Y58344D02*
X165384Y58205D01*
X164399Y57797D01*
X163553Y57148D01*
X162904Y56302D01*
X162496Y55317D01*
X162356Y54260D01*
X162496Y53203D01*
X162904Y52218D01*
X163553Y51372D01*
X164399Y50722D01*
X165384Y50314D01*
X166441Y50175D01*
X167498Y50314D01*
X168483Y50722D01*
X169329Y51372D01*
X169978Y52218D01*
X170386Y53203D01*
X170526Y54260D01*
X170386Y55317D01*
X169978Y56302D01*
X169329Y57148D01*
X168483Y57797D01*
X167498Y58205D01*
X166441Y58344D01*
D02*
G37*
G36*
X146441D02*
X145384Y58205D01*
X144399Y57797D01*
X143553Y57148D01*
X142904Y56302D01*
X142496Y55317D01*
X142356Y54260D01*
X142496Y53203D01*
X142904Y52218D01*
X143553Y51372D01*
X144399Y50722D01*
X145384Y50314D01*
X146441Y50175D01*
X147498Y50314D01*
X148483Y50722D01*
X149329Y51372D01*
X149978Y52218D01*
X150386Y53203D01*
X150525Y54260D01*
X150386Y55317D01*
X149978Y56302D01*
X149329Y57148D01*
X148483Y57797D01*
X147498Y58205D01*
X146441Y58344D01*
D02*
G37*
G36*
X13746Y52275D02*
Y49045D01*
X16975D01*
X16935Y49351D01*
X16528Y50334D01*
X15880Y51179D01*
X15035Y51827D01*
X14052Y52235D01*
X13746Y52275D01*
D02*
G37*
G36*
X12246D02*
X11941Y52235D01*
X10957Y51827D01*
X10112Y51179D01*
X9464Y50334D01*
X9057Y49351D01*
X9017Y49045D01*
X12246D01*
Y52275D01*
D02*
G37*
G36*
X16975Y47545D02*
X13746D01*
Y44316D01*
X14052Y44356D01*
X15035Y44763D01*
X15880Y45412D01*
X16528Y46256D01*
X16935Y47240D01*
X16975Y47545D01*
D02*
G37*
G36*
X12246D02*
X9017D01*
X9057Y47240D01*
X9464Y46256D01*
X10112Y45412D01*
X10957Y44763D01*
X11941Y44356D01*
X12246Y44316D01*
Y47545D01*
D02*
G37*
G36*
X166441Y49683D02*
X165384Y49544D01*
X164399Y49136D01*
X163553Y48487D01*
X162904Y47641D01*
X162496Y46656D01*
X162356Y45598D01*
X162496Y44541D01*
X162904Y43556D01*
X163553Y42710D01*
X164399Y42061D01*
X165384Y41653D01*
X166441Y41514D01*
X167498Y41653D01*
X168483Y42061D01*
X169329Y42710D01*
X169978Y43556D01*
X170386Y44541D01*
X170526Y45598D01*
X170386Y46656D01*
X169978Y47641D01*
X169329Y48487D01*
X168483Y49136D01*
X167498Y49544D01*
X166441Y49683D01*
D02*
G37*
G36*
X146441D02*
X145384Y49544D01*
X144399Y49136D01*
X143553Y48487D01*
X142904Y47641D01*
X142496Y46656D01*
X142356Y45598D01*
X142496Y44541D01*
X142904Y43556D01*
X143553Y42710D01*
X144399Y42061D01*
X145384Y41653D01*
X146441Y41514D01*
X147498Y41653D01*
X148483Y42061D01*
X149329Y42710D01*
X149978Y43556D01*
X150386Y44541D01*
X150525Y45598D01*
X150386Y46656D01*
X149978Y47641D01*
X149329Y48487D01*
X148483Y49136D01*
X147498Y49544D01*
X146441Y49683D01*
D02*
G37*
G36*
X167691Y36432D02*
Y34250D01*
X169873D01*
X169629Y34841D01*
X169044Y35603D01*
X168281Y36188D01*
X167691Y36432D01*
D02*
G37*
G36*
X165191Y36432D02*
X164600Y36188D01*
X163838Y35603D01*
X163253Y34841D01*
X163008Y34250D01*
X165191D01*
Y36432D01*
D02*
G37*
G36*
Y31750D02*
X163008D01*
X163253Y31159D01*
X163838Y30397D01*
X164600Y29812D01*
X165191Y29568D01*
Y31750D01*
D02*
G37*
G36*
X169873D02*
X167691D01*
Y29568D01*
X168281Y29812D01*
X169044Y30397D01*
X169629Y31159D01*
X169873Y31750D01*
D02*
G37*
G36*
X165799Y22445D02*
X164081D01*
Y19250D01*
X165799D01*
Y22445D01*
D02*
G37*
G36*
X162581D02*
X160862D01*
Y19250D01*
X162581D01*
Y22445D01*
D02*
G37*
G36*
X88848Y20977D02*
Y16998D01*
X91577D01*
Y17224D01*
X91442Y18254D01*
X91044Y19214D01*
X90412Y20038D01*
X89588Y20670D01*
X88848Y20977D01*
D02*
G37*
G36*
X86348Y20977D02*
X85609Y20670D01*
X84785Y20038D01*
X84153Y19214D01*
X83755Y18254D01*
X83619Y17224D01*
Y16998D01*
X86348D01*
Y20977D01*
D02*
G37*
G36*
X165799Y17750D02*
X164081D01*
Y14555D01*
X165799D01*
Y17750D01*
D02*
G37*
G36*
X162581D02*
X160862D01*
Y14555D01*
X162581D01*
Y17750D01*
D02*
G37*
G36*
X86348Y14498D02*
X83619D01*
Y14272D01*
X83755Y13242D01*
X84153Y12282D01*
X84785Y11458D01*
X85609Y10826D01*
X86348Y10520D01*
Y14498D01*
D02*
G37*
G36*
X91577D02*
X88848D01*
Y10520D01*
X89588Y10826D01*
X90412Y11458D01*
X91044Y12282D01*
X91442Y13242D01*
X91577Y14272D01*
Y14498D01*
D02*
G37*
G36*
X77756Y21607D02*
X76622Y21457D01*
X75565Y21020D01*
X74657Y20323D01*
X73961Y19416D01*
X73523Y18359D01*
X73374Y17224D01*
Y14272D01*
X73523Y13137D01*
X73961Y12081D01*
X74657Y11173D01*
X75565Y10476D01*
X76622Y10039D01*
X77756Y9889D01*
X78890Y10039D01*
X79947Y10476D01*
X80855Y11173D01*
X81551Y12081D01*
X81989Y13137D01*
X82138Y14272D01*
Y17224D01*
X81989Y18359D01*
X81551Y19416D01*
X80855Y20323D01*
X79947Y21020D01*
X78890Y21457D01*
X77756Y21607D01*
D02*
G37*
G36*
X95191Y186890D02*
Y185750D01*
X96331D01*
X96325Y185780D01*
X95883Y186442D01*
X95221Y186884D01*
X95191Y186890D01*
D02*
G37*
G36*
X93691D02*
X93661Y186884D01*
X92999Y186442D01*
X92557Y185780D01*
X92551Y185750D01*
X93691D01*
Y186890D01*
D02*
G37*
G36*
X96331Y184250D02*
X95191D01*
Y183110D01*
X95221Y183116D01*
X95883Y183558D01*
X96325Y184220D01*
X96331Y184250D01*
D02*
G37*
G36*
X93691D02*
X92551D01*
X92557Y184220D01*
X92999Y183558D01*
X93661Y183116D01*
X93691Y183110D01*
Y184250D01*
D02*
G37*
G36*
X95191Y181890D02*
Y180750D01*
X96331D01*
X96325Y180780D01*
X95883Y181442D01*
X95221Y181884D01*
X95191Y181890D01*
D02*
G37*
G36*
X93691D02*
X93661Y181884D01*
X92999Y181442D01*
X92557Y180780D01*
X92551Y180750D01*
X93691D01*
Y181890D01*
D02*
G37*
G36*
X96331Y179250D02*
X95191D01*
Y178110D01*
X95221Y178116D01*
X95883Y178558D01*
X96325Y179220D01*
X96331Y179250D01*
D02*
G37*
G36*
X93691D02*
X92551D01*
X92557Y179220D01*
X92999Y178558D01*
X93661Y178116D01*
X93691Y178110D01*
Y179250D01*
D02*
G37*
G36*
X113799Y181043D02*
X107061D01*
Y177750D01*
X113799D01*
Y181043D01*
D02*
G37*
G36*
X104561D02*
X97823D01*
Y177750D01*
X104561D01*
Y181043D01*
D02*
G37*
G36*
X95191Y176390D02*
Y175250D01*
X96331D01*
X96325Y175280D01*
X95883Y175942D01*
X95221Y176384D01*
X95191Y176390D01*
D02*
G37*
G36*
X93691D02*
X93661Y176384D01*
X92999Y175942D01*
X92557Y175280D01*
X92551Y175250D01*
X93691D01*
Y176390D01*
D02*
G37*
G36*
X96331Y173750D02*
X95191D01*
Y172610D01*
X95221Y172616D01*
X95883Y173058D01*
X96325Y173720D01*
X96331Y173750D01*
D02*
G37*
G36*
X93691D02*
X92551D01*
X92557Y173720D01*
X92999Y173058D01*
X93661Y172616D01*
X93691Y172610D01*
Y173750D01*
D02*
G37*
G36*
X113799Y175250D02*
X107061D01*
Y171957D01*
X113799D01*
Y175250D01*
D02*
G37*
G36*
X104561D02*
X97823D01*
Y171957D01*
X104561D01*
Y175250D01*
D02*
G37*
G36*
X95191Y170890D02*
Y169750D01*
X96331D01*
X96325Y169780D01*
X95883Y170442D01*
X95221Y170884D01*
X95191Y170890D01*
D02*
G37*
G36*
X93691D02*
X93661Y170884D01*
X92999Y170442D01*
X92557Y169780D01*
X92551Y169750D01*
X93691D01*
Y170890D01*
D02*
G37*
G36*
X96331Y168250D02*
X95191D01*
Y167110D01*
X95221Y167116D01*
X95883Y167558D01*
X96325Y168220D01*
X96331Y168250D01*
D02*
G37*
G36*
X93691D02*
X92551D01*
X92557Y168220D01*
X92999Y167558D01*
X93661Y167116D01*
X93691Y167110D01*
Y168250D01*
D02*
G37*
G36*
X126276Y152327D02*
X124951D01*
Y151691D01*
X126276D01*
Y152327D01*
D02*
G37*
G36*
X123451D02*
X122126D01*
Y151691D01*
X123451D01*
Y152327D01*
D02*
G37*
G36*
X118476Y152272D02*
X117348D01*
Y150750D01*
X118476D01*
Y152272D01*
D02*
G37*
G36*
X115848D02*
X114720D01*
Y150750D01*
X115848D01*
Y152272D01*
D02*
G37*
G36*
X126276Y150191D02*
X124951D01*
Y149555D01*
X126276D01*
Y150191D01*
D02*
G37*
G36*
X123451D02*
X122126D01*
Y149555D01*
X123451D01*
Y150191D01*
D02*
G37*
G36*
X118476Y149250D02*
X117348D01*
Y147728D01*
X118476D01*
Y149250D01*
D02*
G37*
G36*
X115848D02*
X114720D01*
Y147728D01*
X115848D01*
Y149250D01*
D02*
G37*
G36*
X123191Y148390D02*
Y147250D01*
X124331D01*
X124325Y147280D01*
X123883Y147942D01*
X123221Y148384D01*
X123191Y148390D01*
D02*
G37*
G36*
X121691D02*
X121661Y148384D01*
X120999Y147942D01*
X120557Y147280D01*
X120551Y147250D01*
X121691D01*
Y148390D01*
D02*
G37*
G36*
X124331Y145750D02*
X123191D01*
Y144610D01*
X123221Y144616D01*
X123883Y145058D01*
X124325Y145720D01*
X124331Y145750D01*
D02*
G37*
G36*
X121691D02*
X120551D01*
X120557Y145720D01*
X120999Y145058D01*
X121661Y144616D01*
X121691Y144610D01*
Y145750D01*
D02*
G37*
G36*
X95191Y126733D02*
Y125593D01*
X96331D01*
X96325Y125623D01*
X95883Y126284D01*
X95221Y126726D01*
X95191Y126733D01*
D02*
G37*
G36*
X93691D02*
X93661Y126726D01*
X92999Y126284D01*
X92557Y125623D01*
X92551Y125593D01*
X93691D01*
Y126733D01*
D02*
G37*
G36*
X96331Y124092D02*
X95191D01*
Y122952D01*
X95221Y122959D01*
X95883Y123401D01*
X96325Y124062D01*
X96331Y124092D01*
D02*
G37*
G36*
X93691D02*
X92551D01*
X92557Y124062D01*
X92999Y123401D01*
X93661Y122959D01*
X93691Y122952D01*
Y124092D01*
D02*
G37*
G36*
X95191Y121732D02*
Y120592D01*
X96331D01*
X96325Y120623D01*
X95883Y121284D01*
X95221Y121727D01*
X95191Y121732D01*
D02*
G37*
G36*
X93691D02*
X93661Y121727D01*
X92999Y121284D01*
X92557Y120623D01*
X92551Y120592D01*
X93691D01*
Y121732D01*
D02*
G37*
G36*
X96331Y119093D02*
X95191D01*
Y117953D01*
X95221Y117959D01*
X95883Y118401D01*
X96325Y119062D01*
X96331Y119093D01*
D02*
G37*
G36*
X93691D02*
X92551D01*
X92557Y119062D01*
X92999Y118401D01*
X93661Y117959D01*
X93691Y117953D01*
Y119093D01*
D02*
G37*
G36*
X113799Y120886D02*
X107061D01*
Y117593D01*
X113799D01*
Y120886D01*
D02*
G37*
G36*
X104561D02*
X97823D01*
Y117593D01*
X104561D01*
Y120886D01*
D02*
G37*
G36*
X95191Y116233D02*
Y115093D01*
X96331D01*
X96325Y115123D01*
X95883Y115784D01*
X95221Y116226D01*
X95191Y116233D01*
D02*
G37*
G36*
X93691D02*
X93661Y116226D01*
X92999Y115784D01*
X92557Y115123D01*
X92551Y115093D01*
X93691D01*
Y116233D01*
D02*
G37*
G36*
X96331Y113593D02*
X95191D01*
Y112452D01*
X95221Y112459D01*
X95883Y112901D01*
X96325Y113562D01*
X96331Y113593D01*
D02*
G37*
G36*
X93691D02*
X92551D01*
X92557Y113562D01*
X92999Y112901D01*
X93661Y112459D01*
X93691Y112452D01*
Y113593D01*
D02*
G37*
G36*
X113799Y115093D02*
X107061D01*
Y111799D01*
X113799D01*
Y115093D01*
D02*
G37*
G36*
X104561D02*
X97823D01*
Y111799D01*
X104561D01*
Y115093D01*
D02*
G37*
G36*
X95191Y110732D02*
Y109592D01*
X96331D01*
X96325Y109623D01*
X95883Y110284D01*
X95221Y110726D01*
X95191Y110732D01*
D02*
G37*
G36*
X93691D02*
X93661Y110726D01*
X92999Y110284D01*
X92557Y109623D01*
X92551Y109592D01*
X93691D01*
Y110732D01*
D02*
G37*
G36*
X96331Y108092D02*
X95191D01*
Y106953D01*
X95221Y106959D01*
X95883Y107401D01*
X96325Y108062D01*
X96331Y108092D01*
D02*
G37*
G36*
X93691D02*
X92551D01*
X92557Y108062D01*
X92999Y107401D01*
X93661Y106959D01*
X93691Y106953D01*
Y108092D01*
D02*
G37*
G36*
X126276Y91669D02*
X124951D01*
Y91034D01*
X126276D01*
Y91669D01*
D02*
G37*
G36*
X123451D02*
X122126D01*
Y91034D01*
X123451D01*
Y91669D01*
D02*
G37*
G36*
X118476Y91614D02*
X117348D01*
Y90092D01*
X118476D01*
Y91614D01*
D02*
G37*
G36*
X115848D02*
X114720D01*
Y90092D01*
X115848D01*
Y91614D01*
D02*
G37*
G36*
X126276Y89534D02*
X124951D01*
Y88898D01*
X126276D01*
Y89534D01*
D02*
G37*
G36*
X123451D02*
X122126D01*
Y88898D01*
X123451D01*
Y89534D01*
D02*
G37*
G36*
X118476Y88592D02*
X117348D01*
Y87071D01*
X118476D01*
Y88592D01*
D02*
G37*
G36*
X115848D02*
X114720D01*
Y87071D01*
X115848D01*
Y88592D01*
D02*
G37*
G36*
X123191Y87732D02*
Y86593D01*
X124331D01*
X124325Y86623D01*
X123883Y87284D01*
X123221Y87726D01*
X123191Y87732D01*
D02*
G37*
G36*
X121691D02*
X121661Y87726D01*
X120999Y87284D01*
X120557Y86623D01*
X120551Y86593D01*
X121691D01*
Y87732D01*
D02*
G37*
G36*
X124331Y85093D02*
X123191D01*
Y83952D01*
X123221Y83959D01*
X123883Y84401D01*
X124325Y85062D01*
X124331Y85093D01*
D02*
G37*
G36*
X121691D02*
X120551D01*
X120557Y85062D01*
X120999Y84401D01*
X121661Y83959D01*
X121691Y83952D01*
Y85093D01*
D02*
G37*
G36*
X95191Y65890D02*
Y64750D01*
X96331D01*
X96325Y64780D01*
X95883Y65442D01*
X95221Y65884D01*
X95191Y65890D01*
D02*
G37*
G36*
X93691D02*
X93661Y65884D01*
X92999Y65442D01*
X92557Y64780D01*
X92551Y64750D01*
X93691D01*
Y65890D01*
D02*
G37*
G36*
X96331Y63250D02*
X95191D01*
Y62110D01*
X95221Y62116D01*
X95883Y62558D01*
X96325Y63220D01*
X96331Y63250D01*
D02*
G37*
G36*
X93691D02*
X92551D01*
X92557Y63220D01*
X92999Y62558D01*
X93661Y62116D01*
X93691Y62110D01*
Y63250D01*
D02*
G37*
G36*
X95191Y60890D02*
Y59750D01*
X96331D01*
X96325Y59780D01*
X95883Y60442D01*
X95221Y60884D01*
X95191Y60890D01*
D02*
G37*
G36*
X93691D02*
X93661Y60884D01*
X92999Y60442D01*
X92557Y59780D01*
X92551Y59750D01*
X93691D01*
Y60890D01*
D02*
G37*
G36*
X96331Y58250D02*
X95191D01*
Y57110D01*
X95221Y57116D01*
X95883Y57558D01*
X96325Y58220D01*
X96331Y58250D01*
D02*
G37*
G36*
X93691D02*
X92551D01*
X92557Y58220D01*
X92999Y57558D01*
X93661Y57116D01*
X93691Y57110D01*
Y58250D01*
D02*
G37*
G36*
X113799Y60043D02*
X107061D01*
Y56750D01*
X113799D01*
Y60043D01*
D02*
G37*
G36*
X104561D02*
X97823D01*
Y56750D01*
X104561D01*
Y60043D01*
D02*
G37*
G36*
X95191Y55390D02*
Y54250D01*
X96331D01*
X96325Y54280D01*
X95883Y54942D01*
X95221Y55384D01*
X95191Y55390D01*
D02*
G37*
G36*
X93691D02*
X93661Y55384D01*
X92999Y54942D01*
X92557Y54280D01*
X92551Y54250D01*
X93691D01*
Y55390D01*
D02*
G37*
G36*
X96331Y52750D02*
X95191D01*
Y51610D01*
X95221Y51616D01*
X95883Y52058D01*
X96325Y52720D01*
X96331Y52750D01*
D02*
G37*
G36*
X93691D02*
X92551D01*
X92557Y52720D01*
X92999Y52058D01*
X93661Y51616D01*
X93691Y51610D01*
Y52750D01*
D02*
G37*
G36*
X113799Y54250D02*
X107061D01*
Y50957D01*
X113799D01*
Y54250D01*
D02*
G37*
G36*
X104561D02*
X97823D01*
Y50957D01*
X104561D01*
Y54250D01*
D02*
G37*
G36*
X95191Y49890D02*
Y48750D01*
X96331D01*
X96325Y48780D01*
X95883Y49442D01*
X95221Y49884D01*
X95191Y49890D01*
D02*
G37*
G36*
X93691D02*
X93661Y49884D01*
X92999Y49442D01*
X92557Y48780D01*
X92551Y48750D01*
X93691D01*
Y49890D01*
D02*
G37*
G36*
X96331Y47250D02*
X95191D01*
Y46110D01*
X95221Y46116D01*
X95883Y46558D01*
X96325Y47220D01*
X96331Y47250D01*
D02*
G37*
G36*
X93691D02*
X92551D01*
X92557Y47220D01*
X92999Y46558D01*
X93661Y46116D01*
X93691Y46110D01*
Y47250D01*
D02*
G37*
G36*
X126276Y30827D02*
X124951D01*
Y30191D01*
X126276D01*
Y30827D01*
D02*
G37*
G36*
X123451D02*
X122126D01*
Y30191D01*
X123451D01*
Y30827D01*
D02*
G37*
G36*
X118476Y30772D02*
X117348D01*
Y29250D01*
X118476D01*
Y30772D01*
D02*
G37*
G36*
X115848D02*
X114720D01*
Y29250D01*
X115848D01*
Y30772D01*
D02*
G37*
G36*
X126276Y28691D02*
X124951D01*
Y28055D01*
X126276D01*
Y28691D01*
D02*
G37*
G36*
X123451D02*
X122126D01*
Y28055D01*
X123451D01*
Y28691D01*
D02*
G37*
G36*
X118476Y27750D02*
X117348D01*
Y26228D01*
X118476D01*
Y27750D01*
D02*
G37*
G36*
X115848D02*
X114720D01*
Y26228D01*
X115848D01*
Y27750D01*
D02*
G37*
G36*
X123191Y26890D02*
Y25750D01*
X124331D01*
X124325Y25780D01*
X123883Y26442D01*
X123221Y26884D01*
X123191Y26890D01*
D02*
G37*
G36*
X121691D02*
X121661Y26884D01*
X120999Y26442D01*
X120557Y25780D01*
X120551Y25750D01*
X121691D01*
Y26890D01*
D02*
G37*
G36*
X124331Y24250D02*
X123191D01*
Y23110D01*
X123221Y23116D01*
X123883Y23558D01*
X124325Y24220D01*
X124331Y24250D01*
D02*
G37*
G36*
X121691D02*
X120551D01*
X120557Y24220D01*
X120999Y23558D01*
X121661Y23116D01*
X121691Y23110D01*
Y24250D01*
D02*
G37*
%LPD*%
D13*
X149551Y199843D02*
Y210377D01*
X12996Y68295D02*
X13770Y69069D01*
X23167D01*
X23941Y69842D01*
X12996Y78295D02*
X20409D01*
X23547Y75157D01*
X23941D01*
X179941Y34500D02*
X193098Y47657D01*
X179941Y17500D02*
Y34500D01*
Y97500D02*
X190941Y108500D01*
X179941Y78500D02*
Y97500D01*
X179441Y156500D02*
X191941Y169000D01*
X179441Y139000D02*
Y156500D01*
X193783Y228842D02*
X194941D01*
X179941Y199000D02*
Y215000D01*
X193783Y228842D01*
X88087Y159853D02*
Y173204D01*
Y159853D02*
X108941Y139000D01*
X82996Y188295D02*
X90087Y181204D01*
Y163354D02*
Y181204D01*
X82996Y178295D02*
X88087Y173204D01*
X90087Y163354D02*
X96441Y157000D01*
X111284D01*
X193098Y47657D02*
X195071D01*
X116598Y17500D02*
X139459D01*
X146441Y32645D02*
Y33000D01*
Y32645D02*
X149551Y29535D01*
Y18500D02*
Y29535D01*
X131681Y32000D02*
X132067Y32386D01*
X145827D01*
X146441Y33000D01*
X190941Y108500D02*
X194941D01*
X116598Y78342D02*
X139787D01*
X149551Y79343D02*
Y90035D01*
X146441Y93145D02*
X149551Y90035D01*
X146441Y93145D02*
Y93500D01*
X131681Y92843D02*
X132010Y93171D01*
X146112D01*
X146441Y93500D01*
X116598Y96280D02*
Y96342D01*
Y96280D02*
X117476Y95402D01*
X124201D01*
X111284Y89342D02*
Y96342D01*
X191941Y169000D02*
X194941D01*
X116598Y139000D02*
X139941D01*
X108941D02*
X111284D01*
X146441Y153645D02*
Y154000D01*
Y153645D02*
X149551Y150535D01*
Y140000D02*
Y150535D01*
X131681Y153500D02*
X131931Y153750D01*
X146191D01*
X146441Y154000D01*
X116598Y156937D02*
Y157000D01*
Y156937D02*
X117476Y156059D01*
X124201D01*
X111284Y150000D02*
Y157000D01*
X116598Y198843D02*
X139726D01*
X82996Y198295D02*
X110736D01*
X111284Y198843D01*
X146441Y213487D02*
X149551Y210377D01*
X146441Y213487D02*
Y213843D01*
X131681Y213342D02*
X131931Y213593D01*
X146191D01*
X146441Y213843D01*
X116598Y216779D02*
Y216843D01*
Y216779D02*
X117476Y215902D01*
X124201D01*
X111284Y209842D02*
Y216843D01*
X82996Y208295D02*
X91543Y216843D01*
X111284D01*
D16*
X124201Y34559D02*
D03*
Y29441D02*
D03*
X131681Y32000D02*
D03*
X124201Y95402D02*
D03*
Y90284D02*
D03*
X131681Y92843D02*
D03*
X124201Y215902D02*
D03*
Y210784D02*
D03*
X131681Y213342D02*
D03*
X124201Y156059D02*
D03*
Y150941D02*
D03*
X131681Y153500D02*
D03*
D17*
X111284Y17500D02*
D03*
X116598D02*
D03*
X111284Y28500D02*
D03*
X116598D02*
D03*
X111284Y35500D02*
D03*
X116598D02*
D03*
X111284Y78342D02*
D03*
X116598D02*
D03*
X111284Y89342D02*
D03*
X116598D02*
D03*
X111284Y96342D02*
D03*
X116598D02*
D03*
X111284Y198843D02*
D03*
X116598D02*
D03*
X111284Y209842D02*
D03*
X116598D02*
D03*
X111284Y216843D02*
D03*
X116598D02*
D03*
X111284Y157000D02*
D03*
X116598D02*
D03*
X111284Y150000D02*
D03*
X116598D02*
D03*
X111284Y139000D02*
D03*
X116598D02*
D03*
D18*
X163331Y18500D02*
D03*
X149551D02*
D03*
X163331Y79343D02*
D03*
X149551D02*
D03*
X163331Y199843D02*
D03*
X149551D02*
D03*
X163331Y140000D02*
D03*
X149551D02*
D03*
D19*
X105811Y55500D02*
D03*
X127071D02*
D03*
X105811Y116342D02*
D03*
X127071D02*
D03*
X105811Y236343D02*
D03*
X127071D02*
D03*
X105811Y176500D02*
D03*
X127071D02*
D03*
D20*
X23941Y75157D02*
D03*
Y69842D02*
D03*
D33*
X26646Y88295D02*
X76441Y38500D01*
X103941D01*
X12996Y88295D02*
X26646D01*
X103941Y38500D02*
X107941Y34500D01*
Y21500D02*
Y34500D01*
X110355Y18428D02*
X111284Y17500D01*
X107941Y21500D02*
X110355Y19085D01*
Y18428D02*
Y19085D01*
X20146Y98295D02*
X77941Y40500D01*
X106283D01*
X12996Y98295D02*
X20146D01*
X106283Y40500D02*
X111284Y35500D01*
Y28500D02*
Y35500D01*
X13151Y128450D02*
X35600D01*
X12996Y128295D02*
X13151Y128450D01*
X35600D02*
X60762Y103289D01*
X85064D01*
X34441Y125500D02*
X66639Y93302D01*
X34378Y125500D02*
X34441D01*
X66639Y93302D02*
X89139D01*
X116598Y35487D02*
Y35500D01*
Y35487D02*
X117526Y34559D01*
X124201D01*
X12996Y138295D02*
X27646D01*
X31941Y134000D01*
X89139Y93302D02*
X104098Y78342D01*
X111284D01*
X92010Y96342D02*
X111284D01*
X85064Y103289D02*
X92010Y96342D01*
D34*
X13779Y261812D02*
D03*
X13779Y13779D02*
D03*
X194882Y261811D02*
D03*
X194882Y13780D02*
D03*
D35*
X82996Y148295D02*
D03*
Y138295D02*
D03*
Y158295D02*
D03*
Y168295D02*
D03*
Y178295D02*
D03*
Y188295D02*
D03*
Y198295D02*
D03*
Y208295D02*
D03*
Y218295D02*
D03*
Y228295D02*
D03*
Y128295D02*
D03*
Y118295D02*
D03*
Y108295D02*
D03*
Y98295D02*
D03*
Y88295D02*
D03*
Y78295D02*
D03*
Y68295D02*
D03*
Y58295D02*
D03*
Y48295D02*
D03*
X12996Y148295D02*
D03*
Y138295D02*
D03*
Y158295D02*
D03*
Y168295D02*
D03*
Y178295D02*
D03*
Y188295D02*
D03*
Y198295D02*
D03*
Y208295D02*
D03*
Y218295D02*
D03*
Y228295D02*
D03*
Y128295D02*
D03*
Y118295D02*
D03*
Y108295D02*
D03*
Y98295D02*
D03*
Y88295D02*
D03*
Y78295D02*
D03*
Y68295D02*
D03*
Y58295D02*
D03*
Y48295D02*
D03*
D36*
X82996Y238295D02*
D03*
X12996D02*
D03*
D37*
X166441Y33000D02*
D03*
Y45598D02*
D03*
X146441D02*
D03*
Y33000D02*
D03*
X166441Y54260D02*
D03*
Y62921D02*
D03*
X146441D02*
D03*
Y54260D02*
D03*
X166441Y93500D02*
D03*
Y106098D02*
D03*
X146441D02*
D03*
Y93500D02*
D03*
X166441Y114760D02*
D03*
Y123421D02*
D03*
X146441D02*
D03*
Y114760D02*
D03*
X166441Y213843D02*
D03*
Y226441D02*
D03*
X146441D02*
D03*
Y213843D02*
D03*
X166441Y235102D02*
D03*
Y243764D02*
D03*
X146441D02*
D03*
Y235102D02*
D03*
X166441Y154000D02*
D03*
Y166598D02*
D03*
X146441D02*
D03*
Y154000D02*
D03*
X166441Y175260D02*
D03*
Y183921D02*
D03*
X146441D02*
D03*
Y175260D02*
D03*
D38*
X195071Y47657D02*
D03*
Y57500D02*
D03*
Y37815D02*
D03*
X194941Y108500D02*
D03*
Y118342D02*
D03*
Y98658D02*
D03*
Y228842D02*
D03*
Y238685D02*
D03*
Y219000D02*
D03*
Y169000D02*
D03*
Y178842D02*
D03*
Y159158D02*
D03*
D39*
X87598Y15748D02*
D03*
X77756D02*
D03*
D40*
X179941Y17500D02*
D03*
Y78500D02*
D03*
X179441Y139000D02*
D03*
X179941Y199000D02*
D03*
X139726Y198843D02*
D03*
X139941Y139000D02*
D03*
X139787Y78342D02*
D03*
X139459Y17500D02*
D03*
X94441Y228842D02*
D03*
Y234343D02*
D03*
Y239843D02*
D03*
Y244843D02*
D03*
Y169000D02*
D03*
Y174500D02*
D03*
Y180000D02*
D03*
Y185000D02*
D03*
Y108843D02*
D03*
Y114342D02*
D03*
Y119843D02*
D03*
Y124843D02*
D03*
Y64000D02*
D03*
Y59000D02*
D03*
Y53500D02*
D03*
Y48000D02*
D03*
X122441Y206343D02*
D03*
Y146500D02*
D03*
Y85843D02*
D03*
Y25000D02*
D03*
X34378Y125500D02*
D03*
X31941Y134000D02*
D03*
M02*
