G04*
G04 #@! TF.GenerationSoftware,Altium Limited,Altium Designer,20.2.6 (244)*
G04*
G04 Layer_Color=65535*
%FSLAX25Y25*%
%MOIN*%
G70*
G04*
G04 #@! TF.SameCoordinates,9E550E5B-D3D8-464A-AF3F-8E1B55BAFF32*
G04*
G04*
G04 #@! TF.FilePolarity,Positive*
G04*
G01*
G75*
%ADD10C,0.00787*%
%ADD11C,0.00984*%
%ADD12C,0.00500*%
%ADD13C,0.01000*%
%ADD14C,0.00600*%
%ADD15R,0.02165X0.06102*%
D10*
X83916Y249988D02*
G03*
X83916Y249988I-880J0D01*
G01*
X127449Y36331D02*
X130598D01*
Y34461D02*
Y36331D01*
X127449Y27669D02*
X130598D01*
Y29539D01*
X181783Y67146D02*
X204421D01*
X181783Y28169D02*
Y67146D01*
Y28169D02*
X204421D01*
Y67146D01*
X153094Y15449D02*
X159787D01*
X153094Y21551D02*
X159787D01*
Y15449D02*
Y21551D01*
X103055Y68886D02*
X124906D01*
X103055Y60224D02*
Y68886D01*
Y42114D02*
Y50776D01*
Y42114D02*
X124906D01*
X129827Y60224D02*
Y63965D01*
X124906Y68886D02*
X129827Y63965D01*
X124906Y42114D02*
X129827Y47035D01*
Y50776D01*
X127449Y97173D02*
X130598D01*
Y95303D02*
Y97173D01*
X127449Y88512D02*
X130598D01*
Y90382D01*
X181653Y127988D02*
X204292D01*
X181653Y89012D02*
Y127988D01*
Y89012D02*
X204292D01*
Y127988D01*
X153094Y76291D02*
X159787D01*
X153094Y82394D02*
X159787D01*
Y76291D02*
Y82394D01*
X103055Y129728D02*
X124906D01*
X103055Y121067D02*
Y129728D01*
Y102957D02*
Y111618D01*
Y102957D02*
X124906D01*
X129827Y121067D02*
Y124807D01*
X124906Y129728D02*
X129827Y124807D01*
X124906Y102957D02*
X129827Y107878D01*
Y111618D01*
X127449Y217673D02*
X130598D01*
Y215803D02*
Y217673D01*
X127449Y209012D02*
X130598D01*
Y210882D01*
X181653Y248331D02*
X204292D01*
X181653Y209354D02*
Y248331D01*
Y209354D02*
X204292D01*
Y248331D01*
X153094Y196791D02*
X159787D01*
X153094Y202894D02*
X159787D01*
Y196791D02*
Y202894D01*
X103055Y249728D02*
X124906D01*
X103055Y241067D02*
Y249728D01*
Y222957D02*
Y231618D01*
Y222957D02*
X124906D01*
X129827Y241067D02*
Y244807D01*
X124906Y249728D02*
X129827Y244807D01*
X124906Y222957D02*
X129827Y227878D01*
Y231618D01*
X68110Y6397D02*
X97244D01*
X68110D02*
Y29036D01*
X97244D01*
Y6397D02*
Y29036D01*
X103055Y189886D02*
X124906D01*
X103055Y181224D02*
Y189886D01*
Y163114D02*
Y171776D01*
Y163114D02*
X124906D01*
X129827Y181224D02*
Y184965D01*
X124906Y189886D02*
X129827Y184965D01*
X124906Y163114D02*
X129827Y168035D01*
Y171776D01*
X153094Y136949D02*
X159787D01*
X153094Y143051D02*
X159787D01*
Y136949D02*
Y143051D01*
X181653Y188488D02*
X204292D01*
X181653Y149512D02*
Y188488D01*
Y149512D02*
X204292D01*
Y188488D01*
X127449Y157831D02*
X130598D01*
Y155961D02*
Y157831D01*
X127449Y149169D02*
X130598D01*
Y151039D01*
D11*
X124693Y37610D02*
G03*
X124693Y37610I-492J0D01*
G01*
Y98453D02*
G03*
X124693Y98453I-492J0D01*
G01*
Y218953D02*
G03*
X124693Y218953I-492J0D01*
G01*
Y159110D02*
G03*
X124693Y159110I-492J0D01*
G01*
D12*
X87957Y40933D02*
Y245657D01*
X8035Y40933D02*
X87957D01*
X8035D02*
Y245657D01*
X87957D01*
X119041Y14700D02*
Y20300D01*
X108841Y14700D02*
X119041D01*
X108841Y20300D02*
X119041D01*
X108841Y14700D02*
Y20300D01*
X119041Y25700D02*
Y31300D01*
X108841Y25700D02*
X119041D01*
X108841Y31300D02*
X119041D01*
X108841Y25700D02*
Y31300D01*
X119041Y32700D02*
Y38300D01*
X108841Y32700D02*
X119041D01*
X108841Y38300D02*
X119041D01*
X108841Y32700D02*
Y38300D01*
X119041Y75542D02*
Y81142D01*
X108841Y75542D02*
X119041D01*
X108841Y81142D02*
X119041D01*
X108841Y75542D02*
Y81142D01*
X119041Y86542D02*
Y92142D01*
X108841Y86542D02*
X119041D01*
X108841Y92142D02*
X119041D01*
X108841Y86542D02*
Y92142D01*
X119041Y93542D02*
Y99142D01*
X108841Y93542D02*
X119041D01*
X108841Y99142D02*
X119041D01*
X108841Y93542D02*
Y99142D01*
X119041Y196043D02*
Y201642D01*
X108841Y196043D02*
X119041D01*
X108841Y201642D02*
X119041D01*
X108841Y196043D02*
Y201642D01*
X119041Y207043D02*
Y212643D01*
X108841Y207043D02*
X119041D01*
X108841Y212643D02*
X119041D01*
X108841Y207043D02*
Y212643D01*
X119041Y214042D02*
Y219642D01*
X108841Y214042D02*
X119041D01*
X108841Y219642D02*
X119041D01*
X108841Y214042D02*
Y219642D01*
X21141Y67400D02*
X26741D01*
X21141D02*
Y77600D01*
X26741Y67400D02*
Y77600D01*
X21141D02*
X26741D01*
X119041Y154200D02*
Y159800D01*
X108841Y154200D02*
X119041D01*
X108841Y159800D02*
X119041D01*
X108841Y154200D02*
Y159800D01*
X119041Y147200D02*
Y152800D01*
X108841Y147200D02*
X119041D01*
X108841Y152800D02*
X119041D01*
X108841Y147200D02*
Y152800D01*
X119041Y136200D02*
Y141800D01*
X108841Y136200D02*
X119041D01*
X108841Y141800D02*
X119041D01*
X108841Y136200D02*
Y141800D01*
D13*
X171941Y27000D02*
Y69000D01*
X140941Y27000D02*
X171941D01*
X140941D02*
Y69000D01*
X171941D01*
X166641Y16100D02*
Y20400D01*
X171941Y87500D02*
Y129500D01*
X140941Y87500D02*
X171941D01*
X140941D02*
Y129500D01*
X171941D01*
X166641Y76942D02*
Y81243D01*
X171941Y207842D02*
Y249843D01*
X140941Y207842D02*
X171941D01*
X140941D02*
Y249843D01*
X171941D01*
X166641Y197442D02*
Y201743D01*
X171941Y148000D02*
Y190000D01*
X140941Y148000D02*
X171941D01*
X140941D02*
Y190000D01*
X171941D01*
X166641Y137600D02*
Y141900D01*
D14*
X14266Y252099D02*
X11600D01*
Y248100D01*
X14266D01*
X11600Y250099D02*
X12933D01*
X18264Y251432D02*
X17598Y252099D01*
X16265D01*
X15599Y251432D01*
Y250766D01*
X16265Y250099D01*
X17598D01*
X18264Y249433D01*
Y248766D01*
X17598Y248100D01*
X16265D01*
X15599Y248766D01*
X19597Y248100D02*
Y252099D01*
X21597D01*
X22263Y251432D01*
Y250099D01*
X21597Y249433D01*
X19597D01*
X23596Y251432D02*
X24263Y252099D01*
X25596D01*
X26262Y251432D01*
Y250766D01*
X25596Y250099D01*
X24929D01*
X25596D01*
X26262Y249433D01*
Y248766D01*
X25596Y248100D01*
X24263D01*
X23596Y248766D01*
X30261Y248100D02*
X27595D01*
X30261Y250766D01*
Y251432D01*
X29594Y252099D01*
X28261D01*
X27595Y251432D01*
X35592Y248100D02*
Y252099D01*
X37592D01*
X38258Y251432D01*
Y250099D01*
X37592Y249433D01*
X35592D01*
X39591Y252099D02*
X40924D01*
X40257D01*
Y248100D01*
X39591D01*
X40924D01*
X45589Y251432D02*
X44923Y252099D01*
X43590D01*
X42923Y251432D01*
Y248766D01*
X43590Y248100D01*
X44923D01*
X45589Y248766D01*
X48921Y252099D02*
X47588D01*
X46922Y251432D01*
Y248766D01*
X47588Y248100D01*
X48921D01*
X49588Y248766D01*
Y251432D01*
X48921Y252099D01*
X54919D02*
Y248100D01*
Y249433D01*
X57585Y252099D01*
X55586Y250099D01*
X57585Y248100D01*
X58918Y252099D02*
X60251D01*
X59584D01*
Y248100D01*
X58918D01*
X60251D01*
X62250Y252099D02*
X64916D01*
X63583D01*
Y248100D01*
X70248Y252099D02*
Y249433D01*
X71581Y248100D01*
X72913Y249433D01*
Y252099D01*
X76246Y248100D02*
Y252099D01*
X74247Y250099D01*
X76912D01*
X99600Y8433D02*
X102266D01*
X100933Y9766D02*
Y7100D01*
X76266Y35099D02*
X73600D01*
Y33099D01*
X74933Y33766D01*
X75599D01*
X76266Y33099D01*
Y31766D01*
X75599Y31100D01*
X74266D01*
X73600Y31766D01*
X77599Y35099D02*
Y32433D01*
X78932Y31100D01*
X80265Y32433D01*
Y35099D01*
X85596D02*
X86929D01*
X86263D01*
Y31100D01*
X85596D01*
X86929D01*
X88928D02*
Y35099D01*
X91594Y31100D01*
Y35099D01*
X182730Y73414D02*
Y69415D01*
X185396D01*
X189394Y73414D02*
X186729D01*
Y69415D01*
X189394D01*
X186729Y71414D02*
X188061D01*
X190727Y73414D02*
Y69415D01*
X192727D01*
X193393Y70081D01*
Y72747D01*
X192727Y73414D01*
X190727D01*
X194726Y69415D02*
X196059D01*
X195393D01*
Y73414D01*
X194726Y72747D01*
X182600Y134256D02*
Y130257D01*
X185266D01*
X189265Y134256D02*
X186599D01*
Y130257D01*
X189265D01*
X186599Y132257D02*
X187932D01*
X190597Y134256D02*
Y130257D01*
X192597D01*
X193263Y130924D01*
Y133590D01*
X192597Y134256D01*
X190597D01*
X197262Y130257D02*
X194596D01*
X197262Y132923D01*
Y133590D01*
X196596Y134256D01*
X195263D01*
X194596Y133590D01*
X182600Y194756D02*
Y190758D01*
X185266D01*
X189265Y194756D02*
X186599D01*
Y190758D01*
X189265D01*
X186599Y192757D02*
X187932D01*
X190597Y194756D02*
Y190758D01*
X192597D01*
X193263Y191424D01*
Y194090D01*
X192597Y194756D01*
X190597D01*
X194596Y194090D02*
X195263Y194756D01*
X196596D01*
X197262Y194090D01*
Y193423D01*
X196596Y192757D01*
X195929D01*
X196596D01*
X197262Y192090D01*
Y191424D01*
X196596Y190758D01*
X195263D01*
X194596Y191424D01*
X182600Y254599D02*
Y250600D01*
X185266D01*
X189265Y254599D02*
X186599D01*
Y250600D01*
X189265D01*
X186599Y252599D02*
X187932D01*
X190597Y254599D02*
Y250600D01*
X192597D01*
X193263Y251266D01*
Y253932D01*
X192597Y254599D01*
X190597D01*
X196596Y250600D02*
Y254599D01*
X194596Y252599D01*
X197262D01*
D15*
X158705Y18500D02*
D03*
Y79343D02*
D03*
Y199843D02*
D03*
Y140000D02*
D03*
M02*
