G04*
G04 #@! TF.GenerationSoftware,Altium Limited,Altium Designer,20.2.6 (244)*
G04*
G04 Layer_Color=16711935*
%FSLAX25Y25*%
%MOIN*%
G70*
G04*
G04 #@! TF.SameCoordinates,9E550E5B-D3D8-464A-AF3F-8E1B55BAFF32*
G04*
G04*
G04 #@! TF.FilePolarity,Negative*
G04*
G01*
G75*
%ADD26C,0.06800*%
%ADD27C,0.07887*%
%ADD28R,0.07887X0.07887*%
%ADD29C,0.07102*%
%ADD30O,0.10642X0.07690*%
%ADD31O,0.07690X0.10642*%
%ADD32C,0.03800*%
D26*
X13779Y261812D02*
D03*
X13779Y13779D02*
D03*
X194882Y261811D02*
D03*
X194882Y13780D02*
D03*
D27*
X82996Y148295D02*
D03*
Y138295D02*
D03*
Y158295D02*
D03*
Y168295D02*
D03*
Y178295D02*
D03*
Y188295D02*
D03*
Y198295D02*
D03*
Y208295D02*
D03*
Y218295D02*
D03*
Y228295D02*
D03*
Y128295D02*
D03*
Y118295D02*
D03*
Y108295D02*
D03*
Y98295D02*
D03*
Y88295D02*
D03*
Y78295D02*
D03*
Y68295D02*
D03*
Y58295D02*
D03*
Y48295D02*
D03*
X12996Y148295D02*
D03*
Y138295D02*
D03*
Y158295D02*
D03*
Y168295D02*
D03*
Y178295D02*
D03*
Y188295D02*
D03*
Y198295D02*
D03*
Y208295D02*
D03*
Y218295D02*
D03*
Y228295D02*
D03*
Y128295D02*
D03*
Y118295D02*
D03*
Y108295D02*
D03*
Y98295D02*
D03*
Y88295D02*
D03*
Y78295D02*
D03*
Y68295D02*
D03*
Y58295D02*
D03*
Y48295D02*
D03*
D28*
X82996Y238295D02*
D03*
X12996D02*
D03*
D29*
X166441Y33000D02*
D03*
Y45598D02*
D03*
X146441D02*
D03*
Y33000D02*
D03*
X166441Y54260D02*
D03*
Y62921D02*
D03*
X146441D02*
D03*
Y54260D02*
D03*
X166441Y93500D02*
D03*
Y106098D02*
D03*
X146441D02*
D03*
Y93500D02*
D03*
X166441Y114760D02*
D03*
Y123421D02*
D03*
X146441D02*
D03*
Y114760D02*
D03*
X166441Y213843D02*
D03*
Y226441D02*
D03*
X146441D02*
D03*
Y213843D02*
D03*
X166441Y235102D02*
D03*
Y243764D02*
D03*
X146441D02*
D03*
Y235102D02*
D03*
X166441Y154000D02*
D03*
Y166598D02*
D03*
X146441D02*
D03*
Y154000D02*
D03*
X166441Y175260D02*
D03*
Y183921D02*
D03*
X146441D02*
D03*
Y175260D02*
D03*
D30*
X195071Y47657D02*
D03*
Y57500D02*
D03*
Y37815D02*
D03*
X194941Y108500D02*
D03*
Y118342D02*
D03*
Y98658D02*
D03*
Y228842D02*
D03*
Y238685D02*
D03*
Y219000D02*
D03*
Y169000D02*
D03*
Y178842D02*
D03*
Y159158D02*
D03*
D31*
X87598Y15748D02*
D03*
X77756D02*
D03*
D32*
X179941Y17500D02*
D03*
Y78500D02*
D03*
X179441Y139000D02*
D03*
X179941Y199000D02*
D03*
X139726Y198843D02*
D03*
X139941Y139000D02*
D03*
X139787Y78342D02*
D03*
X139459Y17500D02*
D03*
X94441Y228842D02*
D03*
Y234343D02*
D03*
Y239843D02*
D03*
Y244843D02*
D03*
Y169000D02*
D03*
Y174500D02*
D03*
Y180000D02*
D03*
Y185000D02*
D03*
Y108843D02*
D03*
Y114342D02*
D03*
Y119843D02*
D03*
Y124843D02*
D03*
Y64000D02*
D03*
Y59000D02*
D03*
Y53500D02*
D03*
Y48000D02*
D03*
X122441Y206343D02*
D03*
Y146500D02*
D03*
Y85843D02*
D03*
Y25000D02*
D03*
X34378Y125500D02*
D03*
X31941Y134000D02*
D03*
M02*
