G04*
G04 #@! TF.GenerationSoftware,Altium Limited,Altium Designer,20.2.6 (244)*
G04*
G04 Layer_Physical_Order=2*
G04 Layer_Color=16711680*
%FSLAX25Y25*%
%MOIN*%
G70*
G04*
G04 #@! TF.SameCoordinates,9E550E5B-D3D8-464A-AF3F-8E1B55BAFF32*
G04*
G04*
G04 #@! TF.FilePolarity,Positive*
G04*
G01*
G75*
%ADD13C,0.01000*%
%ADD33C,0.00900*%
%ADD34C,0.06000*%
%ADD35C,0.07087*%
%ADD36R,0.07087X0.07087*%
%ADD37C,0.06299*%
%ADD38O,0.09843X0.06890*%
%ADD39O,0.06890X0.09843*%
%ADD40C,0.03000*%
G36*
X207234Y1427D02*
X1427D01*
Y274163D01*
X207234D01*
Y1427D01*
D02*
G37*
%LPC*%
G36*
X13779Y268651D02*
X12445Y268519D01*
X11162Y268130D01*
X9980Y267498D01*
X8944Y266648D01*
X8093Y265611D01*
X7461Y264429D01*
X7072Y263146D01*
X6941Y261812D01*
X7072Y260478D01*
X7461Y259195D01*
X8093Y258013D01*
X8944Y256977D01*
X9980Y256126D01*
X11162Y255494D01*
X12445Y255105D01*
X13779Y254974D01*
X15113Y255105D01*
X16396Y255494D01*
X17578Y256126D01*
X18615Y256977D01*
X19465Y258013D01*
X20097Y259195D01*
X20486Y260478D01*
X20618Y261812D01*
X20486Y263146D01*
X20097Y264429D01*
X19465Y265611D01*
X18615Y266648D01*
X17578Y267498D01*
X16396Y268130D01*
X15113Y268519D01*
X13779Y268651D01*
D02*
G37*
G36*
X194882Y268650D02*
X193548Y268518D01*
X192265Y268129D01*
X191083Y267497D01*
X190046Y266647D01*
X189196Y265610D01*
X188564Y264428D01*
X188175Y263145D01*
X188043Y261811D01*
X188175Y260477D01*
X188564Y259194D01*
X189196Y258012D01*
X190046Y256976D01*
X191083Y256125D01*
X192265Y255493D01*
X193548Y255104D01*
X194882Y254973D01*
X196216Y255104D01*
X197499Y255493D01*
X198681Y256125D01*
X199717Y256976D01*
X200568Y258012D01*
X201200Y259194D01*
X201589Y260477D01*
X201720Y261811D01*
X201589Y263145D01*
X201200Y264428D01*
X200568Y265610D01*
X199717Y266647D01*
X198681Y267497D01*
X197499Y268129D01*
X196216Y268518D01*
X194882Y268650D01*
D02*
G37*
G36*
X95191Y246732D02*
Y245592D01*
X96331D01*
X96325Y245623D01*
X95883Y246284D01*
X95221Y246726D01*
X95191Y246732D01*
D02*
G37*
G36*
X93691D02*
X93661Y246726D01*
X92999Y246284D01*
X92557Y245623D01*
X92551Y245592D01*
X93691D01*
Y246732D01*
D02*
G37*
G36*
X96331Y244092D02*
X95191D01*
Y242952D01*
X95221Y242959D01*
X95883Y243401D01*
X96325Y244062D01*
X96331Y244092D01*
D02*
G37*
G36*
X93691D02*
X92551D01*
X92557Y244062D01*
X92999Y243401D01*
X93661Y242959D01*
X93691Y242952D01*
Y244092D01*
D02*
G37*
G36*
X166441Y247848D02*
X165384Y247709D01*
X164399Y247301D01*
X163553Y246652D01*
X162904Y245806D01*
X162496Y244821D01*
X162356Y243764D01*
X162496Y242707D01*
X162888Y241760D01*
X162760Y241397D01*
X162692Y241260D01*
X150189D01*
X150122Y241397D01*
X149994Y241760D01*
X150386Y242707D01*
X150525Y243764D01*
X150386Y244821D01*
X149978Y245806D01*
X149329Y246652D01*
X148483Y247301D01*
X147498Y247709D01*
X146441Y247848D01*
X145384Y247709D01*
X144399Y247301D01*
X143553Y246652D01*
X142904Y245806D01*
X142496Y244821D01*
X142356Y243764D01*
X142496Y242707D01*
X142888Y241760D01*
X142760Y241397D01*
X142692Y241260D01*
X141441D01*
X141090Y241190D01*
X140792Y240991D01*
X138792Y238991D01*
X138593Y238694D01*
X138523Y238342D01*
X138523Y231842D01*
X138593Y231491D01*
X138792Y231194D01*
X140792Y229194D01*
X141090Y228995D01*
X141441Y228925D01*
X142686D01*
X142712Y228872D01*
X142879Y228425D01*
X142496Y227498D01*
X142356Y226441D01*
X142496Y225384D01*
X142904Y224399D01*
X143553Y223553D01*
X144399Y222904D01*
X145384Y222496D01*
X146441Y222356D01*
X147498Y222496D01*
X148483Y222904D01*
X149329Y223553D01*
X149978Y224399D01*
X150386Y225384D01*
X150525Y226441D01*
X150386Y227498D01*
X150002Y228425D01*
X150170Y228872D01*
X150196Y228925D01*
X162686D01*
X162712Y228872D01*
X162880Y228425D01*
X162496Y227498D01*
X162356Y226441D01*
X162496Y225384D01*
X162904Y224399D01*
X163553Y223553D01*
X164399Y222904D01*
X165384Y222496D01*
X166441Y222356D01*
X167498Y222496D01*
X168483Y222904D01*
X169329Y223553D01*
X169978Y224399D01*
X170386Y225384D01*
X170526Y226441D01*
X170386Y227498D01*
X170002Y228425D01*
X170170Y228872D01*
X170196Y228925D01*
X187941D01*
X188292Y228995D01*
X188590Y229194D01*
X188660Y229264D01*
X189109Y229043D01*
X189082Y228842D01*
X189232Y227708D01*
X189669Y226651D01*
X190366Y225744D01*
X191273Y225047D01*
X192330Y224609D01*
X193465Y224460D01*
X196417D01*
X197552Y224609D01*
X198609Y225047D01*
X199516Y225744D01*
X200213Y226651D01*
X200650Y227708D01*
X200800Y228842D01*
X200650Y229977D01*
X200258Y230925D01*
X200475Y231425D01*
X202441D01*
X202792Y231495D01*
X203090Y231694D01*
X205590Y234194D01*
X205789Y234491D01*
X205859Y234842D01*
X205859Y242342D01*
X205789Y242694D01*
X205590Y242991D01*
X202590Y245991D01*
X202292Y246190D01*
X201941Y246260D01*
X177441D01*
X177090Y246190D01*
X176792Y245991D01*
X172061Y241260D01*
X170189D01*
X170122Y241397D01*
X169994Y241760D01*
X170386Y242707D01*
X170526Y243764D01*
X170386Y244821D01*
X169978Y245806D01*
X169329Y246652D01*
X168483Y247301D01*
X167498Y247709D01*
X166441Y247848D01*
D02*
G37*
G36*
X95191Y241733D02*
Y240593D01*
X96331D01*
X96325Y240623D01*
X95883Y241284D01*
X95221Y241726D01*
X95191Y241733D01*
D02*
G37*
G36*
X93691D02*
X93661Y241726D01*
X92999Y241284D01*
X92557Y240623D01*
X92551Y240593D01*
X93691D01*
Y241733D01*
D02*
G37*
G36*
X96331Y239092D02*
X95191D01*
Y237952D01*
X95221Y237959D01*
X95883Y238401D01*
X96325Y239062D01*
X96331Y239092D01*
D02*
G37*
G36*
X93691D02*
X92551D01*
X92557Y239062D01*
X92999Y238401D01*
X93661Y237959D01*
X93691Y237952D01*
Y239092D01*
D02*
G37*
G36*
X95191Y236232D02*
Y235092D01*
X96331D01*
X96325Y235123D01*
X95883Y235784D01*
X95221Y236227D01*
X95191Y236232D01*
D02*
G37*
G36*
X93691D02*
X93661Y236227D01*
X92999Y235784D01*
X92557Y235123D01*
X92551Y235092D01*
X93691D01*
Y236232D01*
D02*
G37*
G36*
X87439Y242739D02*
X78553D01*
Y233852D01*
X87439D01*
Y242739D01*
D02*
G37*
G36*
X17439D02*
X8553D01*
Y233852D01*
X17439D01*
Y242739D01*
D02*
G37*
G36*
X96331Y233593D02*
X95191D01*
Y232453D01*
X95221Y232459D01*
X95883Y232901D01*
X96325Y233562D01*
X96331Y233593D01*
D02*
G37*
G36*
X93691D02*
X92551D01*
X92557Y233562D01*
X92999Y232901D01*
X93661Y232459D01*
X93691Y232453D01*
Y233593D01*
D02*
G37*
G36*
X95191Y230732D02*
Y229592D01*
X96331D01*
X96325Y229623D01*
X95883Y230284D01*
X95221Y230727D01*
X95191Y230732D01*
D02*
G37*
G36*
X93691D02*
X93661Y230727D01*
X92999Y230284D01*
X92557Y229623D01*
X92551Y229592D01*
X93691D01*
Y230732D01*
D02*
G37*
G36*
X96331Y228093D02*
X95191D01*
Y226953D01*
X95221Y226959D01*
X95883Y227401D01*
X96325Y228062D01*
X96331Y228093D01*
D02*
G37*
G36*
X93691D02*
X92551D01*
X92557Y228062D01*
X92999Y227401D01*
X93661Y226959D01*
X93691Y226953D01*
Y228093D01*
D02*
G37*
G36*
X82996Y232777D02*
X81836Y232624D01*
X80755Y232176D01*
X79827Y231464D01*
X79115Y230536D01*
X78667Y229455D01*
X78514Y228295D01*
X78667Y227135D01*
X79115Y226055D01*
X79827Y225126D01*
X80755Y224414D01*
X81836Y223966D01*
X82996Y223814D01*
X84156Y223966D01*
X85237Y224414D01*
X86165Y225126D01*
X86877Y226055D01*
X87325Y227135D01*
X87478Y228295D01*
X87325Y229455D01*
X86877Y230536D01*
X86165Y231464D01*
X85237Y232176D01*
X84156Y232624D01*
X82996Y232777D01*
D02*
G37*
G36*
X12996D02*
X11836Y232624D01*
X10755Y232176D01*
X9827Y231464D01*
X9115Y230536D01*
X8667Y229455D01*
X8514Y228295D01*
X8667Y227135D01*
X9115Y226055D01*
X9827Y225126D01*
X10755Y224414D01*
X11836Y223966D01*
X12996Y223814D01*
X14156Y223966D01*
X15237Y224414D01*
X16165Y225126D01*
X16877Y226055D01*
X17325Y227135D01*
X17478Y228295D01*
X17325Y229455D01*
X16877Y230536D01*
X16165Y231464D01*
X15237Y232176D01*
X14156Y232624D01*
X12996Y232777D01*
D02*
G37*
G36*
X196417Y222979D02*
X196191D01*
Y220250D01*
X200169D01*
X199863Y220989D01*
X199231Y221814D01*
X198407Y222446D01*
X197447Y222843D01*
X196417Y222979D01*
D02*
G37*
G36*
X193691D02*
X193465D01*
X192435Y222843D01*
X191475Y222446D01*
X190651Y221814D01*
X190019Y220989D01*
X189712Y220250D01*
X193691D01*
Y222979D01*
D02*
G37*
G36*
X200169Y217750D02*
X196191D01*
Y215021D01*
X196417D01*
X197447Y215157D01*
X198407Y215554D01*
X199231Y216186D01*
X199863Y217010D01*
X200169Y217750D01*
D02*
G37*
G36*
X193691D02*
X189712D01*
X190019Y217010D01*
X190651Y216186D01*
X191475Y215554D01*
X192435Y215157D01*
X193465Y215021D01*
X193691D01*
Y217750D01*
D02*
G37*
G36*
X82996Y222777D02*
X81836Y222624D01*
X80755Y222177D01*
X79827Y221464D01*
X79115Y220536D01*
X78667Y219455D01*
X78514Y218295D01*
X78667Y217135D01*
X79115Y216055D01*
X79827Y215126D01*
X80755Y214414D01*
X81836Y213966D01*
X82996Y213814D01*
X84156Y213966D01*
X85237Y214414D01*
X86165Y215126D01*
X86877Y216055D01*
X87325Y217135D01*
X87478Y218295D01*
X87325Y219455D01*
X86877Y220536D01*
X86165Y221464D01*
X85237Y222177D01*
X84156Y222624D01*
X82996Y222777D01*
D02*
G37*
G36*
X12996D02*
X11836Y222624D01*
X10755Y222177D01*
X9827Y221464D01*
X9115Y220536D01*
X8667Y219455D01*
X8514Y218295D01*
X8667Y217135D01*
X9115Y216055D01*
X9827Y215126D01*
X10755Y214414D01*
X11836Y213966D01*
X12996Y213814D01*
X14156Y213966D01*
X15237Y214414D01*
X16165Y215126D01*
X16877Y216055D01*
X17325Y217135D01*
X17478Y218295D01*
X17325Y219455D01*
X16877Y220536D01*
X16165Y221464D01*
X15237Y222177D01*
X14156Y222624D01*
X12996Y222777D01*
D02*
G37*
G36*
X166441Y217927D02*
X165384Y217788D01*
X164399Y217380D01*
X163553Y216731D01*
X162904Y215885D01*
X162496Y214900D01*
X162356Y213843D01*
X162496Y212785D01*
X162904Y211800D01*
X163553Y210954D01*
X164399Y210305D01*
X165384Y209897D01*
X166441Y209758D01*
X167498Y209897D01*
X168483Y210305D01*
X169329Y210954D01*
X169978Y211800D01*
X170386Y212785D01*
X170526Y213843D01*
X170386Y214900D01*
X169978Y215885D01*
X169329Y216731D01*
X168483Y217380D01*
X167498Y217788D01*
X166441Y217927D01*
D02*
G37*
G36*
X146441D02*
X145384Y217788D01*
X144399Y217380D01*
X143553Y216731D01*
X142904Y215885D01*
X142496Y214900D01*
X142356Y213843D01*
X142496Y212785D01*
X142904Y211800D01*
X143553Y210954D01*
X144399Y210305D01*
X145384Y209897D01*
X146441Y209758D01*
X147498Y209897D01*
X148483Y210305D01*
X149329Y210954D01*
X149978Y211800D01*
X150386Y212785D01*
X150525Y213843D01*
X150386Y214900D01*
X149978Y215885D01*
X149329Y216731D01*
X148483Y217380D01*
X147498Y217788D01*
X146441Y217927D01*
D02*
G37*
G36*
X123191Y208232D02*
Y207092D01*
X124331D01*
X124325Y207123D01*
X123883Y207784D01*
X123221Y208226D01*
X123191Y208232D01*
D02*
G37*
G36*
X121691D02*
X121661Y208226D01*
X120999Y207784D01*
X120557Y207123D01*
X120551Y207092D01*
X121691D01*
Y208232D01*
D02*
G37*
G36*
X124331Y205592D02*
X123191D01*
Y204452D01*
X123221Y204459D01*
X123883Y204901D01*
X124325Y205562D01*
X124331Y205592D01*
D02*
G37*
G36*
X121691D02*
X120551D01*
X120557Y205562D01*
X120999Y204901D01*
X121661Y204459D01*
X121691Y204452D01*
Y205592D01*
D02*
G37*
G36*
X82996Y212777D02*
X81836Y212624D01*
X80755Y212176D01*
X79827Y211464D01*
X79115Y210536D01*
X78667Y209455D01*
X78514Y208295D01*
X78667Y207135D01*
X79115Y206054D01*
X79827Y205126D01*
X80755Y204414D01*
X81836Y203966D01*
X82996Y203814D01*
X84156Y203966D01*
X85237Y204414D01*
X86165Y205126D01*
X86877Y206054D01*
X87325Y207135D01*
X87478Y208295D01*
X87325Y209455D01*
X86877Y210536D01*
X86165Y211464D01*
X85237Y212176D01*
X84156Y212624D01*
X82996Y212777D01*
D02*
G37*
G36*
X12996D02*
X11836Y212624D01*
X10755Y212176D01*
X9827Y211464D01*
X9115Y210536D01*
X8667Y209455D01*
X8514Y208295D01*
X8667Y207135D01*
X9115Y206054D01*
X9827Y205126D01*
X10755Y204414D01*
X11836Y203966D01*
X12996Y203814D01*
X14156Y203966D01*
X15237Y204414D01*
X16165Y205126D01*
X16877Y206054D01*
X17325Y207135D01*
X17478Y208295D01*
X17325Y209455D01*
X16877Y210536D01*
X16165Y211464D01*
X15237Y212176D01*
X14156Y212624D01*
X12996Y212777D01*
D02*
G37*
G36*
X179941Y201447D02*
X179005Y201261D01*
X178211Y200730D01*
X177903Y200270D01*
X141659D01*
X141456Y200573D01*
X140662Y201103D01*
X139726Y201290D01*
X138790Y201103D01*
X137996Y200573D01*
X137465Y199779D01*
X137279Y198843D01*
X137465Y197906D01*
X137996Y197112D01*
X138790Y196582D01*
X139726Y196396D01*
X140662Y196582D01*
X141456Y197112D01*
X141659Y197415D01*
X178113D01*
X178211Y197270D01*
X179005Y196739D01*
X179941Y196553D01*
X180877Y196739D01*
X181671Y197270D01*
X182202Y198064D01*
X182388Y199000D01*
X182202Y199936D01*
X181671Y200730D01*
X180877Y201261D01*
X179941Y201447D01*
D02*
G37*
G36*
X82996Y202777D02*
X81836Y202624D01*
X80755Y202176D01*
X79827Y201464D01*
X79115Y200536D01*
X78667Y199455D01*
X78514Y198295D01*
X78667Y197135D01*
X79115Y196054D01*
X79827Y195126D01*
X80755Y194414D01*
X81836Y193966D01*
X82996Y193814D01*
X84156Y193966D01*
X85237Y194414D01*
X86165Y195126D01*
X86877Y196054D01*
X87325Y197135D01*
X87478Y198295D01*
X87325Y199455D01*
X86877Y200536D01*
X86165Y201464D01*
X85237Y202176D01*
X84156Y202624D01*
X82996Y202777D01*
D02*
G37*
G36*
X12996D02*
X11836Y202624D01*
X10755Y202176D01*
X9827Y201464D01*
X9115Y200536D01*
X8667Y199455D01*
X8514Y198295D01*
X8667Y197135D01*
X9115Y196054D01*
X9827Y195126D01*
X10755Y194414D01*
X11836Y193966D01*
X12996Y193814D01*
X14156Y193966D01*
X15237Y194414D01*
X16165Y195126D01*
X16877Y196054D01*
X17325Y197135D01*
X17478Y198295D01*
X17325Y199455D01*
X16877Y200536D01*
X16165Y201464D01*
X15237Y202176D01*
X14156Y202624D01*
X12996Y202777D01*
D02*
G37*
G36*
X95191Y186890D02*
Y185750D01*
X96331D01*
X96325Y185780D01*
X95883Y186442D01*
X95221Y186884D01*
X95191Y186890D01*
D02*
G37*
G36*
X93691D02*
X93661Y186884D01*
X92999Y186442D01*
X92557Y185780D01*
X92551Y185750D01*
X93691D01*
Y186890D01*
D02*
G37*
G36*
X82996Y192777D02*
X81836Y192624D01*
X80755Y192176D01*
X79827Y191464D01*
X79115Y190536D01*
X78667Y189455D01*
X78514Y188295D01*
X78667Y187135D01*
X79115Y186055D01*
X79827Y185126D01*
X80755Y184414D01*
X81836Y183966D01*
X82996Y183814D01*
X84156Y183966D01*
X85237Y184414D01*
X86165Y185126D01*
X86877Y186055D01*
X87325Y187135D01*
X87478Y188295D01*
X87325Y189455D01*
X86877Y190536D01*
X86165Y191464D01*
X85237Y192176D01*
X84156Y192624D01*
X82996Y192777D01*
D02*
G37*
G36*
X12996D02*
X11836Y192624D01*
X10755Y192176D01*
X9827Y191464D01*
X9115Y190536D01*
X8667Y189455D01*
X8514Y188295D01*
X8667Y187135D01*
X9115Y186055D01*
X9827Y185126D01*
X10755Y184414D01*
X11836Y183966D01*
X12996Y183814D01*
X14156Y183966D01*
X15237Y184414D01*
X16165Y185126D01*
X16877Y186055D01*
X17325Y187135D01*
X17478Y188295D01*
X17325Y189455D01*
X16877Y190536D01*
X16165Y191464D01*
X15237Y192176D01*
X14156Y192624D01*
X12996Y192777D01*
D02*
G37*
G36*
X96331Y184250D02*
X95191D01*
Y183110D01*
X95221Y183116D01*
X95883Y183558D01*
X96325Y184220D01*
X96331Y184250D01*
D02*
G37*
G36*
X93691D02*
X92551D01*
X92557Y184220D01*
X92999Y183558D01*
X93661Y183116D01*
X93691Y183110D01*
Y184250D01*
D02*
G37*
G36*
X166441Y188006D02*
X165384Y187867D01*
X164399Y187459D01*
X163553Y186810D01*
X162904Y185963D01*
X162496Y184978D01*
X162356Y183921D01*
X162496Y182864D01*
X162888Y181918D01*
X162760Y181554D01*
X162692Y181418D01*
X150189D01*
X150122Y181554D01*
X149994Y181918D01*
X150386Y182864D01*
X150525Y183921D01*
X150386Y184978D01*
X149978Y185963D01*
X149329Y186810D01*
X148483Y187459D01*
X147498Y187867D01*
X146441Y188006D01*
X145384Y187867D01*
X144399Y187459D01*
X143553Y186810D01*
X142904Y185963D01*
X142496Y184978D01*
X142356Y183921D01*
X142496Y182864D01*
X142888Y181918D01*
X142760Y181554D01*
X142692Y181418D01*
X141441D01*
X141090Y181348D01*
X140792Y181149D01*
X138792Y179149D01*
X138593Y178851D01*
X138523Y178500D01*
X138523Y172000D01*
X138593Y171649D01*
X138792Y171351D01*
X140792Y169351D01*
X141090Y169152D01*
X141441Y169082D01*
X142686D01*
X142712Y169030D01*
X142879Y168582D01*
X142496Y167656D01*
X142356Y166598D01*
X142496Y165541D01*
X142904Y164556D01*
X143553Y163710D01*
X144399Y163061D01*
X145384Y162653D01*
X146441Y162514D01*
X147498Y162653D01*
X148483Y163061D01*
X149329Y163710D01*
X149978Y164556D01*
X150386Y165541D01*
X150525Y166598D01*
X150386Y167656D01*
X150002Y168582D01*
X150170Y169030D01*
X150196Y169082D01*
X162686D01*
X162712Y169030D01*
X162880Y168582D01*
X162496Y167656D01*
X162356Y166598D01*
X162496Y165541D01*
X162904Y164556D01*
X163553Y163710D01*
X164399Y163061D01*
X165384Y162653D01*
X166441Y162514D01*
X167498Y162653D01*
X168483Y163061D01*
X169329Y163710D01*
X169978Y164556D01*
X170386Y165541D01*
X170526Y166598D01*
X170386Y167656D01*
X170002Y168582D01*
X170170Y169030D01*
X170196Y169082D01*
X187941D01*
X188292Y169152D01*
X188590Y169351D01*
X188660Y169422D01*
X189109Y169200D01*
X189082Y169000D01*
X189232Y167866D01*
X189669Y166809D01*
X190366Y165901D01*
X191273Y165205D01*
X192330Y164767D01*
X193465Y164618D01*
X196417D01*
X197552Y164767D01*
X198609Y165205D01*
X199516Y165901D01*
X200213Y166809D01*
X200650Y167866D01*
X200800Y169000D01*
X200650Y170134D01*
X200258Y171082D01*
X200475Y171582D01*
X202441D01*
X202792Y171652D01*
X203090Y171851D01*
X205590Y174351D01*
X205789Y174649D01*
X205859Y175000D01*
X205859Y182500D01*
X205789Y182851D01*
X205590Y183149D01*
X202590Y186149D01*
X202292Y186348D01*
X201941Y186418D01*
X177441D01*
X177090Y186348D01*
X176792Y186149D01*
X172061Y181418D01*
X170189D01*
X170122Y181554D01*
X169994Y181918D01*
X170386Y182864D01*
X170526Y183921D01*
X170386Y184978D01*
X169978Y185963D01*
X169329Y186810D01*
X168483Y187459D01*
X167498Y187867D01*
X166441Y188006D01*
D02*
G37*
G36*
X95191Y181890D02*
Y180750D01*
X96331D01*
X96325Y180780D01*
X95883Y181442D01*
X95221Y181884D01*
X95191Y181890D01*
D02*
G37*
G36*
X93691D02*
X93661Y181884D01*
X92999Y181442D01*
X92557Y180780D01*
X92551Y180750D01*
X93691D01*
Y181890D01*
D02*
G37*
G36*
X96331Y179250D02*
X95191D01*
Y178110D01*
X95221Y178116D01*
X95883Y178558D01*
X96325Y179220D01*
X96331Y179250D01*
D02*
G37*
G36*
X93691D02*
X92551D01*
X92557Y179220D01*
X92999Y178558D01*
X93661Y178116D01*
X93691Y178110D01*
Y179250D01*
D02*
G37*
G36*
X95191Y176390D02*
Y175250D01*
X96331D01*
X96325Y175280D01*
X95883Y175942D01*
X95221Y176384D01*
X95191Y176390D01*
D02*
G37*
G36*
X93691D02*
X93661Y176384D01*
X92999Y175942D01*
X92557Y175280D01*
X92551Y175250D01*
X93691D01*
Y176390D01*
D02*
G37*
G36*
X82996Y182777D02*
X81836Y182624D01*
X80755Y182176D01*
X79827Y181464D01*
X79115Y180536D01*
X78667Y179455D01*
X78514Y178295D01*
X78667Y177135D01*
X79115Y176055D01*
X79827Y175126D01*
X80755Y174414D01*
X81836Y173966D01*
X82996Y173814D01*
X84156Y173966D01*
X85237Y174414D01*
X86165Y175126D01*
X86877Y176055D01*
X87325Y177135D01*
X87478Y178295D01*
X87325Y179455D01*
X86877Y180536D01*
X86165Y181464D01*
X85237Y182176D01*
X84156Y182624D01*
X82996Y182777D01*
D02*
G37*
G36*
X12996D02*
X11836Y182624D01*
X10755Y182176D01*
X9827Y181464D01*
X9115Y180536D01*
X8667Y179455D01*
X8514Y178295D01*
X8667Y177135D01*
X9115Y176055D01*
X9827Y175126D01*
X10755Y174414D01*
X11836Y173966D01*
X12996Y173814D01*
X14156Y173966D01*
X15237Y174414D01*
X16165Y175126D01*
X16877Y176055D01*
X17325Y177135D01*
X17478Y178295D01*
X17325Y179455D01*
X16877Y180536D01*
X16165Y181464D01*
X15237Y182176D01*
X14156Y182624D01*
X12996Y182777D01*
D02*
G37*
G36*
X96331Y173750D02*
X95191D01*
Y172610D01*
X95221Y172616D01*
X95883Y173058D01*
X96325Y173720D01*
X96331Y173750D01*
D02*
G37*
G36*
X93691D02*
X92551D01*
X92557Y173720D01*
X92999Y173058D01*
X93661Y172616D01*
X93691Y172610D01*
Y173750D01*
D02*
G37*
G36*
X95191Y170890D02*
Y169750D01*
X96331D01*
X96325Y169780D01*
X95883Y170442D01*
X95221Y170884D01*
X95191Y170890D01*
D02*
G37*
G36*
X93691D02*
X93661Y170884D01*
X92999Y170442D01*
X92557Y169780D01*
X92551Y169750D01*
X93691D01*
Y170890D01*
D02*
G37*
G36*
X96331Y168250D02*
X95191D01*
Y167110D01*
X95221Y167116D01*
X95883Y167558D01*
X96325Y168220D01*
X96331Y168250D01*
D02*
G37*
G36*
X93691D02*
X92551D01*
X92557Y168220D01*
X92999Y167558D01*
X93661Y167116D01*
X93691Y167110D01*
Y168250D01*
D02*
G37*
G36*
X82996Y172777D02*
X81836Y172624D01*
X80755Y172177D01*
X79827Y171464D01*
X79115Y170536D01*
X78667Y169455D01*
X78514Y168295D01*
X78667Y167135D01*
X79115Y166054D01*
X79827Y165126D01*
X80755Y164414D01*
X81836Y163966D01*
X82996Y163814D01*
X84156Y163966D01*
X85237Y164414D01*
X86165Y165126D01*
X86877Y166054D01*
X87325Y167135D01*
X87478Y168295D01*
X87325Y169455D01*
X86877Y170536D01*
X86165Y171464D01*
X85237Y172177D01*
X84156Y172624D01*
X82996Y172777D01*
D02*
G37*
G36*
X12996D02*
X11836Y172624D01*
X10755Y172177D01*
X9827Y171464D01*
X9115Y170536D01*
X8667Y169455D01*
X8514Y168295D01*
X8667Y167135D01*
X9115Y166054D01*
X9827Y165126D01*
X10755Y164414D01*
X11836Y163966D01*
X12996Y163814D01*
X14156Y163966D01*
X15237Y164414D01*
X16165Y165126D01*
X16877Y166054D01*
X17325Y167135D01*
X17478Y168295D01*
X17325Y169455D01*
X16877Y170536D01*
X16165Y171464D01*
X15237Y172177D01*
X14156Y172624D01*
X12996Y172777D01*
D02*
G37*
G36*
X196417Y163136D02*
X196191D01*
Y160407D01*
X200169D01*
X199863Y161147D01*
X199231Y161971D01*
X198407Y162603D01*
X197447Y163001D01*
X196417Y163136D01*
D02*
G37*
G36*
X193691D02*
X193465D01*
X192435Y163001D01*
X191475Y162603D01*
X190651Y161971D01*
X190019Y161147D01*
X189712Y160407D01*
X193691D01*
Y163136D01*
D02*
G37*
G36*
X200169Y157907D02*
X196191D01*
Y155179D01*
X196417D01*
X197447Y155314D01*
X198407Y155712D01*
X199231Y156344D01*
X199863Y157168D01*
X200169Y157907D01*
D02*
G37*
G36*
X193691D02*
X189712D01*
X190019Y157168D01*
X190651Y156344D01*
X191475Y155712D01*
X192435Y155314D01*
X193465Y155179D01*
X193691D01*
Y157907D01*
D02*
G37*
G36*
X82996Y162777D02*
X81836Y162624D01*
X80755Y162177D01*
X79827Y161464D01*
X79115Y160536D01*
X78667Y159455D01*
X78514Y158295D01*
X78667Y157135D01*
X79115Y156054D01*
X79827Y155126D01*
X80755Y154414D01*
X81836Y153966D01*
X82996Y153814D01*
X84156Y153966D01*
X85237Y154414D01*
X86165Y155126D01*
X86877Y156054D01*
X87325Y157135D01*
X87478Y158295D01*
X87325Y159455D01*
X86877Y160536D01*
X86165Y161464D01*
X85237Y162177D01*
X84156Y162624D01*
X82996Y162777D01*
D02*
G37*
G36*
X12996D02*
X11836Y162624D01*
X10755Y162177D01*
X9827Y161464D01*
X9115Y160536D01*
X8667Y159455D01*
X8514Y158295D01*
X8667Y157135D01*
X9115Y156054D01*
X9827Y155126D01*
X10755Y154414D01*
X11836Y153966D01*
X12996Y153814D01*
X14156Y153966D01*
X15237Y154414D01*
X16165Y155126D01*
X16877Y156054D01*
X17325Y157135D01*
X17478Y158295D01*
X17325Y159455D01*
X16877Y160536D01*
X16165Y161464D01*
X15237Y162177D01*
X14156Y162624D01*
X12996Y162777D01*
D02*
G37*
G36*
X166441Y158084D02*
X165384Y157945D01*
X164399Y157537D01*
X163553Y156888D01*
X162904Y156042D01*
X162496Y155057D01*
X162356Y154000D01*
X162496Y152943D01*
X162904Y151958D01*
X163553Y151112D01*
X164399Y150463D01*
X165384Y150055D01*
X166441Y149916D01*
X167498Y150055D01*
X168483Y150463D01*
X169329Y151112D01*
X169978Y151958D01*
X170386Y152943D01*
X170526Y154000D01*
X170386Y155057D01*
X169978Y156042D01*
X169329Y156888D01*
X168483Y157537D01*
X167498Y157945D01*
X166441Y158084D01*
D02*
G37*
G36*
X146441D02*
X145384Y157945D01*
X144399Y157537D01*
X143553Y156888D01*
X142904Y156042D01*
X142496Y155057D01*
X142356Y154000D01*
X142496Y152943D01*
X142904Y151958D01*
X143553Y151112D01*
X144399Y150463D01*
X145384Y150055D01*
X146441Y149916D01*
X147498Y150055D01*
X148483Y150463D01*
X149329Y151112D01*
X149978Y151958D01*
X150386Y152943D01*
X150525Y154000D01*
X150386Y155057D01*
X149978Y156042D01*
X149329Y156888D01*
X148483Y157537D01*
X147498Y157945D01*
X146441Y158084D01*
D02*
G37*
G36*
X123191Y148390D02*
Y147250D01*
X124331D01*
X124325Y147280D01*
X123883Y147942D01*
X123221Y148384D01*
X123191Y148390D01*
D02*
G37*
G36*
X121691D02*
X121661Y148384D01*
X120999Y147942D01*
X120557Y147280D01*
X120551Y147250D01*
X121691D01*
Y148390D01*
D02*
G37*
G36*
X124331Y145750D02*
X123191D01*
Y144610D01*
X123221Y144616D01*
X123883Y145058D01*
X124325Y145720D01*
X124331Y145750D01*
D02*
G37*
G36*
X121691D02*
X120551D01*
X120557Y145720D01*
X120999Y145058D01*
X121661Y144616D01*
X121691Y144610D01*
Y145750D01*
D02*
G37*
G36*
X82996Y152777D02*
X81836Y152624D01*
X80755Y152176D01*
X79827Y151464D01*
X79115Y150536D01*
X78667Y149455D01*
X78514Y148295D01*
X78667Y147135D01*
X79115Y146054D01*
X79827Y145126D01*
X80755Y144414D01*
X81836Y143966D01*
X82996Y143814D01*
X84156Y143966D01*
X85237Y144414D01*
X86165Y145126D01*
X86877Y146054D01*
X87325Y147135D01*
X87478Y148295D01*
X87325Y149455D01*
X86877Y150536D01*
X86165Y151464D01*
X85237Y152176D01*
X84156Y152624D01*
X82996Y152777D01*
D02*
G37*
G36*
X12996D02*
X11836Y152624D01*
X10755Y152176D01*
X9827Y151464D01*
X9115Y150536D01*
X8667Y149455D01*
X8514Y148295D01*
X8667Y147135D01*
X9115Y146054D01*
X9827Y145126D01*
X10755Y144414D01*
X11836Y143966D01*
X12996Y143814D01*
X14156Y143966D01*
X15237Y144414D01*
X16165Y145126D01*
X16877Y146054D01*
X17325Y147135D01*
X17478Y148295D01*
X17325Y149455D01*
X16877Y150536D01*
X16165Y151464D01*
X15237Y152176D01*
X14156Y152624D01*
X12996Y152777D01*
D02*
G37*
G36*
X179441Y141447D02*
X178505Y141261D01*
X177711Y140730D01*
X177508Y140427D01*
X141874D01*
X141671Y140730D01*
X140877Y141261D01*
X139941Y141447D01*
X139005Y141261D01*
X138211Y140730D01*
X137680Y139936D01*
X137494Y139000D01*
X137680Y138064D01*
X138211Y137270D01*
X139005Y136739D01*
X139941Y136553D01*
X140877Y136739D01*
X141671Y137270D01*
X141874Y137573D01*
X177508D01*
X177711Y137270D01*
X178505Y136739D01*
X179441Y136553D01*
X180377Y136739D01*
X181171Y137270D01*
X181702Y138064D01*
X181888Y139000D01*
X181702Y139936D01*
X181171Y140730D01*
X180377Y141261D01*
X179441Y141447D01*
D02*
G37*
G36*
X82996Y142777D02*
X81836Y142624D01*
X80755Y142176D01*
X79827Y141464D01*
X79115Y140536D01*
X78667Y139455D01*
X78514Y138295D01*
X78667Y137135D01*
X79115Y136055D01*
X79827Y135126D01*
X80755Y134414D01*
X81836Y133966D01*
X82996Y133814D01*
X84156Y133966D01*
X85237Y134414D01*
X86165Y135126D01*
X86877Y136055D01*
X87325Y137135D01*
X87478Y138295D01*
X87325Y139455D01*
X86877Y140536D01*
X86165Y141464D01*
X85237Y142176D01*
X84156Y142624D01*
X82996Y142777D01*
D02*
G37*
G36*
X12996D02*
X11836Y142624D01*
X10755Y142176D01*
X9827Y141464D01*
X9115Y140536D01*
X8667Y139455D01*
X8514Y138295D01*
X8667Y137135D01*
X9115Y136055D01*
X9827Y135126D01*
X10755Y134414D01*
X11836Y133966D01*
X12996Y133814D01*
X14156Y133966D01*
X15237Y134414D01*
X16165Y135126D01*
X16877Y136055D01*
X17325Y137135D01*
X17478Y138295D01*
X17325Y139455D01*
X16877Y140536D01*
X16165Y141464D01*
X15237Y142176D01*
X14156Y142624D01*
X12996Y142777D01*
D02*
G37*
G36*
X95191Y126733D02*
Y125593D01*
X96331D01*
X96325Y125623D01*
X95883Y126284D01*
X95221Y126726D01*
X95191Y126733D01*
D02*
G37*
G36*
X93691D02*
X93661Y126726D01*
X92999Y126284D01*
X92557Y125623D01*
X92551Y125593D01*
X93691D01*
Y126733D01*
D02*
G37*
G36*
X82996Y132777D02*
X81836Y132624D01*
X80755Y132176D01*
X79827Y131464D01*
X79115Y130536D01*
X78667Y129455D01*
X78514Y128295D01*
X78667Y127135D01*
X79115Y126055D01*
X79827Y125126D01*
X80755Y124414D01*
X81836Y123966D01*
X82996Y123814D01*
X84156Y123966D01*
X85237Y124414D01*
X86165Y125126D01*
X86877Y126055D01*
X87325Y127135D01*
X87478Y128295D01*
X87325Y129455D01*
X86877Y130536D01*
X86165Y131464D01*
X85237Y132176D01*
X84156Y132624D01*
X82996Y132777D01*
D02*
G37*
G36*
X12996D02*
X11836Y132624D01*
X10755Y132176D01*
X9827Y131464D01*
X9115Y130536D01*
X8667Y129455D01*
X8514Y128295D01*
X8667Y127135D01*
X9115Y126055D01*
X9827Y125126D01*
X10755Y124414D01*
X11836Y123966D01*
X12996Y123814D01*
X14156Y123966D01*
X15237Y124414D01*
X16165Y125126D01*
X16877Y126055D01*
X17325Y127135D01*
X17478Y128295D01*
X17325Y129455D01*
X16877Y130536D01*
X16165Y131464D01*
X15237Y132176D01*
X14156Y132624D01*
X12996Y132777D01*
D02*
G37*
G36*
X31941Y136447D02*
X31005Y136261D01*
X30211Y135730D01*
X29680Y134936D01*
X29494Y134000D01*
X29680Y133064D01*
X30211Y132270D01*
X31005Y131739D01*
X31941Y131553D01*
X32358Y131636D01*
X33002Y130992D01*
Y127467D01*
X32648Y127230D01*
X32118Y126436D01*
X31931Y125500D01*
X32118Y124564D01*
X32648Y123770D01*
X33442Y123239D01*
X34378Y123053D01*
X35315Y123239D01*
X36109Y123770D01*
X36639Y124564D01*
X36825Y125500D01*
X36639Y126436D01*
X36109Y127230D01*
X35755Y127467D01*
Y131562D01*
X35755Y131562D01*
X35650Y132089D01*
X35352Y132536D01*
X35352Y132536D01*
X34305Y133583D01*
X34388Y134000D01*
X34202Y134936D01*
X33671Y135730D01*
X32877Y136261D01*
X31941Y136447D01*
D02*
G37*
G36*
X96331Y124092D02*
X95191D01*
Y122952D01*
X95221Y122959D01*
X95883Y123401D01*
X96325Y124062D01*
X96331Y124092D01*
D02*
G37*
G36*
X93691D02*
X92551D01*
X92557Y124062D01*
X92999Y123401D01*
X93661Y122959D01*
X93691Y122952D01*
Y124092D01*
D02*
G37*
G36*
X166441Y127506D02*
X165384Y127367D01*
X164399Y126959D01*
X163553Y126310D01*
X162904Y125463D01*
X162496Y124478D01*
X162356Y123421D01*
X162496Y122364D01*
X162888Y121418D01*
X162760Y121054D01*
X162692Y120918D01*
X150189D01*
X150122Y121054D01*
X149994Y121418D01*
X150386Y122364D01*
X150525Y123421D01*
X150386Y124478D01*
X149978Y125463D01*
X149329Y126310D01*
X148483Y126959D01*
X147498Y127367D01*
X146441Y127506D01*
X145384Y127367D01*
X144399Y126959D01*
X143553Y126310D01*
X142904Y125463D01*
X142496Y124478D01*
X142356Y123421D01*
X142496Y122364D01*
X142888Y121418D01*
X142760Y121054D01*
X142692Y120918D01*
X141441D01*
X141090Y120848D01*
X140792Y120649D01*
X138792Y118649D01*
X138593Y118351D01*
X138523Y118000D01*
X138523Y111500D01*
X138593Y111149D01*
X138792Y110851D01*
X140792Y108851D01*
X141090Y108652D01*
X141441Y108582D01*
X142686D01*
X142712Y108530D01*
X142879Y108082D01*
X142496Y107156D01*
X142356Y106098D01*
X142496Y105041D01*
X142904Y104056D01*
X143553Y103210D01*
X144399Y102561D01*
X145384Y102153D01*
X146441Y102014D01*
X147498Y102153D01*
X148483Y102561D01*
X149329Y103210D01*
X149978Y104056D01*
X150386Y105041D01*
X150525Y106098D01*
X150386Y107156D01*
X150002Y108082D01*
X150170Y108530D01*
X150196Y108582D01*
X162686D01*
X162712Y108530D01*
X162880Y108082D01*
X162496Y107156D01*
X162356Y106098D01*
X162496Y105041D01*
X162904Y104056D01*
X163553Y103210D01*
X164399Y102561D01*
X165384Y102153D01*
X166441Y102014D01*
X167498Y102153D01*
X168483Y102561D01*
X169329Y103210D01*
X169978Y104056D01*
X170386Y105041D01*
X170526Y106098D01*
X170386Y107156D01*
X170002Y108082D01*
X170170Y108530D01*
X170196Y108582D01*
X187941D01*
X188292Y108652D01*
X188590Y108851D01*
X188660Y108922D01*
X189109Y108700D01*
X189082Y108500D01*
X189232Y107366D01*
X189669Y106309D01*
X190366Y105401D01*
X191273Y104705D01*
X192330Y104267D01*
X193465Y104118D01*
X196417D01*
X197552Y104267D01*
X198609Y104705D01*
X199516Y105401D01*
X200213Y106309D01*
X200650Y107366D01*
X200800Y108500D01*
X200650Y109634D01*
X200258Y110582D01*
X200475Y111082D01*
X202441D01*
X202792Y111152D01*
X203090Y111351D01*
X205590Y113851D01*
X205789Y114149D01*
X205859Y114500D01*
X205859Y122000D01*
X205789Y122351D01*
X205590Y122649D01*
X202590Y125649D01*
X202292Y125848D01*
X201941Y125918D01*
X177441D01*
X177090Y125848D01*
X176792Y125649D01*
X172061Y120918D01*
X170189D01*
X170122Y121054D01*
X169994Y121418D01*
X170386Y122364D01*
X170526Y123421D01*
X170386Y124478D01*
X169978Y125463D01*
X169329Y126310D01*
X168483Y126959D01*
X167498Y127367D01*
X166441Y127506D01*
D02*
G37*
G36*
X95191Y121732D02*
Y120592D01*
X96331D01*
X96325Y120623D01*
X95883Y121284D01*
X95221Y121727D01*
X95191Y121732D01*
D02*
G37*
G36*
X93691D02*
X93661Y121727D01*
X92999Y121284D01*
X92557Y120623D01*
X92551Y120592D01*
X93691D01*
Y121732D01*
D02*
G37*
G36*
X96331Y119093D02*
X95191D01*
Y117953D01*
X95221Y117959D01*
X95883Y118401D01*
X96325Y119062D01*
X96331Y119093D01*
D02*
G37*
G36*
X93691D02*
X92551D01*
X92557Y119062D01*
X92999Y118401D01*
X93661Y117959D01*
X93691Y117953D01*
Y119093D01*
D02*
G37*
G36*
X95191Y116233D02*
Y115093D01*
X96331D01*
X96325Y115123D01*
X95883Y115784D01*
X95221Y116226D01*
X95191Y116233D01*
D02*
G37*
G36*
X93691D02*
X93661Y116226D01*
X92999Y115784D01*
X92557Y115123D01*
X92551Y115093D01*
X93691D01*
Y116233D01*
D02*
G37*
G36*
X82996Y122777D02*
X81836Y122624D01*
X80755Y122177D01*
X79827Y121464D01*
X79115Y120536D01*
X78667Y119455D01*
X78514Y118295D01*
X78667Y117135D01*
X79115Y116054D01*
X79827Y115126D01*
X80755Y114414D01*
X81836Y113966D01*
X82996Y113814D01*
X84156Y113966D01*
X85237Y114414D01*
X86165Y115126D01*
X86877Y116054D01*
X87325Y117135D01*
X87478Y118295D01*
X87325Y119455D01*
X86877Y120536D01*
X86165Y121464D01*
X85237Y122177D01*
X84156Y122624D01*
X82996Y122777D01*
D02*
G37*
G36*
X12996D02*
X11836Y122624D01*
X10755Y122177D01*
X9827Y121464D01*
X9115Y120536D01*
X8667Y119455D01*
X8514Y118295D01*
X8667Y117135D01*
X9115Y116054D01*
X9827Y115126D01*
X10755Y114414D01*
X11836Y113966D01*
X12996Y113814D01*
X14156Y113966D01*
X15237Y114414D01*
X16165Y115126D01*
X16877Y116054D01*
X17325Y117135D01*
X17478Y118295D01*
X17325Y119455D01*
X16877Y120536D01*
X16165Y121464D01*
X15237Y122177D01*
X14156Y122624D01*
X12996Y122777D01*
D02*
G37*
G36*
X96331Y113593D02*
X95191D01*
Y112452D01*
X95221Y112459D01*
X95883Y112901D01*
X96325Y113562D01*
X96331Y113593D01*
D02*
G37*
G36*
X93691D02*
X92551D01*
X92557Y113562D01*
X92999Y112901D01*
X93661Y112459D01*
X93691Y112452D01*
Y113593D01*
D02*
G37*
G36*
X95191Y110732D02*
Y109592D01*
X96331D01*
X96325Y109623D01*
X95883Y110284D01*
X95221Y110726D01*
X95191Y110732D01*
D02*
G37*
G36*
X93691D02*
X93661Y110726D01*
X92999Y110284D01*
X92557Y109623D01*
X92551Y109592D01*
X93691D01*
Y110732D01*
D02*
G37*
G36*
X96331Y108092D02*
X95191D01*
Y106953D01*
X95221Y106959D01*
X95883Y107401D01*
X96325Y108062D01*
X96331Y108092D01*
D02*
G37*
G36*
X93691D02*
X92551D01*
X92557Y108062D01*
X92999Y107401D01*
X93661Y106959D01*
X93691Y106953D01*
Y108092D01*
D02*
G37*
G36*
X82996Y112777D02*
X81836Y112624D01*
X80755Y112177D01*
X79827Y111464D01*
X79115Y110536D01*
X78667Y109455D01*
X78514Y108295D01*
X78667Y107135D01*
X79115Y106054D01*
X79827Y105126D01*
X80755Y104414D01*
X81836Y103966D01*
X82996Y103814D01*
X84156Y103966D01*
X85237Y104414D01*
X86165Y105126D01*
X86877Y106054D01*
X87325Y107135D01*
X87478Y108295D01*
X87325Y109455D01*
X86877Y110536D01*
X86165Y111464D01*
X85237Y112177D01*
X84156Y112624D01*
X82996Y112777D01*
D02*
G37*
G36*
X12996D02*
X11836Y112624D01*
X10755Y112177D01*
X9827Y111464D01*
X9115Y110536D01*
X8667Y109455D01*
X8514Y108295D01*
X8667Y107135D01*
X9115Y106054D01*
X9827Y105126D01*
X10755Y104414D01*
X11836Y103966D01*
X12996Y103814D01*
X14156Y103966D01*
X15237Y104414D01*
X16165Y105126D01*
X16877Y106054D01*
X17325Y107135D01*
X17478Y108295D01*
X17325Y109455D01*
X16877Y110536D01*
X16165Y111464D01*
X15237Y112177D01*
X14156Y112624D01*
X12996Y112777D01*
D02*
G37*
G36*
X196417Y102636D02*
X196191D01*
Y99907D01*
X200169D01*
X199863Y100647D01*
X199231Y101471D01*
X198407Y102103D01*
X197447Y102501D01*
X196417Y102636D01*
D02*
G37*
G36*
X193691D02*
X193465D01*
X192435Y102501D01*
X191475Y102103D01*
X190651Y101471D01*
X190019Y100647D01*
X189712Y99907D01*
X193691D01*
Y102636D01*
D02*
G37*
G36*
X200169Y97408D02*
X196191D01*
Y94679D01*
X196417D01*
X197447Y94814D01*
X198407Y95212D01*
X199231Y95844D01*
X199863Y96668D01*
X200169Y97408D01*
D02*
G37*
G36*
X193691D02*
X189712D01*
X190019Y96668D01*
X190651Y95844D01*
X191475Y95212D01*
X192435Y94814D01*
X193465Y94679D01*
X193691D01*
Y97408D01*
D02*
G37*
G36*
X82996Y102777D02*
X81836Y102624D01*
X80755Y102176D01*
X79827Y101464D01*
X79115Y100536D01*
X78667Y99455D01*
X78514Y98295D01*
X78667Y97135D01*
X79115Y96055D01*
X79827Y95126D01*
X80755Y94414D01*
X81836Y93966D01*
X82996Y93814D01*
X84156Y93966D01*
X85237Y94414D01*
X86165Y95126D01*
X86877Y96055D01*
X87325Y97135D01*
X87478Y98295D01*
X87325Y99455D01*
X86877Y100536D01*
X86165Y101464D01*
X85237Y102176D01*
X84156Y102624D01*
X82996Y102777D01*
D02*
G37*
G36*
X12996D02*
X11836Y102624D01*
X10755Y102176D01*
X9827Y101464D01*
X9115Y100536D01*
X8667Y99455D01*
X8514Y98295D01*
X8667Y97135D01*
X9115Y96055D01*
X9827Y95126D01*
X10755Y94414D01*
X11836Y93966D01*
X12996Y93814D01*
X14156Y93966D01*
X15237Y94414D01*
X16165Y95126D01*
X16877Y96055D01*
X17325Y97135D01*
X17478Y98295D01*
X17325Y99455D01*
X16877Y100536D01*
X16165Y101464D01*
X15237Y102176D01*
X14156Y102624D01*
X12996Y102777D01*
D02*
G37*
G36*
X166441Y97584D02*
X165384Y97445D01*
X164399Y97037D01*
X163553Y96388D01*
X162904Y95542D01*
X162496Y94557D01*
X162356Y93500D01*
X162496Y92443D01*
X162904Y91458D01*
X163553Y90612D01*
X164399Y89963D01*
X165384Y89555D01*
X166441Y89416D01*
X167498Y89555D01*
X168483Y89963D01*
X169329Y90612D01*
X169978Y91458D01*
X170386Y92443D01*
X170526Y93500D01*
X170386Y94557D01*
X169978Y95542D01*
X169329Y96388D01*
X168483Y97037D01*
X167498Y97445D01*
X166441Y97584D01*
D02*
G37*
G36*
X146441D02*
X145384Y97445D01*
X144399Y97037D01*
X143553Y96388D01*
X142904Y95542D01*
X142496Y94557D01*
X142356Y93500D01*
X142496Y92443D01*
X142904Y91458D01*
X143553Y90612D01*
X144399Y89963D01*
X145384Y89555D01*
X146441Y89416D01*
X147498Y89555D01*
X148483Y89963D01*
X149329Y90612D01*
X149978Y91458D01*
X150386Y92443D01*
X150525Y93500D01*
X150386Y94557D01*
X149978Y95542D01*
X149329Y96388D01*
X148483Y97037D01*
X147498Y97445D01*
X146441Y97584D01*
D02*
G37*
G36*
X123191Y87732D02*
Y86593D01*
X124331D01*
X124325Y86623D01*
X123883Y87284D01*
X123221Y87726D01*
X123191Y87732D01*
D02*
G37*
G36*
X121691D02*
X121661Y87726D01*
X120999Y87284D01*
X120557Y86623D01*
X120551Y86593D01*
X121691D01*
Y87732D01*
D02*
G37*
G36*
X124331Y85093D02*
X123191D01*
Y83952D01*
X123221Y83959D01*
X123883Y84401D01*
X124325Y85062D01*
X124331Y85093D01*
D02*
G37*
G36*
X121691D02*
X120551D01*
X120557Y85062D01*
X120999Y84401D01*
X121661Y83959D01*
X121691Y83952D01*
Y85093D01*
D02*
G37*
G36*
X82996Y92777D02*
X81836Y92624D01*
X80755Y92177D01*
X79827Y91464D01*
X79115Y90536D01*
X78667Y89455D01*
X78514Y88295D01*
X78667Y87135D01*
X79115Y86054D01*
X79827Y85126D01*
X80755Y84414D01*
X81836Y83966D01*
X82996Y83814D01*
X84156Y83966D01*
X85237Y84414D01*
X86165Y85126D01*
X86877Y86054D01*
X87325Y87135D01*
X87478Y88295D01*
X87325Y89455D01*
X86877Y90536D01*
X86165Y91464D01*
X85237Y92177D01*
X84156Y92624D01*
X82996Y92777D01*
D02*
G37*
G36*
X12996D02*
X11836Y92624D01*
X10755Y92177D01*
X9827Y91464D01*
X9115Y90536D01*
X8667Y89455D01*
X8514Y88295D01*
X8667Y87135D01*
X9115Y86054D01*
X9827Y85126D01*
X10755Y84414D01*
X11836Y83966D01*
X12996Y83814D01*
X14156Y83966D01*
X15237Y84414D01*
X16165Y85126D01*
X16877Y86054D01*
X17325Y87135D01*
X17478Y88295D01*
X17325Y89455D01*
X16877Y90536D01*
X16165Y91464D01*
X15237Y92177D01*
X14156Y92624D01*
X12996Y92777D01*
D02*
G37*
G36*
X179941Y80947D02*
X179005Y80761D01*
X178211Y80230D01*
X177903Y79770D01*
X141720D01*
X141518Y80073D01*
X140724Y80603D01*
X139787Y80790D01*
X138851Y80603D01*
X138057Y80073D01*
X137527Y79279D01*
X137340Y78342D01*
X137527Y77406D01*
X138057Y76612D01*
X138851Y76082D01*
X139787Y75896D01*
X140724Y76082D01*
X141518Y76612D01*
X141720Y76915D01*
X178113D01*
X178211Y76770D01*
X179005Y76239D01*
X179941Y76053D01*
X180877Y76239D01*
X181671Y76770D01*
X182202Y77564D01*
X182388Y78500D01*
X182202Y79436D01*
X181671Y80230D01*
X180877Y80761D01*
X179941Y80947D01*
D02*
G37*
G36*
X82996Y82777D02*
X81836Y82624D01*
X80755Y82177D01*
X79827Y81464D01*
X79115Y80536D01*
X78667Y79455D01*
X78514Y78295D01*
X78667Y77135D01*
X79115Y76055D01*
X79827Y75126D01*
X80755Y74414D01*
X81836Y73966D01*
X82996Y73814D01*
X84156Y73966D01*
X85237Y74414D01*
X86165Y75126D01*
X86877Y76055D01*
X87325Y77135D01*
X87478Y78295D01*
X87325Y79455D01*
X86877Y80536D01*
X86165Y81464D01*
X85237Y82177D01*
X84156Y82624D01*
X82996Y82777D01*
D02*
G37*
G36*
X12996D02*
X11836Y82624D01*
X10755Y82177D01*
X9827Y81464D01*
X9115Y80536D01*
X8667Y79455D01*
X8514Y78295D01*
X8667Y77135D01*
X9115Y76055D01*
X9827Y75126D01*
X10755Y74414D01*
X11836Y73966D01*
X12996Y73814D01*
X14156Y73966D01*
X15237Y74414D01*
X16165Y75126D01*
X16877Y76055D01*
X17325Y77135D01*
X17478Y78295D01*
X17325Y79455D01*
X16877Y80536D01*
X16165Y81464D01*
X15237Y82177D01*
X14156Y82624D01*
X12996Y82777D01*
D02*
G37*
G36*
X95191Y65890D02*
Y64750D01*
X96331D01*
X96325Y64780D01*
X95883Y65442D01*
X95221Y65884D01*
X95191Y65890D01*
D02*
G37*
G36*
X93691D02*
X93661Y65884D01*
X92999Y65442D01*
X92557Y64780D01*
X92551Y64750D01*
X93691D01*
Y65890D01*
D02*
G37*
G36*
X82996Y72777D02*
X81836Y72624D01*
X80755Y72176D01*
X79827Y71464D01*
X79115Y70536D01*
X78667Y69455D01*
X78514Y68295D01*
X78667Y67135D01*
X79115Y66054D01*
X79827Y65126D01*
X80755Y64414D01*
X81836Y63966D01*
X82996Y63814D01*
X84156Y63966D01*
X85237Y64414D01*
X86165Y65126D01*
X86877Y66054D01*
X87325Y67135D01*
X87478Y68295D01*
X87325Y69455D01*
X86877Y70536D01*
X86165Y71464D01*
X85237Y72176D01*
X84156Y72624D01*
X82996Y72777D01*
D02*
G37*
G36*
X12996D02*
X11836Y72624D01*
X10755Y72176D01*
X9827Y71464D01*
X9115Y70536D01*
X8667Y69455D01*
X8514Y68295D01*
X8667Y67135D01*
X9115Y66054D01*
X9827Y65126D01*
X10755Y64414D01*
X11836Y63966D01*
X12996Y63814D01*
X14156Y63966D01*
X15237Y64414D01*
X16165Y65126D01*
X16877Y66054D01*
X17325Y67135D01*
X17478Y68295D01*
X17325Y69455D01*
X16877Y70536D01*
X16165Y71464D01*
X15237Y72176D01*
X14156Y72624D01*
X12996Y72777D01*
D02*
G37*
G36*
X96331Y63250D02*
X95191D01*
Y62110D01*
X95221Y62116D01*
X95883Y62558D01*
X96325Y63220D01*
X96331Y63250D01*
D02*
G37*
G36*
X93691D02*
X92551D01*
X92557Y63220D01*
X92999Y62558D01*
X93661Y62116D01*
X93691Y62110D01*
Y63250D01*
D02*
G37*
G36*
X166441Y67006D02*
X165384Y66867D01*
X164399Y66459D01*
X163553Y65810D01*
X162904Y64964D01*
X162496Y63978D01*
X162356Y62921D01*
X162496Y61864D01*
X162888Y60918D01*
X162760Y60554D01*
X162692Y60418D01*
X150189D01*
X150122Y60554D01*
X149994Y60918D01*
X150386Y61864D01*
X150525Y62921D01*
X150386Y63978D01*
X149978Y64964D01*
X149329Y65810D01*
X148483Y66459D01*
X147498Y66867D01*
X146441Y67006D01*
X145384Y66867D01*
X144399Y66459D01*
X143553Y65810D01*
X142904Y64964D01*
X142496Y63978D01*
X142356Y62921D01*
X142496Y61864D01*
X142888Y60918D01*
X142760Y60554D01*
X142692Y60418D01*
X141441D01*
X141090Y60348D01*
X140792Y60149D01*
X138792Y58149D01*
X138593Y57851D01*
X138523Y57500D01*
X138523Y51000D01*
X138593Y50649D01*
X138792Y50351D01*
X140792Y48351D01*
X141090Y48152D01*
X141441Y48082D01*
X142686D01*
X142712Y48030D01*
X142879Y47582D01*
X142496Y46656D01*
X142356Y45598D01*
X142496Y44541D01*
X142904Y43556D01*
X143553Y42710D01*
X144399Y42061D01*
X145384Y41653D01*
X146441Y41514D01*
X147498Y41653D01*
X148483Y42061D01*
X149329Y42710D01*
X149978Y43556D01*
X150386Y44541D01*
X150525Y45598D01*
X150386Y46656D01*
X150002Y47582D01*
X150170Y48030D01*
X150196Y48082D01*
X162686D01*
X162712Y48030D01*
X162880Y47582D01*
X162496Y46656D01*
X162356Y45598D01*
X162496Y44541D01*
X162904Y43556D01*
X163553Y42710D01*
X164399Y42061D01*
X165384Y41653D01*
X166441Y41514D01*
X167498Y41653D01*
X168483Y42061D01*
X169329Y42710D01*
X169978Y43556D01*
X170386Y44541D01*
X170526Y45598D01*
X170386Y46656D01*
X170002Y47582D01*
X170170Y48030D01*
X170196Y48082D01*
X187941D01*
X188292Y48152D01*
X188590Y48351D01*
X188831Y48592D01*
X189304Y48359D01*
X189212Y47657D01*
X189361Y46523D01*
X189799Y45466D01*
X190496Y44559D01*
X191403Y43862D01*
X192460Y43424D01*
X193595Y43275D01*
X196547D01*
X197681Y43424D01*
X198738Y43862D01*
X199646Y44559D01*
X200342Y45466D01*
X200780Y46523D01*
X200930Y47657D01*
X200780Y48792D01*
X200342Y49849D01*
X200124Y50134D01*
X200345Y50582D01*
X202441D01*
X202792Y50652D01*
X203090Y50851D01*
X205590Y53351D01*
X205789Y53649D01*
X205859Y54000D01*
X205859Y61500D01*
X205789Y61851D01*
X205590Y62149D01*
X202590Y65149D01*
X202292Y65348D01*
X201941Y65418D01*
X177441D01*
X177090Y65348D01*
X176792Y65149D01*
X172061Y60418D01*
X170189D01*
X170122Y60554D01*
X169994Y60918D01*
X170386Y61864D01*
X170526Y62921D01*
X170386Y63978D01*
X169978Y64964D01*
X169329Y65810D01*
X168483Y66459D01*
X167498Y66867D01*
X166441Y67006D01*
D02*
G37*
G36*
X95191Y60890D02*
Y59750D01*
X96331D01*
X96325Y59780D01*
X95883Y60442D01*
X95221Y60884D01*
X95191Y60890D01*
D02*
G37*
G36*
X93691D02*
X93661Y60884D01*
X92999Y60442D01*
X92557Y59780D01*
X92551Y59750D01*
X93691D01*
Y60890D01*
D02*
G37*
G36*
X13746Y62275D02*
Y59045D01*
X16975D01*
X16935Y59351D01*
X16528Y60334D01*
X15880Y61179D01*
X15035Y61827D01*
X14052Y62234D01*
X13746Y62275D01*
D02*
G37*
G36*
X83746D02*
Y59045D01*
X86976D01*
X86935Y59351D01*
X86528Y60334D01*
X85880Y61179D01*
X85035Y61827D01*
X84052Y62234D01*
X83746Y62275D01*
D02*
G37*
G36*
X12246D02*
X11941Y62234D01*
X10957Y61827D01*
X10112Y61179D01*
X9464Y60334D01*
X9057Y59351D01*
X9017Y59045D01*
X12246D01*
Y62275D01*
D02*
G37*
G36*
X82246D02*
X81941Y62234D01*
X80957Y61827D01*
X80112Y61179D01*
X79464Y60334D01*
X79057Y59351D01*
X79017Y59045D01*
X82246D01*
Y62275D01*
D02*
G37*
G36*
X96331Y58250D02*
X95191D01*
Y57110D01*
X95221Y57116D01*
X95883Y57558D01*
X96325Y58220D01*
X96331Y58250D01*
D02*
G37*
G36*
X93691D02*
X92551D01*
X92557Y58220D01*
X92999Y57558D01*
X93661Y57116D01*
X93691Y57110D01*
Y58250D01*
D02*
G37*
G36*
X86976Y57545D02*
X83746D01*
Y54316D01*
X84052Y54356D01*
X85035Y54764D01*
X85880Y55412D01*
X86528Y56256D01*
X86935Y57240D01*
X86976Y57545D01*
D02*
G37*
G36*
X16975D02*
X13746D01*
Y54316D01*
X14052Y54356D01*
X15035Y54764D01*
X15880Y55412D01*
X16528Y56256D01*
X16935Y57240D01*
X16975Y57545D01*
D02*
G37*
G36*
X82246D02*
X79017D01*
X79057Y57240D01*
X79464Y56256D01*
X80112Y55412D01*
X80957Y54764D01*
X81941Y54356D01*
X82246Y54316D01*
Y57545D01*
D02*
G37*
G36*
X12246D02*
X9017D01*
X9057Y57240D01*
X9464Y56256D01*
X10112Y55412D01*
X10957Y54764D01*
X11941Y54356D01*
X12246Y54316D01*
Y57545D01*
D02*
G37*
G36*
X95191Y55390D02*
Y54250D01*
X96331D01*
X96325Y54280D01*
X95883Y54942D01*
X95221Y55384D01*
X95191Y55390D01*
D02*
G37*
G36*
X93691D02*
X93661Y55384D01*
X92999Y54942D01*
X92557Y54280D01*
X92551Y54250D01*
X93691D01*
Y55390D01*
D02*
G37*
G36*
X96331Y52750D02*
X95191D01*
Y51610D01*
X95221Y51616D01*
X95883Y52058D01*
X96325Y52720D01*
X96331Y52750D01*
D02*
G37*
G36*
X93691D02*
X92551D01*
X92557Y52720D01*
X92999Y52058D01*
X93661Y51616D01*
X93691Y51610D01*
Y52750D01*
D02*
G37*
G36*
X95191Y49890D02*
Y48750D01*
X96331D01*
X96325Y48780D01*
X95883Y49442D01*
X95221Y49884D01*
X95191Y49890D01*
D02*
G37*
G36*
X93691D02*
X93661Y49884D01*
X92999Y49442D01*
X92557Y48780D01*
X92551Y48750D01*
X93691D01*
Y49890D01*
D02*
G37*
G36*
X96331Y47250D02*
X95191D01*
Y46110D01*
X95221Y46116D01*
X95883Y46558D01*
X96325Y47220D01*
X96331Y47250D01*
D02*
G37*
G36*
X93691D02*
X92551D01*
X92557Y47220D01*
X92999Y46558D01*
X93661Y46116D01*
X93691Y46110D01*
Y47250D01*
D02*
G37*
G36*
X82996Y52777D02*
X81836Y52624D01*
X80755Y52176D01*
X79827Y51464D01*
X79115Y50536D01*
X78667Y49455D01*
X78514Y48295D01*
X78667Y47135D01*
X79115Y46055D01*
X79827Y45126D01*
X80755Y44414D01*
X81836Y43966D01*
X82996Y43814D01*
X84156Y43966D01*
X85237Y44414D01*
X86165Y45126D01*
X86877Y46055D01*
X87325Y47135D01*
X87478Y48295D01*
X87325Y49455D01*
X86877Y50536D01*
X86165Y51464D01*
X85237Y52176D01*
X84156Y52624D01*
X82996Y52777D01*
D02*
G37*
G36*
X12996D02*
X11836Y52624D01*
X10755Y52176D01*
X9827Y51464D01*
X9115Y50536D01*
X8667Y49455D01*
X8514Y48295D01*
X8667Y47135D01*
X9115Y46055D01*
X9827Y45126D01*
X10755Y44414D01*
X11836Y43966D01*
X12996Y43814D01*
X14156Y43966D01*
X15237Y44414D01*
X16165Y45126D01*
X16877Y46055D01*
X17325Y47135D01*
X17478Y48295D01*
X17325Y49455D01*
X16877Y50536D01*
X16165Y51464D01*
X15237Y52176D01*
X14156Y52624D01*
X12996Y52777D01*
D02*
G37*
G36*
X196547Y41794D02*
X196321D01*
Y39065D01*
X200299D01*
X199993Y39804D01*
X199361Y40628D01*
X198537Y41261D01*
X197577Y41658D01*
X196547Y41794D01*
D02*
G37*
G36*
X193821D02*
X193595D01*
X192565Y41658D01*
X191605Y41261D01*
X190781Y40628D01*
X190149Y39804D01*
X189842Y39065D01*
X193821D01*
Y41794D01*
D02*
G37*
G36*
X200299Y36565D02*
X196321D01*
Y33836D01*
X196547D01*
X197577Y33972D01*
X198537Y34369D01*
X199361Y35001D01*
X199993Y35825D01*
X200299Y36565D01*
D02*
G37*
G36*
X193821D02*
X189842D01*
X190149Y35825D01*
X190781Y35001D01*
X191605Y34369D01*
X192565Y33972D01*
X193595Y33836D01*
X193821D01*
Y36565D01*
D02*
G37*
G36*
X166441Y37084D02*
X165384Y36945D01*
X164399Y36537D01*
X163553Y35888D01*
X162904Y35042D01*
X162496Y34057D01*
X162356Y33000D01*
X162496Y31943D01*
X162904Y30958D01*
X163553Y30112D01*
X164399Y29463D01*
X165384Y29055D01*
X166441Y28916D01*
X167498Y29055D01*
X168483Y29463D01*
X169329Y30112D01*
X169978Y30958D01*
X170386Y31943D01*
X170526Y33000D01*
X170386Y34057D01*
X169978Y35042D01*
X169329Y35888D01*
X168483Y36537D01*
X167498Y36945D01*
X166441Y37084D01*
D02*
G37*
G36*
X146441D02*
X145384Y36945D01*
X144399Y36537D01*
X143553Y35888D01*
X142904Y35042D01*
X142496Y34057D01*
X142356Y33000D01*
X142496Y31943D01*
X142904Y30958D01*
X143553Y30112D01*
X144399Y29463D01*
X145384Y29055D01*
X146441Y28916D01*
X147498Y29055D01*
X148483Y29463D01*
X149329Y30112D01*
X149978Y30958D01*
X150386Y31943D01*
X150525Y33000D01*
X150386Y34057D01*
X149978Y35042D01*
X149329Y35888D01*
X148483Y36537D01*
X147498Y36945D01*
X146441Y37084D01*
D02*
G37*
G36*
X123191Y26890D02*
Y25750D01*
X124331D01*
X124325Y25780D01*
X123883Y26442D01*
X123221Y26884D01*
X123191Y26890D01*
D02*
G37*
G36*
X121691D02*
X121661Y26884D01*
X120999Y26442D01*
X120557Y25780D01*
X120551Y25750D01*
X121691D01*
Y26890D01*
D02*
G37*
G36*
X124331Y24250D02*
X123191D01*
Y23110D01*
X123221Y23116D01*
X123883Y23558D01*
X124325Y24220D01*
X124331Y24250D01*
D02*
G37*
G36*
X121691D02*
X120551D01*
X120557Y24220D01*
X120999Y23558D01*
X121661Y23116D01*
X121691Y23110D01*
Y24250D01*
D02*
G37*
G36*
X179941Y19947D02*
X179005Y19761D01*
X178211Y19230D01*
X178008Y18927D01*
X141391D01*
X141189Y19230D01*
X140395Y19761D01*
X139459Y19947D01*
X138522Y19761D01*
X137728Y19230D01*
X137198Y18436D01*
X137012Y17500D01*
X137198Y16564D01*
X137728Y15770D01*
X138522Y15239D01*
X139459Y15053D01*
X140395Y15239D01*
X141189Y15770D01*
X141391Y16073D01*
X178008D01*
X178211Y15770D01*
X179005Y15239D01*
X179941Y15053D01*
X180877Y15239D01*
X181671Y15770D01*
X182202Y16564D01*
X182388Y17500D01*
X182202Y18436D01*
X181671Y19230D01*
X180877Y19761D01*
X179941Y19947D01*
D02*
G37*
G36*
X79006Y20977D02*
Y16998D01*
X81735D01*
Y17224D01*
X81599Y18254D01*
X81202Y19214D01*
X80569Y20038D01*
X79745Y20670D01*
X79006Y20977D01*
D02*
G37*
G36*
X76506Y20977D02*
X75766Y20670D01*
X74942Y20038D01*
X74310Y19214D01*
X73913Y18254D01*
X73777Y17224D01*
Y16998D01*
X76506D01*
Y20977D01*
D02*
G37*
G36*
Y14498D02*
X73777D01*
Y14272D01*
X73913Y13242D01*
X74310Y12282D01*
X74942Y11458D01*
X75766Y10826D01*
X76506Y10520D01*
Y14498D01*
D02*
G37*
G36*
X81735D02*
X79006D01*
Y10520D01*
X79745Y10826D01*
X80569Y11458D01*
X81202Y12282D01*
X81599Y13242D01*
X81735Y14272D01*
Y14498D01*
D02*
G37*
G36*
X87598Y21607D02*
X86464Y21457D01*
X85407Y21020D01*
X84500Y20323D01*
X83803Y19416D01*
X83365Y18359D01*
X83216Y17224D01*
Y14272D01*
X83365Y13137D01*
X83803Y12081D01*
X84500Y11173D01*
X85407Y10476D01*
X86464Y10039D01*
X87598Y9889D01*
X88733Y10039D01*
X89790Y10476D01*
X90697Y11173D01*
X91394Y12081D01*
X91831Y13137D01*
X91981Y14272D01*
Y17224D01*
X91831Y18359D01*
X91394Y19416D01*
X90697Y20323D01*
X89790Y21020D01*
X88733Y21457D01*
X87598Y21607D01*
D02*
G37*
G36*
X194882Y20618D02*
X193548Y20487D01*
X192265Y20097D01*
X191083Y19466D01*
X190046Y18615D01*
X189196Y17579D01*
X188564Y16397D01*
X188175Y15114D01*
X188043Y13780D01*
X188175Y12445D01*
X188564Y11163D01*
X189196Y9980D01*
X190046Y8944D01*
X191083Y8094D01*
X192265Y7462D01*
X193548Y7073D01*
X194882Y6941D01*
X196216Y7073D01*
X197499Y7462D01*
X198681Y8094D01*
X199717Y8944D01*
X200568Y9980D01*
X201200Y11163D01*
X201589Y12445D01*
X201720Y13780D01*
X201589Y15114D01*
X201200Y16397D01*
X200568Y17579D01*
X199717Y18615D01*
X198681Y19466D01*
X197499Y20097D01*
X196216Y20487D01*
X194882Y20618D01*
D02*
G37*
G36*
X13779Y20618D02*
X12444Y20486D01*
X11162Y20097D01*
X9979Y19465D01*
X8943Y18615D01*
X8093Y17578D01*
X7461Y16396D01*
X7072Y15113D01*
X6940Y13779D01*
X7072Y12445D01*
X7461Y11162D01*
X8093Y9980D01*
X8943Y8944D01*
X9979Y8093D01*
X11162Y7461D01*
X12444Y7072D01*
X13779Y6941D01*
X15113Y7072D01*
X16396Y7461D01*
X17578Y8093D01*
X18614Y8944D01*
X19465Y9980D01*
X20096Y11162D01*
X20485Y12445D01*
X20617Y13779D01*
X20485Y15113D01*
X20096Y16396D01*
X19465Y17578D01*
X18614Y18615D01*
X17578Y19465D01*
X16396Y20097D01*
X15113Y20486D01*
X13779Y20618D01*
D02*
G37*
%LPD*%
G36*
X204941Y242342D02*
X204941Y234842D01*
X202441Y232343D01*
X198993D01*
X198609Y232638D01*
X197552Y233076D01*
X196417Y233225D01*
X193465D01*
X192330Y233076D01*
X191273Y232638D01*
X190889Y232343D01*
X190441D01*
X187941Y229842D01*
X168660D01*
X168483Y229978D01*
X167498Y230386D01*
X166441Y230525D01*
X165384Y230386D01*
X164399Y229978D01*
X164222Y229842D01*
X148660D01*
X148483Y229978D01*
X147498Y230386D01*
X146441Y230525D01*
X145384Y230386D01*
X144399Y229978D01*
X144222Y229842D01*
X141441D01*
X139441Y231842D01*
X139441Y238342D01*
X141441Y240342D01*
X144247D01*
X144399Y240227D01*
X145384Y239818D01*
X146441Y239679D01*
X147498Y239818D01*
X148483Y240227D01*
X148635Y240342D01*
X164247D01*
X164399Y240227D01*
X165384Y239818D01*
X166441Y239679D01*
X167498Y239818D01*
X168483Y240227D01*
X168634Y240342D01*
X172441D01*
X177441Y245342D01*
X201941D01*
X204941Y242342D01*
D02*
G37*
%LPC*%
G36*
X196417Y242664D02*
X196191D01*
Y239935D01*
X200169D01*
X199863Y240674D01*
X199231Y241499D01*
X198407Y242131D01*
X197447Y242528D01*
X196417Y242664D01*
D02*
G37*
G36*
X193691D02*
X193465D01*
X192435Y242528D01*
X191475Y242131D01*
X190651Y241499D01*
X190019Y240674D01*
X189712Y239935D01*
X193691D01*
Y242664D01*
D02*
G37*
G36*
X167691Y238535D02*
Y236352D01*
X169873D01*
X169629Y236943D01*
X169044Y237705D01*
X168281Y238290D01*
X167691Y238535D01*
D02*
G37*
G36*
X147691D02*
Y236352D01*
X149873D01*
X149629Y236943D01*
X149044Y237705D01*
X148282Y238290D01*
X147691Y238535D01*
D02*
G37*
G36*
X165191Y238535D02*
X164600Y238290D01*
X163838Y237705D01*
X163253Y236943D01*
X163008Y236352D01*
X165191D01*
Y238535D01*
D02*
G37*
G36*
X145191D02*
X144600Y238290D01*
X143838Y237705D01*
X143253Y236943D01*
X143008Y236352D01*
X145191D01*
Y238535D01*
D02*
G37*
G36*
X200169Y237435D02*
X196191D01*
Y234706D01*
X196417D01*
X197447Y234842D01*
X198407Y235239D01*
X199231Y235872D01*
X199863Y236696D01*
X200169Y237435D01*
D02*
G37*
G36*
X193691D02*
X189712D01*
X190019Y236696D01*
X190651Y235872D01*
X191475Y235239D01*
X192435Y234842D01*
X193465Y234706D01*
X193691D01*
Y237435D01*
D02*
G37*
G36*
X165191Y233852D02*
X163008D01*
X163253Y233262D01*
X163838Y232499D01*
X164600Y231914D01*
X165191Y231670D01*
Y233852D01*
D02*
G37*
G36*
X145191D02*
X143008D01*
X143253Y233262D01*
X143838Y232499D01*
X144600Y231914D01*
X145191Y231670D01*
Y233852D01*
D02*
G37*
G36*
X169873D02*
X167691D01*
Y231670D01*
X168281Y231914D01*
X169044Y232499D01*
X169629Y233262D01*
X169873Y233852D01*
D02*
G37*
G36*
X149873D02*
X147691D01*
Y231670D01*
X148282Y231914D01*
X149044Y232499D01*
X149629Y233262D01*
X149873Y233852D01*
D02*
G37*
%LPD*%
G36*
X204941Y182500D02*
X204941Y175000D01*
X202441Y172500D01*
X198993D01*
X198609Y172795D01*
X197552Y173233D01*
X196417Y173382D01*
X193465D01*
X192330Y173233D01*
X191273Y172795D01*
X190889Y172500D01*
X190441D01*
X187941Y170000D01*
X168660D01*
X168483Y170136D01*
X167498Y170544D01*
X166441Y170683D01*
X165384Y170544D01*
X164399Y170136D01*
X164222Y170000D01*
X148660D01*
X148483Y170136D01*
X147498Y170544D01*
X146441Y170683D01*
X145384Y170544D01*
X144399Y170136D01*
X144222Y170000D01*
X141441D01*
X139441Y172000D01*
X139441Y178500D01*
X141441Y180500D01*
X144247D01*
X144399Y180384D01*
X145384Y179976D01*
X146441Y179837D01*
X147498Y179976D01*
X148483Y180384D01*
X148635Y180500D01*
X164247D01*
X164399Y180384D01*
X165384Y179976D01*
X166441Y179837D01*
X167498Y179976D01*
X168483Y180384D01*
X168634Y180500D01*
X172441D01*
X177441Y185500D01*
X201941D01*
X204941Y182500D01*
D02*
G37*
%LPC*%
G36*
X196417Y182821D02*
X196191D01*
Y180093D01*
X200169D01*
X199863Y180832D01*
X199231Y181656D01*
X198407Y182288D01*
X197447Y182686D01*
X196417Y182821D01*
D02*
G37*
G36*
X193691D02*
X193465D01*
X192435Y182686D01*
X191475Y182288D01*
X190651Y181656D01*
X190019Y180832D01*
X189712Y180093D01*
X193691D01*
Y182821D01*
D02*
G37*
G36*
X167691Y178692D02*
Y176510D01*
X169873D01*
X169629Y177100D01*
X169044Y177863D01*
X168281Y178448D01*
X167691Y178692D01*
D02*
G37*
G36*
X147691D02*
Y176510D01*
X149873D01*
X149629Y177100D01*
X149044Y177863D01*
X148282Y178448D01*
X147691Y178692D01*
D02*
G37*
G36*
X165191D02*
X164600Y178448D01*
X163838Y177863D01*
X163253Y177100D01*
X163008Y176510D01*
X165191D01*
Y178692D01*
D02*
G37*
G36*
X145191D02*
X144600Y178448D01*
X143838Y177863D01*
X143253Y177100D01*
X143008Y176510D01*
X145191D01*
Y178692D01*
D02*
G37*
G36*
X200169Y177593D02*
X196191D01*
Y174864D01*
X196417D01*
X197447Y174999D01*
X198407Y175397D01*
X199231Y176029D01*
X199863Y176853D01*
X200169Y177593D01*
D02*
G37*
G36*
X193691D02*
X189712D01*
X190019Y176853D01*
X190651Y176029D01*
X191475Y175397D01*
X192435Y174999D01*
X193465Y174864D01*
X193691D01*
Y177593D01*
D02*
G37*
G36*
X165191Y174010D02*
X163008D01*
X163253Y173419D01*
X163838Y172657D01*
X164600Y172072D01*
X165191Y171827D01*
Y174010D01*
D02*
G37*
G36*
X145191D02*
X143008D01*
X143253Y173419D01*
X143838Y172657D01*
X144600Y172072D01*
X145191Y171827D01*
Y174010D01*
D02*
G37*
G36*
X169873D02*
X167691D01*
Y171827D01*
X168281Y172072D01*
X169044Y172657D01*
X169629Y173419D01*
X169873Y174010D01*
D02*
G37*
G36*
X149873D02*
X147691D01*
Y171827D01*
X148282Y172072D01*
X149044Y172657D01*
X149629Y173419D01*
X149873Y174010D01*
D02*
G37*
%LPD*%
G36*
X204941Y122000D02*
X204941Y114500D01*
X202441Y112000D01*
X198993D01*
X198609Y112295D01*
X197552Y112733D01*
X196417Y112882D01*
X193465D01*
X192330Y112733D01*
X191273Y112295D01*
X190889Y112000D01*
X190441D01*
X187941Y109500D01*
X168660D01*
X168483Y109636D01*
X167498Y110044D01*
X166441Y110183D01*
X165384Y110044D01*
X164399Y109636D01*
X164222Y109500D01*
X148660D01*
X148483Y109636D01*
X147498Y110044D01*
X146441Y110183D01*
X145384Y110044D01*
X144399Y109636D01*
X144222Y109500D01*
X141441D01*
X139441Y111500D01*
X139441Y118000D01*
X141441Y120000D01*
X144247D01*
X144399Y119884D01*
X145384Y119476D01*
X146441Y119337D01*
X147498Y119476D01*
X148483Y119884D01*
X148635Y120000D01*
X164247D01*
X164399Y119884D01*
X165384Y119476D01*
X166441Y119337D01*
X167498Y119476D01*
X168483Y119884D01*
X168634Y120000D01*
X172441D01*
X177441Y125000D01*
X201941D01*
X204941Y122000D01*
D02*
G37*
%LPC*%
G36*
X196417Y122321D02*
X196191D01*
Y119592D01*
X200169D01*
X199863Y120332D01*
X199231Y121156D01*
X198407Y121788D01*
X197447Y122186D01*
X196417Y122321D01*
D02*
G37*
G36*
X193691D02*
X193465D01*
X192435Y122186D01*
X191475Y121788D01*
X190651Y121156D01*
X190019Y120332D01*
X189712Y119592D01*
X193691D01*
Y122321D01*
D02*
G37*
G36*
X167691Y118192D02*
Y116010D01*
X169873D01*
X169629Y116600D01*
X169044Y117363D01*
X168281Y117948D01*
X167691Y118192D01*
D02*
G37*
G36*
X147691D02*
Y116010D01*
X149873D01*
X149629Y116600D01*
X149044Y117363D01*
X148282Y117948D01*
X147691Y118192D01*
D02*
G37*
G36*
X165191D02*
X164600Y117948D01*
X163838Y117363D01*
X163253Y116600D01*
X163008Y116010D01*
X165191D01*
Y118192D01*
D02*
G37*
G36*
X145191D02*
X144600Y117948D01*
X143838Y117363D01*
X143253Y116600D01*
X143008Y116010D01*
X145191D01*
Y118192D01*
D02*
G37*
G36*
X200169Y117093D02*
X196191D01*
Y114364D01*
X196417D01*
X197447Y114499D01*
X198407Y114897D01*
X199231Y115529D01*
X199863Y116353D01*
X200169Y117093D01*
D02*
G37*
G36*
X193691D02*
X189712D01*
X190019Y116353D01*
X190651Y115529D01*
X191475Y114897D01*
X192435Y114499D01*
X193465Y114364D01*
X193691D01*
Y117093D01*
D02*
G37*
G36*
X165191Y113510D02*
X163008D01*
X163253Y112919D01*
X163838Y112157D01*
X164600Y111572D01*
X165191Y111327D01*
Y113510D01*
D02*
G37*
G36*
X145191D02*
X143008D01*
X143253Y112919D01*
X143838Y112157D01*
X144600Y111572D01*
X145191Y111327D01*
Y113510D01*
D02*
G37*
G36*
X169873D02*
X167691D01*
Y111327D01*
X168281Y111572D01*
X169044Y112157D01*
X169629Y112919D01*
X169873Y113510D01*
D02*
G37*
G36*
X149873D02*
X147691D01*
Y111327D01*
X148282Y111572D01*
X149044Y112157D01*
X149629Y112919D01*
X149873Y113510D01*
D02*
G37*
%LPD*%
G36*
X204941Y61500D02*
X204941Y54000D01*
X202441Y51500D01*
X198624D01*
X197681Y51890D01*
X196547Y52040D01*
X193595D01*
X192460Y51890D01*
X191517Y51500D01*
X190441D01*
X187941Y49000D01*
X168660D01*
X168483Y49136D01*
X167498Y49544D01*
X166441Y49683D01*
X165384Y49544D01*
X164399Y49136D01*
X164222Y49000D01*
X148660D01*
X148483Y49136D01*
X147498Y49544D01*
X146441Y49683D01*
X145384Y49544D01*
X144399Y49136D01*
X144222Y49000D01*
X141441D01*
X139441Y51000D01*
X139441Y57500D01*
X141441Y59500D01*
X144247D01*
X144399Y59384D01*
X145384Y58976D01*
X146441Y58837D01*
X147498Y58976D01*
X148483Y59384D01*
X148635Y59500D01*
X164247D01*
X164399Y59384D01*
X165384Y58976D01*
X166441Y58837D01*
X167498Y58976D01*
X168483Y59384D01*
X168634Y59500D01*
X172441D01*
X177441Y64500D01*
X201941D01*
X204941Y61500D01*
D02*
G37*
%LPC*%
G36*
X196547Y61479D02*
X196321D01*
Y58750D01*
X200299D01*
X199993Y59490D01*
X199361Y60313D01*
X198537Y60946D01*
X197577Y61343D01*
X196547Y61479D01*
D02*
G37*
G36*
X193821D02*
X193595D01*
X192565Y61343D01*
X191605Y60946D01*
X190781Y60313D01*
X190149Y59490D01*
X189842Y58750D01*
X193821D01*
Y61479D01*
D02*
G37*
G36*
X167691Y57692D02*
Y55510D01*
X169873D01*
X169629Y56100D01*
X169044Y56863D01*
X168281Y57448D01*
X167691Y57692D01*
D02*
G37*
G36*
X147691D02*
Y55510D01*
X149873D01*
X149629Y56100D01*
X149044Y56863D01*
X148282Y57448D01*
X147691Y57692D01*
D02*
G37*
G36*
X165191D02*
X164600Y57448D01*
X163838Y56863D01*
X163253Y56100D01*
X163008Y55510D01*
X165191D01*
Y57692D01*
D02*
G37*
G36*
X145191D02*
X144600Y57448D01*
X143838Y56863D01*
X143253Y56100D01*
X143008Y55510D01*
X145191D01*
Y57692D01*
D02*
G37*
G36*
X200299Y56250D02*
X196321D01*
Y53521D01*
X196547D01*
X197577Y53657D01*
X198537Y54054D01*
X199361Y54686D01*
X199993Y55510D01*
X200299Y56250D01*
D02*
G37*
G36*
X193821D02*
X189842D01*
X190149Y55510D01*
X190781Y54686D01*
X191605Y54054D01*
X192565Y53657D01*
X193595Y53521D01*
X193821D01*
Y56250D01*
D02*
G37*
G36*
X145191Y53010D02*
X143008D01*
X143253Y52419D01*
X143838Y51657D01*
X144600Y51072D01*
X145191Y50827D01*
Y53010D01*
D02*
G37*
G36*
X165191D02*
X163008D01*
X163253Y52419D01*
X163838Y51657D01*
X164600Y51072D01*
X165191Y50827D01*
Y53010D01*
D02*
G37*
G36*
X169873D02*
X167691D01*
Y50827D01*
X168281Y51072D01*
X169044Y51657D01*
X169629Y52419D01*
X169873Y53010D01*
D02*
G37*
G36*
X149873D02*
X147691D01*
Y50827D01*
X148282Y51072D01*
X149044Y51657D01*
X149629Y52419D01*
X149873Y53010D01*
D02*
G37*
%LPD*%
D13*
X139459Y17500D02*
X179941D01*
X139787Y78342D02*
X179783D01*
X179941Y78500D01*
X139941Y139000D02*
X179441D01*
X139726Y198843D02*
X179783D01*
X179941Y199000D01*
D33*
X34378Y125500D02*
Y131562D01*
X31941Y134000D02*
X34378Y131562D01*
D34*
X13779Y261812D02*
D03*
X13779Y13779D02*
D03*
X194882Y261811D02*
D03*
X194882Y13780D02*
D03*
D35*
X82996Y148295D02*
D03*
Y138295D02*
D03*
Y158295D02*
D03*
Y168295D02*
D03*
Y178295D02*
D03*
Y188295D02*
D03*
Y198295D02*
D03*
Y208295D02*
D03*
Y218295D02*
D03*
Y228295D02*
D03*
Y128295D02*
D03*
Y118295D02*
D03*
Y108295D02*
D03*
Y98295D02*
D03*
Y88295D02*
D03*
Y78295D02*
D03*
Y68295D02*
D03*
Y58295D02*
D03*
Y48295D02*
D03*
X12996Y148295D02*
D03*
Y138295D02*
D03*
Y158295D02*
D03*
Y168295D02*
D03*
Y178295D02*
D03*
Y188295D02*
D03*
Y198295D02*
D03*
Y208295D02*
D03*
Y218295D02*
D03*
Y228295D02*
D03*
Y128295D02*
D03*
Y118295D02*
D03*
Y108295D02*
D03*
Y98295D02*
D03*
Y88295D02*
D03*
Y78295D02*
D03*
Y68295D02*
D03*
Y58295D02*
D03*
Y48295D02*
D03*
D36*
X82996Y238295D02*
D03*
X12996D02*
D03*
D37*
X166441Y33000D02*
D03*
Y45598D02*
D03*
X146441D02*
D03*
Y33000D02*
D03*
X166441Y54260D02*
D03*
Y62921D02*
D03*
X146441D02*
D03*
Y54260D02*
D03*
X166441Y93500D02*
D03*
Y106098D02*
D03*
X146441D02*
D03*
Y93500D02*
D03*
X166441Y114760D02*
D03*
Y123421D02*
D03*
X146441D02*
D03*
Y114760D02*
D03*
X166441Y213843D02*
D03*
Y226441D02*
D03*
X146441D02*
D03*
Y213843D02*
D03*
X166441Y235102D02*
D03*
Y243764D02*
D03*
X146441D02*
D03*
Y235102D02*
D03*
X166441Y154000D02*
D03*
Y166598D02*
D03*
X146441D02*
D03*
Y154000D02*
D03*
X166441Y175260D02*
D03*
Y183921D02*
D03*
X146441D02*
D03*
Y175260D02*
D03*
D38*
X195071Y47657D02*
D03*
Y57500D02*
D03*
Y37815D02*
D03*
X194941Y108500D02*
D03*
Y118342D02*
D03*
Y98658D02*
D03*
Y228842D02*
D03*
Y238685D02*
D03*
Y219000D02*
D03*
Y169000D02*
D03*
Y178842D02*
D03*
Y159158D02*
D03*
D39*
X87598Y15748D02*
D03*
X77756D02*
D03*
D40*
X179941Y17500D02*
D03*
Y78500D02*
D03*
X179441Y139000D02*
D03*
X179941Y199000D02*
D03*
X139726Y198843D02*
D03*
X139941Y139000D02*
D03*
X139787Y78342D02*
D03*
X139459Y17500D02*
D03*
X94441Y228842D02*
D03*
Y234343D02*
D03*
Y239843D02*
D03*
Y244843D02*
D03*
Y169000D02*
D03*
Y174500D02*
D03*
Y180000D02*
D03*
Y185000D02*
D03*
Y108843D02*
D03*
Y114342D02*
D03*
Y119843D02*
D03*
Y124843D02*
D03*
Y64000D02*
D03*
Y59000D02*
D03*
Y53500D02*
D03*
Y48000D02*
D03*
X122441Y206343D02*
D03*
Y146500D02*
D03*
Y85843D02*
D03*
Y25000D02*
D03*
X34378Y125500D02*
D03*
X31941Y134000D02*
D03*
M02*
