G04*
G04 #@! TF.GenerationSoftware,Altium Limited,Altium Designer,20.2.6 (244)*
G04*
G04 Layer_Color=65535*
%FSLAX25Y25*%
%MOIN*%
G70*
G04*
G04 #@! TF.SameCoordinates,5A4684AA-0BDD-4268-B9F4-3C1D46E6F2CF*
G04*
G04*
G04 #@! TF.FilePolarity,Positive*
G04*
G01*
G75*
%ADD10C,0.00500*%
%ADD11C,0.01000*%
%ADD12C,0.02000*%
%ADD13C,0.00600*%
D10*
X134095Y98715D02*
Y98815D01*
Y98715D02*
X141495D01*
Y111915D01*
X134095D02*
X141495D01*
X134095Y98815D02*
Y111915D01*
Y275880D02*
Y275980D01*
Y275880D02*
X141495D01*
Y289080D01*
X134095D02*
X141495D01*
X134095Y275980D02*
Y289080D01*
X41576Y335920D02*
Y336020D01*
Y335920D02*
X48976D01*
Y349120D01*
X41576D02*
X48976D01*
X41576Y336020D02*
Y349120D01*
Y300487D02*
Y300587D01*
Y300487D02*
X48976D01*
Y313687D01*
X41576D02*
X48976D01*
X41576Y300587D02*
Y313687D01*
Y265054D02*
Y265154D01*
Y265054D02*
X48976D01*
Y278254D01*
X41576D02*
X48976D01*
X41576Y265154D02*
Y278254D01*
Y229621D02*
Y229720D01*
Y229621D02*
X48976D01*
Y242821D01*
X41576D02*
X48976D01*
X41576Y229720D02*
Y242821D01*
X174335Y356062D02*
X174435D01*
X174335Y348662D02*
Y356062D01*
Y348662D02*
X187535D01*
Y356062D01*
X174435D02*
X187535D01*
X135132D02*
X135232D01*
X135132Y348662D02*
Y356062D01*
Y348662D02*
X148332D01*
Y356062D01*
X135232D02*
X148332D01*
X95762D02*
X95862D01*
X95762Y348662D02*
Y356062D01*
Y348662D02*
X108962D01*
Y356062D01*
X95862D02*
X108962D01*
X56392D02*
X56492D01*
X56392Y348662D02*
Y356062D01*
Y348662D02*
X69592D01*
Y356062D01*
X56492D02*
X69592D01*
X194645Y234846D02*
Y234946D01*
X187245D02*
X194645D01*
X187245Y221746D02*
Y234946D01*
Y221746D02*
X194645D01*
Y234846D01*
Y270280D02*
Y270379D01*
X187245D02*
X194645D01*
X187245Y257179D02*
Y270379D01*
Y257179D02*
X194645D01*
Y270280D01*
Y305713D02*
Y305813D01*
X187245D02*
X194645D01*
X187245Y292613D02*
Y305813D01*
Y292613D02*
X194645D01*
Y305713D01*
Y341146D02*
Y341246D01*
X187245D02*
X194645D01*
X187245Y328046D02*
Y341246D01*
Y328046D02*
X194645D01*
Y341146D01*
X69421Y171497D02*
X69521D01*
Y178897D01*
X56321D02*
X69521D01*
X56321Y171497D02*
Y178897D01*
Y171497D02*
X69421D01*
X108862D02*
X108962D01*
Y178897D01*
X95762D02*
X108962D01*
X95762Y171497D02*
Y178897D01*
Y171497D02*
X108862D01*
X148232D02*
X148332D01*
Y178897D01*
X135132D02*
X148332D01*
X135132Y171497D02*
Y178897D01*
Y171497D02*
X148232D01*
X187602D02*
X187702D01*
Y178897D01*
X174502D02*
X187702D01*
X174502Y171497D02*
Y178897D01*
Y171497D02*
X187602D01*
X48976Y65555D02*
Y65655D01*
X41576D02*
X48976D01*
X41576Y52455D02*
Y65655D01*
Y52455D02*
X48976D01*
Y65555D01*
Y100988D02*
Y101088D01*
X41576D02*
X48976D01*
X41576Y87888D02*
Y101088D01*
Y87888D02*
X48976D01*
Y100988D01*
Y136421D02*
Y136521D01*
X41576D02*
X48976D01*
X41576Y123321D02*
Y136521D01*
Y123321D02*
X48976D01*
Y136421D01*
Y171854D02*
Y171954D01*
X41576D02*
X48976D01*
X41576Y158754D02*
Y171954D01*
Y158754D02*
X48976D01*
Y171854D01*
X166628Y45039D02*
X166728D01*
X166628Y37639D02*
Y45039D01*
Y37639D02*
X179828D01*
Y45039D01*
X166728D02*
X179828D01*
X127939D02*
X128039D01*
X127939Y37639D02*
Y45039D01*
Y37639D02*
X141139D01*
Y45039D01*
X128039D02*
X141139D01*
X87888D02*
X87988D01*
X87888Y37639D02*
Y45039D01*
Y37639D02*
X101088D01*
Y45039D01*
X87988D02*
X101088D01*
X48518D02*
X48618D01*
X48518Y37639D02*
Y45039D01*
Y37639D02*
X61718D01*
Y45039D01*
X48618D02*
X61718D01*
X187245Y151865D02*
Y151965D01*
Y151865D02*
X194645D01*
Y165065D01*
X187245D02*
X194645D01*
X187245Y151965D02*
Y165065D01*
Y116544D02*
Y116644D01*
Y116544D02*
X194645D01*
Y129744D01*
X187245D02*
X194645D01*
X187245Y116644D02*
Y129744D01*
Y80998D02*
Y81098D01*
Y80998D02*
X194645D01*
Y94198D01*
X187245D02*
X194645D01*
X187245Y81098D02*
Y94198D01*
Y45565D02*
Y45665D01*
Y45565D02*
X194645D01*
Y58765D01*
X187245D02*
X194645D01*
X187245Y45665D02*
Y58765D01*
D11*
X108110Y98126D02*
Y117811D01*
Y98126D02*
X127795D01*
Y117811D01*
X108110D02*
X127795D01*
X117726Y98352D02*
X127717Y108343D01*
X108110Y275291D02*
Y294976D01*
Y275291D02*
X127795D01*
Y294976D01*
X108110D02*
X127795D01*
X117726Y275518D02*
X127717Y285508D01*
X203055Y328583D02*
X222740D01*
Y348268D01*
X203055D02*
X222740D01*
X203055Y328583D02*
Y348268D01*
X212524Y348189D02*
X222514Y338199D01*
X203055Y293150D02*
X222740D01*
Y312835D01*
X203055D02*
X222740D01*
X203055Y293150D02*
Y312835D01*
X212524Y312756D02*
X222514Y302766D01*
X203055Y257716D02*
X222740D01*
Y277402D01*
X203055D02*
X222740D01*
X203055Y257716D02*
Y277402D01*
X212524Y277323D02*
X222514Y267333D01*
X203055Y222284D02*
X222740D01*
Y241968D01*
X203055D02*
X222740D01*
X203055Y222284D02*
Y241968D01*
X212524Y241890D02*
X222514Y231900D01*
X202457Y171417D02*
X222142D01*
X202457Y151732D02*
Y171417D01*
Y151732D02*
X222142D01*
Y171417D01*
X202683Y161801D02*
X212673Y151811D01*
X202457Y135984D02*
X222142D01*
X202457Y116299D02*
Y135984D01*
Y116299D02*
X222142D01*
Y135984D01*
X202683Y126368D02*
X212673Y116378D01*
X202457Y100551D02*
X222142D01*
X202457Y80866D02*
Y100551D01*
Y80866D02*
X222142D01*
Y100551D01*
X202683Y90935D02*
X212673Y80945D01*
X202457Y65118D02*
X222142D01*
X202457Y45433D02*
Y65118D01*
Y45433D02*
X222142D01*
Y65118D01*
X202683Y55502D02*
X212673Y45512D01*
X14079Y45118D02*
X33764D01*
Y64803D01*
X14079D02*
X33764D01*
X14079Y45118D02*
Y64803D01*
X23547Y64724D02*
X33537Y54734D01*
X14079Y80551D02*
X33764D01*
Y100236D01*
X14079D02*
X33764D01*
X14079Y80551D02*
Y100236D01*
X23547Y100157D02*
X33537Y90167D01*
X14079Y151417D02*
X33764D01*
Y171102D01*
X14079D02*
X33764D01*
X14079Y151417D02*
Y171102D01*
X23547Y171024D02*
X33537Y161033D01*
X14079Y115984D02*
X33764D01*
Y135669D01*
X14079D02*
X33764D01*
X14079Y115984D02*
Y135669D01*
X23547Y135591D02*
X33537Y125600D01*
X13480Y242284D02*
X33165D01*
X13480Y222598D02*
Y242284D01*
Y222598D02*
X33165D01*
Y242284D01*
X13707Y232667D02*
X23697Y222677D01*
X13480Y277716D02*
X33165D01*
X13480Y258032D02*
Y277716D01*
Y258032D02*
X33165D01*
Y277716D01*
X13707Y268100D02*
X23697Y258110D01*
X13480Y313150D02*
X33165D01*
X13480Y293465D02*
Y313150D01*
Y293465D02*
X33165D01*
Y313150D01*
X13707Y303534D02*
X23697Y293543D01*
X13480Y348583D02*
X33165D01*
X13480Y328898D02*
Y348583D01*
Y328898D02*
X33165D01*
Y348583D01*
X13707Y338966D02*
X23697Y328976D01*
X187165Y364472D02*
Y384157D01*
X167480D02*
X187165D01*
X167480Y364472D02*
Y384157D01*
Y364472D02*
X187165D01*
X167559Y373941D02*
X177549Y383931D01*
X147795Y364472D02*
Y384157D01*
X128110D02*
X147795D01*
X128110Y364472D02*
Y384157D01*
Y364472D02*
X147795D01*
X128189Y373941D02*
X138179Y383931D01*
X108425Y364472D02*
Y384157D01*
X88740D02*
X108425D01*
X88740Y364472D02*
Y384157D01*
Y364472D02*
X108425D01*
X88819Y373941D02*
X98809Y383931D01*
X69055Y364472D02*
Y384157D01*
X49370D02*
X69055D01*
X49370Y364472D02*
Y384157D01*
Y364472D02*
X69055D01*
X49449Y373941D02*
X59439Y383931D01*
X167165Y186709D02*
Y206394D01*
Y186709D02*
X186850D01*
Y206394D01*
X167165D02*
X186850D01*
X176781Y186935D02*
X186772Y196925D01*
X127795Y186709D02*
Y206394D01*
Y186709D02*
X147480D01*
Y206394D01*
X127795D02*
X147480D01*
X137411Y186935D02*
X147402Y196925D01*
X88425Y186709D02*
Y206394D01*
Y186709D02*
X108110D01*
Y206394D01*
X88425D02*
X108110D01*
X98041Y186935D02*
X108031Y196925D01*
X49055Y186709D02*
Y206394D01*
Y186709D02*
X68740D01*
Y206394D01*
X49055D02*
X68740D01*
X58671Y186935D02*
X68661Y196925D01*
X69055Y10142D02*
Y29827D01*
X49370D02*
X69055D01*
X49370Y10142D02*
Y29827D01*
Y10142D02*
X69055D01*
X49449Y19610D02*
X59439Y29600D01*
X108425Y10142D02*
Y29827D01*
X88740D02*
X108425D01*
X88740Y10142D02*
Y29827D01*
Y10142D02*
X108425D01*
X88819Y19610D02*
X98809Y29600D01*
X147795Y10142D02*
Y29827D01*
X128110D02*
X147795D01*
X128110Y10142D02*
Y29827D01*
Y10142D02*
X147795D01*
X128189Y19610D02*
X138179Y29600D01*
X187165Y10142D02*
Y29827D01*
X167480D02*
X187165D01*
X167480Y10142D02*
Y29827D01*
Y10142D02*
X187165D01*
X167559Y19610D02*
X177549Y29600D01*
D12*
X212598Y200713D02*
X228346Y216461D01*
X196850D02*
X212598Y200713D01*
X228346Y216461D02*
Y354256D01*
X196850Y216461D02*
Y354256D01*
X212598Y370004D01*
X228346Y354256D01*
X196850Y177240D02*
X212598Y192988D01*
X228346Y177240D01*
X196850Y39445D02*
Y177240D01*
X228346Y39445D02*
Y177240D01*
X212598Y23697D02*
X228346Y39445D01*
X196850D02*
X212598Y23697D01*
X7874Y177240D02*
X23622Y192988D01*
X39370Y177240D01*
X7874Y39445D02*
Y177240D01*
X39370Y39445D02*
Y177240D01*
X23622Y23697D02*
X39370Y39445D01*
X7874D02*
X23622Y23697D01*
Y370079D02*
X39370Y354331D01*
X7874D02*
X23622Y370079D01*
X7874Y216535D02*
Y354331D01*
X39370Y216535D02*
Y354331D01*
X7874Y216535D02*
X23622Y200787D01*
X39370Y216535D01*
X43307Y212598D02*
X192913D01*
X43307Y181102D02*
X192913D01*
X208661Y196850D01*
X192913Y212598D02*
X208661Y196850D01*
X27559D02*
X43307Y212598D01*
X27559Y196850D02*
X43307Y181102D01*
X27559Y374016D02*
X43307Y358268D01*
X27559Y374016D02*
X43307Y389764D01*
X192913D02*
X208661Y374016D01*
X192913Y358268D02*
X208661Y374016D01*
X43307Y358268D02*
X192913D01*
X43307Y389764D02*
X192913D01*
Y35433D02*
X208661Y19685D01*
X192913Y3937D02*
X208661Y19685D01*
X27559D02*
X43307Y3937D01*
X27559Y19685D02*
X43307Y35433D01*
X192913D01*
X43307Y3937D02*
X192913D01*
D13*
X208653Y164432D02*
Y160433D01*
X210652D01*
X211319Y161100D01*
Y163765D01*
X210652Y164432D01*
X208653D01*
X212651Y163765D02*
X213318Y164432D01*
X214651D01*
X215317Y163765D01*
Y163099D01*
X214651Y162432D01*
X213984D01*
X214651D01*
X215317Y161766D01*
Y161100D01*
X214651Y160433D01*
X213318D01*
X212651Y161100D01*
X216650Y163765D02*
X217317Y164432D01*
X218650D01*
X219316Y163765D01*
Y161100D01*
X218650Y160433D01*
X217317D01*
X216650Y161100D01*
Y163765D01*
X207521Y128582D02*
Y124583D01*
X209521D01*
X210187Y125250D01*
Y127916D01*
X209521Y128582D01*
X207521D01*
X214186Y124583D02*
X211520D01*
X214186Y127249D01*
Y127916D01*
X213519Y128582D01*
X212186D01*
X211520Y127916D01*
X215519Y125250D02*
X216185Y124583D01*
X217518D01*
X218184Y125250D01*
Y127916D01*
X217518Y128582D01*
X216185D01*
X215519Y127916D01*
Y127249D01*
X216185Y126583D01*
X218184D01*
X207521Y93182D02*
Y89183D01*
X209521D01*
X210187Y89850D01*
Y92516D01*
X209521Y93182D01*
X207521D01*
X214186Y89183D02*
X211520D01*
X214186Y91849D01*
Y92516D01*
X213519Y93182D01*
X212186D01*
X211520Y92516D01*
X215519D02*
X216185Y93182D01*
X217518D01*
X218184Y92516D01*
Y91849D01*
X217518Y91183D01*
X218184Y90516D01*
Y89850D01*
X217518Y89183D01*
X216185D01*
X215519Y89850D01*
Y90516D01*
X216185Y91183D01*
X215519Y91849D01*
Y92516D01*
X216185Y91183D02*
X217518D01*
X207521Y57782D02*
Y53784D01*
X209521D01*
X210187Y54450D01*
Y57116D01*
X209521Y57782D01*
X207521D01*
X214186Y53784D02*
X211520D01*
X214186Y56449D01*
Y57116D01*
X213519Y57782D01*
X212186D01*
X211520Y57116D01*
X215519Y57782D02*
X218184D01*
Y57116D01*
X215519Y54450D01*
Y53784D01*
X172859Y22198D02*
Y18199D01*
X174858D01*
X175525Y18866D01*
Y21531D01*
X174858Y22198D01*
X172859D01*
X179524Y18199D02*
X176858D01*
X179524Y20865D01*
Y21531D01*
X178857Y22198D01*
X177524D01*
X176858Y21531D01*
X183522Y22198D02*
X182189Y21531D01*
X180857Y20199D01*
Y18866D01*
X181523Y18199D01*
X182856D01*
X183522Y18866D01*
Y19532D01*
X182856Y20199D01*
X180857D01*
X133459Y22198D02*
Y18199D01*
X135458D01*
X136125Y18866D01*
Y21531D01*
X135458Y22198D01*
X133459D01*
X140124Y18199D02*
X137458D01*
X140124Y20865D01*
Y21531D01*
X139457Y22198D01*
X138124D01*
X137458Y21531D01*
X144122Y22198D02*
X141456D01*
Y20199D01*
X142789Y20865D01*
X143456D01*
X144122Y20199D01*
Y18866D01*
X143456Y18199D01*
X142123D01*
X141456Y18866D01*
X94159Y22198D02*
Y18199D01*
X96158D01*
X96825Y18866D01*
Y21531D01*
X96158Y22198D01*
X94159D01*
X100824Y18199D02*
X98158D01*
X100824Y20865D01*
Y21531D01*
X100157Y22198D01*
X98824D01*
X98158Y21531D01*
X104156Y18199D02*
Y22198D01*
X102156Y20199D01*
X104822D01*
X54759Y22198D02*
Y18199D01*
X56758D01*
X57425Y18866D01*
Y21531D01*
X56758Y22198D01*
X54759D01*
X61424Y18199D02*
X58758D01*
X61424Y20865D01*
Y21531D01*
X60757Y22198D01*
X59424D01*
X58758Y21531D01*
X62757D02*
X63423Y22198D01*
X64756D01*
X65422Y21531D01*
Y20865D01*
X64756Y20199D01*
X64089D01*
X64756D01*
X65422Y19532D01*
Y18866D01*
X64756Y18199D01*
X63423D01*
X62757Y18866D01*
X18163Y56803D02*
Y52805D01*
X20162D01*
X20829Y53471D01*
Y56137D01*
X20162Y56803D01*
X18163D01*
X24827Y52805D02*
X22162D01*
X24827Y55471D01*
Y56137D01*
X24161Y56803D01*
X22828D01*
X22162Y56137D01*
X28826Y52805D02*
X26160D01*
X28826Y55471D01*
Y56137D01*
X28160Y56803D01*
X26827D01*
X26160Y56137D01*
X18163Y92166D02*
Y88168D01*
X20162D01*
X20829Y88834D01*
Y91500D01*
X20162Y92166D01*
X18163D01*
X24827Y88168D02*
X22162D01*
X24827Y90833D01*
Y91500D01*
X24161Y92166D01*
X22828D01*
X22162Y91500D01*
X26160Y88168D02*
X27493D01*
X26827D01*
Y92166D01*
X26160Y91500D01*
X18163Y127629D02*
Y123631D01*
X20162D01*
X20829Y124297D01*
Y126963D01*
X20162Y127629D01*
X18163D01*
X24827Y123631D02*
X22162D01*
X24827Y126296D01*
Y126963D01*
X24161Y127629D01*
X22828D01*
X22162Y126963D01*
X26160D02*
X26827Y127629D01*
X28160D01*
X28826Y126963D01*
Y124297D01*
X28160Y123631D01*
X26827D01*
X26160Y124297D01*
Y126963D01*
X18163Y163092D02*
Y159094D01*
X20162D01*
X20829Y159760D01*
Y162426D01*
X20162Y163092D01*
X18163D01*
X22162Y159094D02*
X23495D01*
X22828D01*
Y163092D01*
X22162Y162426D01*
X25494Y159760D02*
X26160Y159094D01*
X27493D01*
X28160Y159760D01*
Y162426D01*
X27493Y163092D01*
X26160D01*
X25494Y162426D01*
Y161759D01*
X26160Y161093D01*
X28160D01*
X53822Y198735D02*
Y194736D01*
X55821D01*
X56488Y195403D01*
Y198068D01*
X55821Y198735D01*
X53822D01*
X57821Y194736D02*
X59154D01*
X58487D01*
Y198735D01*
X57821Y198068D01*
X61153D02*
X61819Y198735D01*
X63152D01*
X63819Y198068D01*
Y197402D01*
X63152Y196736D01*
X63819Y196069D01*
Y195403D01*
X63152Y194736D01*
X61819D01*
X61153Y195403D01*
Y196069D01*
X61819Y196736D01*
X61153Y197402D01*
Y198068D01*
X61819Y196736D02*
X63152D01*
X93122Y198735D02*
Y194736D01*
X95121D01*
X95788Y195403D01*
Y198068D01*
X95121Y198735D01*
X93122D01*
X97121Y194736D02*
X98454D01*
X97787D01*
Y198735D01*
X97121Y198068D01*
X100453Y198735D02*
X103119D01*
Y198068D01*
X100453Y195403D01*
Y194736D01*
X132522Y198735D02*
Y194736D01*
X134521D01*
X135188Y195403D01*
Y198068D01*
X134521Y198735D01*
X132522D01*
X136521Y194736D02*
X137854D01*
X137187D01*
Y198735D01*
X136521Y198068D01*
X142519Y198735D02*
X141186Y198068D01*
X139853Y196736D01*
Y195403D01*
X140519Y194736D01*
X141852D01*
X142519Y195403D01*
Y196069D01*
X141852Y196736D01*
X139853D01*
X171922Y198735D02*
Y194736D01*
X173921D01*
X174588Y195403D01*
Y198068D01*
X173921Y198735D01*
X171922D01*
X175921Y194736D02*
X177254D01*
X176587D01*
Y198735D01*
X175921Y198068D01*
X181919Y198735D02*
X179253D01*
Y196736D01*
X180586Y197402D01*
X181252D01*
X181919Y196736D01*
Y195403D01*
X181252Y194736D01*
X179920D01*
X179253Y195403D01*
X208121Y234940D02*
Y230942D01*
X210121D01*
X210787Y231608D01*
Y234274D01*
X210121Y234940D01*
X208121D01*
X212120Y230942D02*
X213453D01*
X212786D01*
Y234940D01*
X212120Y234274D01*
X217452Y230942D02*
Y234940D01*
X215452Y232941D01*
X218118D01*
X208121Y270303D02*
Y266305D01*
X210121D01*
X210787Y266971D01*
Y269637D01*
X210121Y270303D01*
X208121D01*
X212120Y266305D02*
X213453D01*
X212786D01*
Y270303D01*
X212120Y269637D01*
X215452D02*
X216119Y270303D01*
X217452D01*
X218118Y269637D01*
Y268970D01*
X217452Y268304D01*
X216785D01*
X217452D01*
X218118Y267638D01*
Y266971D01*
X217452Y266305D01*
X216119D01*
X215452Y266971D01*
X208121Y305766D02*
Y301768D01*
X210121D01*
X210787Y302434D01*
Y305100D01*
X210121Y305766D01*
X208121D01*
X212120Y301768D02*
X213453D01*
X212786D01*
Y305766D01*
X212120Y305100D01*
X218118Y301768D02*
X215452D01*
X218118Y304433D01*
Y305100D01*
X217452Y305766D01*
X216119D01*
X215452Y305100D01*
X208121Y341229D02*
Y337231D01*
X210121D01*
X210787Y337897D01*
Y340563D01*
X210121Y341229D01*
X208121D01*
X212120Y337231D02*
X213453D01*
X212786D01*
Y341229D01*
X212120Y340563D01*
X215452Y337231D02*
X216785D01*
X216119D01*
Y341229D01*
X215452Y340563D01*
X173542Y376535D02*
Y372536D01*
X175541D01*
X176208Y373203D01*
Y375869D01*
X175541Y376535D01*
X173542D01*
X177541Y372536D02*
X178874D01*
X178207D01*
Y376535D01*
X177541Y375869D01*
X180873D02*
X181539Y376535D01*
X182872D01*
X183539Y375869D01*
Y373203D01*
X182872Y372536D01*
X181539D01*
X180873Y373203D01*
Y375869D01*
X134142Y376535D02*
Y372536D01*
X136142D01*
X136808Y373203D01*
Y375869D01*
X136142Y376535D01*
X134142D01*
X138141Y373203D02*
X138807Y372536D01*
X140140D01*
X140807Y373203D01*
Y375869D01*
X140140Y376535D01*
X138807D01*
X138141Y375869D01*
Y375202D01*
X138807Y374536D01*
X140807D01*
X94742Y376535D02*
Y372536D01*
X96741D01*
X97408Y373203D01*
Y375869D01*
X96741Y376535D01*
X94742D01*
X98741Y375869D02*
X99407Y376535D01*
X100740D01*
X101407Y375869D01*
Y375202D01*
X100740Y374536D01*
X101407Y373869D01*
Y373203D01*
X100740Y372536D01*
X99407D01*
X98741Y373203D01*
Y373869D01*
X99407Y374536D01*
X98741Y375202D01*
Y375869D01*
X99407Y374536D02*
X100740D01*
X55342Y376535D02*
Y372536D01*
X57341D01*
X58008Y373203D01*
Y375869D01*
X57341Y376535D01*
X55342D01*
X59341D02*
X62007D01*
Y375869D01*
X59341Y373203D01*
Y372536D01*
X19693Y341177D02*
Y337178D01*
X21692D01*
X22359Y337844D01*
Y340510D01*
X21692Y341177D01*
X19693D01*
X26357D02*
X25025Y340510D01*
X23692Y339177D01*
Y337844D01*
X24358Y337178D01*
X25691D01*
X26357Y337844D01*
Y338511D01*
X25691Y339177D01*
X23692D01*
X19693Y305814D02*
Y301815D01*
X21692D01*
X22359Y302481D01*
Y305147D01*
X21692Y305814D01*
X19693D01*
X26357D02*
X23692D01*
Y303814D01*
X25025Y304481D01*
X25691D01*
X26357Y303814D01*
Y302481D01*
X25691Y301815D01*
X24358D01*
X23692Y302481D01*
X19693Y270351D02*
Y266352D01*
X21692D01*
X22359Y267018D01*
Y269684D01*
X21692Y270351D01*
X19693D01*
X25691Y266352D02*
Y270351D01*
X23692Y268351D01*
X26357D01*
X19693Y234888D02*
Y230889D01*
X21692D01*
X22359Y231555D01*
Y234221D01*
X21692Y234888D01*
X19693D01*
X23692Y234221D02*
X24358Y234888D01*
X25691D01*
X26357Y234221D01*
Y233555D01*
X25691Y232888D01*
X25025D01*
X25691D01*
X26357Y232222D01*
Y231555D01*
X25691Y230889D01*
X24358D01*
X23692Y231555D01*
X113858Y111194D02*
Y107195D01*
X115858D01*
X116524Y107862D01*
Y110528D01*
X115858Y111194D01*
X113858D01*
X120523Y107195D02*
X117857D01*
X120523Y109861D01*
Y110528D01*
X119856Y111194D01*
X118523D01*
X117857Y110528D01*
X113858Y288394D02*
Y284395D01*
X115858D01*
X116524Y285062D01*
Y287727D01*
X115858Y288394D01*
X113858D01*
X117857Y284395D02*
X119190D01*
X118523D01*
Y288394D01*
X117857Y287727D01*
M02*
