G04*
G04 #@! TF.GenerationSoftware,Altium Limited,Altium Designer,20.2.6 (244)*
G04*
G04 Layer_Physical_Order=1*
G04 Layer_Color=255*
%FSLAX25Y25*%
%MOIN*%
G70*
G04*
G04 #@! TF.SameCoordinates,5A4684AA-0BDD-4268-B9F4-3C1D46E6F2CF*
G04*
G04*
G04 #@! TF.FilePolarity,Positive*
G04*
G01*
G75*
%ADD12C,0.02000*%
%ADD14R,0.05512X0.03937*%
%ADD15R,0.03937X0.05512*%
%ADD16R,0.06693X0.03937*%
%ADD17R,0.06693X0.03937*%
G04:AMPARAMS|DCode=18|XSize=66.93mil|YSize=39.37mil|CornerRadius=9.84mil|HoleSize=0mil|Usage=FLASHONLY|Rotation=0.000|XOffset=0mil|YOffset=0mil|HoleType=Round|Shape=RoundedRectangle|*
%AMROUNDEDRECTD18*
21,1,0.06693,0.01968,0,0,0.0*
21,1,0.04724,0.03937,0,0,0.0*
1,1,0.01968,0.02362,-0.00984*
1,1,0.01968,-0.02362,-0.00984*
1,1,0.01968,-0.02362,0.00984*
1,1,0.01968,0.02362,0.00984*
%
%ADD18ROUNDEDRECTD18*%
%ADD19R,0.03937X0.06693*%
%ADD20R,0.03937X0.06693*%
G04:AMPARAMS|DCode=21|XSize=66.93mil|YSize=39.37mil|CornerRadius=9.84mil|HoleSize=0mil|Usage=FLASHONLY|Rotation=90.000|XOffset=0mil|YOffset=0mil|HoleType=Round|Shape=RoundedRectangle|*
%AMROUNDEDRECTD21*
21,1,0.06693,0.01968,0,0,90.0*
21,1,0.04724,0.03937,0,0,90.0*
1,1,0.01968,0.00984,0.02362*
1,1,0.01968,0.00984,-0.02362*
1,1,0.01968,-0.00984,-0.02362*
1,1,0.01968,-0.00984,0.02362*
%
%ADD21ROUNDEDRECTD21*%
%ADD34C,0.05906*%
%ADD35R,0.05906X0.05906*%
%ADD36C,0.06000*%
%ADD37C,0.03000*%
G36*
X224360Y392038D02*
X226232Y391588D01*
X228010Y390851D01*
X229651Y389846D01*
X231115Y388596D01*
X232365Y387132D01*
X233371Y385490D01*
X234108Y383712D01*
X234557Y381840D01*
X234692Y380128D01*
X234651Y379921D01*
Y13780D01*
X234692Y13573D01*
X234557Y11861D01*
X234108Y9989D01*
X233371Y8210D01*
X232365Y6569D01*
X231115Y5105D01*
X229651Y3855D01*
X228010Y2849D01*
X226232Y2113D01*
X224360Y1663D01*
X222648Y1528D01*
X222441Y1570D01*
X13780D01*
X13573Y1528D01*
X11861Y1663D01*
X9989Y2113D01*
X8210Y2849D01*
X6569Y3855D01*
X5105Y5105D01*
X3855Y6569D01*
X2849Y8210D01*
X2113Y9989D01*
X1663Y11861D01*
X1528Y13573D01*
X1570Y13780D01*
Y379921D01*
X1528Y380128D01*
X1663Y381840D01*
X2113Y383712D01*
X2849Y385490D01*
X3855Y387132D01*
X5105Y388596D01*
X6569Y389846D01*
X8210Y390851D01*
X9989Y391588D01*
X11861Y392038D01*
X13573Y392172D01*
X13780Y392131D01*
X222441D01*
X222648Y392172D01*
X224360Y392038D01*
D02*
G37*
%LPC*%
G36*
X171512Y383984D02*
X162819D01*
Y383055D01*
X161881D01*
X161408Y383371D01*
X160433Y383565D01*
X159458Y383371D01*
X158631Y382818D01*
X158078Y381991D01*
X157884Y381016D01*
X158078Y380040D01*
X158631Y379213D01*
X159458Y378661D01*
X160433Y378467D01*
X161408Y378661D01*
X161881Y378977D01*
X162819D01*
Y378047D01*
X171512D01*
Y383984D01*
D02*
G37*
G36*
X132142D02*
X123449D01*
Y383055D01*
X122613D01*
X122140Y383371D01*
X121164Y383565D01*
X120189Y383371D01*
X119362Y382818D01*
X118809Y381991D01*
X118615Y381016D01*
X118809Y380040D01*
X119362Y379213D01*
X120189Y378661D01*
X121164Y378467D01*
X122140Y378661D01*
X122613Y378977D01*
X123449D01*
Y378047D01*
X132142D01*
Y383984D01*
D02*
G37*
G36*
X92772D02*
X84079D01*
Y383055D01*
X83400D01*
X82928Y383371D01*
X81952Y383565D01*
X80977Y383371D01*
X80150Y382818D01*
X79597Y381991D01*
X79403Y381016D01*
X79597Y380040D01*
X80150Y379213D01*
X80977Y378661D01*
X81952Y378467D01*
X82928Y378661D01*
X83400Y378977D01*
X84079D01*
Y378047D01*
X92772D01*
Y383984D01*
D02*
G37*
G36*
X53402D02*
X44709D01*
Y383055D01*
X43881D01*
X43409Y383371D01*
X42433Y383565D01*
X41458Y383371D01*
X40631Y382818D01*
X40078Y381991D01*
X39884Y381016D01*
X40078Y380040D01*
X40631Y379213D01*
X41458Y378661D01*
X42433Y378467D01*
X43409Y378661D01*
X43881Y378977D01*
X44709D01*
Y378047D01*
X53402D01*
Y383984D01*
D02*
G37*
G36*
X222441Y386860D02*
X221087Y386727D01*
X219785Y386332D01*
X218586Y385691D01*
X217534Y384828D01*
X216671Y383776D01*
X216030Y382577D01*
X215635Y381275D01*
X215502Y379921D01*
X215635Y378568D01*
X216030Y377266D01*
X216671Y376066D01*
X217534Y375015D01*
X218586Y374152D01*
X219785Y373511D01*
X221087Y373116D01*
X222441Y372982D01*
X223795Y373116D01*
X225096Y373511D01*
X226296Y374152D01*
X227347Y375015D01*
X228210Y376066D01*
X228852Y377266D01*
X229246Y378568D01*
X229380Y379921D01*
X229246Y381275D01*
X228852Y382577D01*
X228210Y383776D01*
X227347Y384828D01*
X226296Y385691D01*
X225096Y386332D01*
X223795Y386727D01*
X222441Y386860D01*
D02*
G37*
G36*
X13780D02*
X12426Y386727D01*
X11124Y386332D01*
X9924Y385691D01*
X8873Y384828D01*
X8010Y383776D01*
X7369Y382577D01*
X6974Y381275D01*
X6841Y379921D01*
X6974Y378568D01*
X7369Y377266D01*
X8010Y376066D01*
X8873Y375015D01*
X9924Y374152D01*
X11124Y373511D01*
X12426Y373116D01*
X13780Y372982D01*
X15133Y373116D01*
X16435Y373511D01*
X17635Y374152D01*
X18686Y375015D01*
X19549Y376066D01*
X20190Y377266D01*
X20585Y378568D01*
X20719Y379921D01*
X20585Y381275D01*
X20190Y382577D01*
X19549Y383776D01*
X18686Y384828D01*
X17635Y385691D01*
X16435Y386332D01*
X15133Y386727D01*
X13780Y386860D01*
D02*
G37*
G36*
X189527Y370513D02*
X187915D01*
Y368766D01*
X191041D01*
Y369000D01*
X190926Y369579D01*
X190598Y370070D01*
X190107Y370398D01*
X189527Y370513D01*
D02*
G37*
G36*
X150157D02*
X148545D01*
Y368766D01*
X151671D01*
Y369000D01*
X151556Y369579D01*
X151228Y370070D01*
X150737Y370398D01*
X150157Y370513D01*
D02*
G37*
G36*
X110787D02*
X109175D01*
Y368766D01*
X112301D01*
Y369000D01*
X112186Y369579D01*
X111857Y370070D01*
X111366Y370398D01*
X110787Y370513D01*
D02*
G37*
G36*
X71417D02*
X69805D01*
Y368766D01*
X72931D01*
Y369000D01*
X72815Y369579D01*
X72487Y370070D01*
X71996Y370398D01*
X71417Y370513D01*
D02*
G37*
G36*
X147045D02*
X145433D01*
X144854Y370398D01*
X144363Y370070D01*
X144035Y369579D01*
X143920Y369000D01*
Y368766D01*
X147045D01*
Y370513D01*
D02*
G37*
G36*
X107675D02*
X106063D01*
X105484Y370398D01*
X104993Y370070D01*
X104665Y369579D01*
X104550Y369000D01*
Y368766D01*
X107675D01*
Y370513D01*
D02*
G37*
G36*
X68305D02*
X66693D01*
X66114Y370398D01*
X65623Y370070D01*
X65295Y369579D01*
X65180Y369000D01*
Y368766D01*
X68305D01*
Y370513D01*
D02*
G37*
G36*
X186415D02*
X184803D01*
X184224Y370398D01*
X183733Y370070D01*
X183405Y369579D01*
X183290Y369000D01*
Y368766D01*
X186415D01*
Y370513D01*
D02*
G37*
G36*
X191041Y367266D02*
X187915D01*
Y365518D01*
X189527D01*
X190107Y365633D01*
X190598Y365961D01*
X190926Y366452D01*
X191041Y367032D01*
Y367266D01*
D02*
G37*
G36*
X186415D02*
X183290D01*
Y367032D01*
X183405Y366452D01*
X183733Y365961D01*
X184224Y365633D01*
X184803Y365518D01*
X186415D01*
Y367266D01*
D02*
G37*
G36*
X151671D02*
X148545D01*
Y365518D01*
X150157D01*
X150737Y365633D01*
X151228Y365961D01*
X151556Y366452D01*
X151671Y367032D01*
Y367266D01*
D02*
G37*
G36*
X147045D02*
X143920D01*
Y367032D01*
X144035Y366452D01*
X144363Y365961D01*
X144854Y365633D01*
X145433Y365518D01*
X147045D01*
Y367266D01*
D02*
G37*
G36*
X112301D02*
X109175D01*
Y365518D01*
X110787D01*
X111366Y365633D01*
X111857Y365961D01*
X112186Y366452D01*
X112301Y367032D01*
Y367266D01*
D02*
G37*
G36*
X107675D02*
X104550D01*
Y367032D01*
X104665Y366452D01*
X104993Y365961D01*
X105484Y365633D01*
X106063Y365518D01*
X107675D01*
Y367266D01*
D02*
G37*
G36*
X72931D02*
X69805D01*
Y365518D01*
X71417D01*
X71996Y365633D01*
X72487Y365961D01*
X72815Y366452D01*
X72931Y367032D01*
Y367266D01*
D02*
G37*
G36*
X68305D02*
X65180D01*
Y367032D01*
X65295Y366452D01*
X65623Y365961D01*
X66114Y365633D01*
X66693Y365518D01*
X68305D01*
Y367266D01*
D02*
G37*
G36*
X152142Y383984D02*
X143449D01*
Y378047D01*
X147880D01*
X159353Y366574D01*
X160015Y366132D01*
X160795Y365977D01*
X160795Y365977D01*
X162819D01*
Y365047D01*
X171512D01*
Y370984D01*
X162819D01*
Y370055D01*
X161640D01*
X152142Y379553D01*
Y383984D01*
D02*
G37*
G36*
X112772D02*
X104079D01*
Y378047D01*
X108510D01*
X119983Y366574D01*
X120645Y366132D01*
X121425Y365977D01*
X121425Y365977D01*
X123449D01*
Y365047D01*
X132142D01*
Y370984D01*
X123449D01*
Y370055D01*
X122270D01*
X112772Y379553D01*
Y383984D01*
D02*
G37*
G36*
X73402D02*
X64709D01*
Y378047D01*
X69140D01*
X80613Y366574D01*
X81275Y366132D01*
X82055Y365977D01*
X82055Y365977D01*
X84079D01*
Y365047D01*
X92772D01*
Y370984D01*
X84079D01*
Y370055D01*
X82900D01*
X73402Y379553D01*
Y383984D01*
D02*
G37*
G36*
X53402Y370984D02*
X44709D01*
Y370055D01*
X36055D01*
X35275Y369900D01*
X34613Y369458D01*
X18085Y352929D01*
X13654D01*
Y344236D01*
X19590D01*
Y348667D01*
X36900Y365977D01*
X44709D01*
Y365047D01*
X53402D01*
Y370984D01*
D02*
G37*
G36*
X147843Y355618D02*
X146124D01*
Y353112D01*
X147843D01*
Y355618D01*
D02*
G37*
G36*
X108472D02*
X106754D01*
Y353112D01*
X108472D01*
Y355618D01*
D02*
G37*
G36*
X105254D02*
X103535D01*
Y353112D01*
X105254D01*
Y355618D01*
D02*
G37*
G36*
X144624D02*
X142905D01*
Y353112D01*
X144624D01*
Y355618D01*
D02*
G37*
G36*
X187045D02*
X185327D01*
Y353112D01*
X187045D01*
Y355618D01*
D02*
G37*
G36*
X69102D02*
X67384D01*
Y353112D01*
X69102D01*
Y355618D01*
D02*
G37*
G36*
X183827D02*
X182108D01*
Y353112D01*
X183827D01*
Y355618D01*
D02*
G37*
G36*
X65884D02*
X64165D01*
Y353112D01*
X65884D01*
Y355618D01*
D02*
G37*
G36*
X30606Y352458D02*
X30372D01*
Y349333D01*
X32120D01*
Y350945D01*
X32004Y351524D01*
X31676Y352015D01*
X31185Y352343D01*
X30606Y352458D01*
D02*
G37*
G36*
X28872D02*
X28638D01*
X28059Y352343D01*
X27568Y352015D01*
X27240Y351524D01*
X27125Y350945D01*
Y349333D01*
X28872D01*
Y352458D01*
D02*
G37*
G36*
X187045Y351612D02*
X185327D01*
Y349106D01*
X187045D01*
Y351612D01*
D02*
G37*
G36*
X183827D02*
X182108D01*
Y349106D01*
X183827D01*
Y351612D01*
D02*
G37*
G36*
X147843Y351612D02*
X146124D01*
Y349106D01*
X147843D01*
Y351612D01*
D02*
G37*
G36*
X144624D02*
X142905D01*
Y349106D01*
X144624D01*
Y351612D01*
D02*
G37*
G36*
X108472D02*
X106754D01*
Y349106D01*
X108472D01*
Y351612D01*
D02*
G37*
G36*
X105254D02*
X103535D01*
Y349106D01*
X105254D01*
Y351612D01*
D02*
G37*
G36*
X69102Y351612D02*
X67384D01*
Y349106D01*
X69102D01*
Y351612D01*
D02*
G37*
G36*
X65884D02*
X64165D01*
Y349106D01*
X65884D01*
Y351612D01*
D02*
G37*
G36*
X177293Y364127D02*
X176318Y363933D01*
X175491Y363380D01*
X174938Y362553D01*
X174744Y361578D01*
X174938Y360602D01*
X175254Y360130D01*
Y356118D01*
X174325D01*
Y348606D01*
X180262D01*
Y356118D01*
X179332D01*
Y360130D01*
X179648Y360602D01*
X179842Y361578D01*
X179648Y362553D01*
X179095Y363380D01*
X178269Y363933D01*
X177293Y364127D01*
D02*
G37*
G36*
X138091Y364255D02*
X137115Y364060D01*
X136288Y363508D01*
X135736Y362681D01*
X135542Y361706D01*
X135736Y360730D01*
X136051Y360258D01*
Y356118D01*
X135122D01*
Y348606D01*
X141059D01*
Y356118D01*
X140130D01*
Y360258D01*
X140445Y360730D01*
X140639Y361706D01*
X140445Y362681D01*
X139893Y363508D01*
X139066Y364060D01*
X138091Y364255D01*
D02*
G37*
G36*
X98721Y363770D02*
X97745Y363575D01*
X96918Y363023D01*
X96365Y362196D01*
X96171Y361221D01*
X96365Y360245D01*
X96681Y359772D01*
Y356118D01*
X95752D01*
Y348606D01*
X101689D01*
Y356118D01*
X100760D01*
Y359772D01*
X101075Y360245D01*
X101269Y361221D01*
X101075Y362196D01*
X100523Y363023D01*
X99696Y363575D01*
X98721Y363770D01*
D02*
G37*
G36*
X59350Y364065D02*
X58375Y363871D01*
X57548Y363318D01*
X56995Y362491D01*
X56801Y361516D01*
X56995Y360540D01*
X57311Y360068D01*
Y356118D01*
X56382D01*
Y348606D01*
X62319D01*
Y356118D01*
X61390D01*
Y360068D01*
X61705Y360540D01*
X61899Y361516D01*
X61705Y362491D01*
X61153Y363318D01*
X60326Y363871D01*
X59350Y364065D01*
D02*
G37*
G36*
X48531Y348630D02*
X46026D01*
Y346912D01*
X48531D01*
Y348630D01*
D02*
G37*
G36*
X44526D02*
X42020D01*
Y346912D01*
X44526D01*
Y348630D01*
D02*
G37*
G36*
X32120Y347833D02*
X30372D01*
Y344707D01*
X30606D01*
X31185Y344822D01*
X31676Y345150D01*
X32004Y345641D01*
X32120Y346220D01*
Y347833D01*
D02*
G37*
G36*
X28872D02*
X27125D01*
Y346220D01*
X27240Y345641D01*
X27568Y345150D01*
X28059Y344822D01*
X28638Y344707D01*
X28872D01*
Y347833D01*
D02*
G37*
G36*
X219598Y357677D02*
X218623Y357483D01*
X217796Y356930D01*
X217244Y356103D01*
X217049Y355128D01*
X217244Y354152D01*
X217559Y353680D01*
Y352929D01*
X216630D01*
Y344236D01*
X222567D01*
Y352929D01*
X221638D01*
Y353680D01*
X221953Y354152D01*
X222147Y355128D01*
X221953Y356103D01*
X221401Y356930D01*
X220574Y357483D01*
X219598Y357677D01*
D02*
G37*
G36*
X191512Y383984D02*
X182819D01*
Y378047D01*
X187250D01*
X204559Y360738D01*
Y352929D01*
X203630D01*
Y344236D01*
X209567D01*
Y352929D01*
X208638D01*
Y361583D01*
X208638Y361583D01*
X208482Y362363D01*
X208040Y363025D01*
X208040Y363025D01*
X191512Y379553D01*
Y383984D01*
D02*
G37*
G36*
X48531Y345411D02*
X46026D01*
Y343693D01*
X48531D01*
Y345411D01*
D02*
G37*
G36*
X44526D02*
X42020D01*
Y343693D01*
X44526D01*
Y345411D01*
D02*
G37*
G36*
X49031Y341846D02*
X41520D01*
Y340917D01*
X37176D01*
X36704Y341233D01*
X35728Y341427D01*
X34753Y341233D01*
X33926Y340680D01*
X33373Y339853D01*
X33179Y338878D01*
X33373Y337902D01*
X33926Y337076D01*
X34753Y336523D01*
X35728Y336329D01*
X36704Y336523D01*
X37176Y336839D01*
X41520D01*
Y335910D01*
X49031D01*
Y341846D01*
D02*
G37*
G36*
X194701Y341256D02*
X187189D01*
Y335319D01*
X194701D01*
Y336248D01*
X198650D01*
X199123Y335932D01*
X200098Y335738D01*
X201074Y335932D01*
X201901Y336485D01*
X202453Y337312D01*
X202647Y338287D01*
X202453Y339263D01*
X201901Y340090D01*
X201074Y340642D01*
X200098Y340836D01*
X199123Y340642D01*
X198650Y340327D01*
X194701D01*
Y341256D01*
D02*
G37*
G36*
X194201Y333472D02*
X191695D01*
Y331754D01*
X194201D01*
Y333472D01*
D02*
G37*
G36*
X190195D02*
X187689D01*
Y331754D01*
X190195D01*
Y333472D01*
D02*
G37*
G36*
X207583Y332458D02*
X207348D01*
Y329333D01*
X209096D01*
Y330945D01*
X208981Y331524D01*
X208653Y332015D01*
X208162Y332343D01*
X207583Y332458D01*
D02*
G37*
G36*
X205848D02*
X205614D01*
X205035Y332343D01*
X204544Y332015D01*
X204216Y331524D01*
X204101Y330945D01*
Y329333D01*
X205848D01*
Y332458D01*
D02*
G37*
G36*
X194201Y330254D02*
X191695D01*
Y328535D01*
X194201D01*
Y330254D01*
D02*
G37*
G36*
X190195D02*
X187689D01*
Y328535D01*
X190195D01*
Y330254D01*
D02*
G37*
G36*
X209096Y327833D02*
X207348D01*
Y324707D01*
X207583D01*
X208162Y324822D01*
X208653Y325150D01*
X208981Y325641D01*
X209096Y326220D01*
Y327833D01*
D02*
G37*
G36*
X205848D02*
X204101D01*
Y326220D01*
X204216Y325641D01*
X204544Y325150D01*
X205035Y324822D01*
X205614Y324707D01*
X205848D01*
Y327833D01*
D02*
G37*
G36*
X19590Y332929D02*
X13654D01*
Y324236D01*
X14583D01*
Y322501D01*
X14267Y322029D01*
X14073Y321053D01*
X14267Y320078D01*
X14820Y319251D01*
X15647Y318698D01*
X16622Y318504D01*
X17597Y318698D01*
X18424Y319251D01*
X18977Y320078D01*
X19171Y321053D01*
X18977Y322029D01*
X18661Y322501D01*
Y324236D01*
X19590D01*
Y332929D01*
D02*
G37*
G36*
X30606Y317025D02*
X30372D01*
Y313900D01*
X32120D01*
Y315512D01*
X32004Y316091D01*
X31676Y316582D01*
X31185Y316910D01*
X30606Y317025D01*
D02*
G37*
G36*
X28872D02*
X28638D01*
X28059Y316910D01*
X27568Y316582D01*
X27240Y316091D01*
X27125Y315512D01*
Y313900D01*
X28872D01*
Y317025D01*
D02*
G37*
G36*
X48531Y313197D02*
X46026D01*
Y311478D01*
X48531D01*
Y313197D01*
D02*
G37*
G36*
X44526D02*
X42020D01*
Y311478D01*
X44526D01*
Y313197D01*
D02*
G37*
G36*
X32120Y312400D02*
X30372D01*
Y309274D01*
X30606D01*
X31185Y309389D01*
X31676Y309717D01*
X32004Y310208D01*
X32120Y310787D01*
Y312400D01*
D02*
G37*
G36*
X28872D02*
X27125D01*
Y310787D01*
X27240Y310208D01*
X27568Y309717D01*
X28059Y309389D01*
X28638Y309274D01*
X28872D01*
Y312400D01*
D02*
G37*
G36*
X219598Y323415D02*
X218623Y323221D01*
X217796Y322669D01*
X217244Y321842D01*
X217049Y320866D01*
X217244Y319891D01*
X217559Y319418D01*
Y317496D01*
X216630D01*
Y308803D01*
X222567D01*
Y317496D01*
X221638D01*
Y319418D01*
X221953Y319891D01*
X222147Y320866D01*
X221953Y321842D01*
X221401Y322669D01*
X220574Y323221D01*
X219598Y323415D01*
D02*
G37*
G36*
X222567Y332929D02*
X216630D01*
Y328498D01*
X205628Y317496D01*
X203630D01*
Y308803D01*
X209567D01*
Y315667D01*
X218136Y324236D01*
X222567D01*
Y332929D01*
D02*
G37*
G36*
X32591D02*
X26654D01*
Y326065D01*
X18085Y317496D01*
X13654D01*
Y308803D01*
X19590D01*
Y313234D01*
X30593Y324236D01*
X32591D01*
Y332929D01*
D02*
G37*
G36*
X48531Y309978D02*
X46026D01*
Y308260D01*
X48531D01*
Y309978D01*
D02*
G37*
G36*
X44526D02*
X42020D01*
Y308260D01*
X44526D01*
Y309978D01*
D02*
G37*
G36*
X49031Y306413D02*
X41520D01*
Y305484D01*
X37570D01*
X37097Y305800D01*
X36122Y305994D01*
X35147Y305800D01*
X34320Y305247D01*
X33767Y304420D01*
X33573Y303445D01*
X33767Y302469D01*
X34320Y301642D01*
X35147Y301090D01*
X36122Y300896D01*
X37097Y301090D01*
X37570Y301406D01*
X41520D01*
Y300476D01*
X49031D01*
Y306413D01*
D02*
G37*
G36*
X194701Y305823D02*
X187189D01*
Y299886D01*
X194701D01*
Y300815D01*
X198650D01*
X199123Y300499D01*
X200098Y300305D01*
X201074Y300499D01*
X201901Y301052D01*
X202453Y301879D01*
X202647Y302854D01*
X202453Y303830D01*
X201901Y304657D01*
X201074Y305209D01*
X200098Y305403D01*
X199123Y305209D01*
X198650Y304893D01*
X194701D01*
Y305823D01*
D02*
G37*
G36*
X194201Y298039D02*
X191695D01*
Y296321D01*
X194201D01*
Y298039D01*
D02*
G37*
G36*
X190195D02*
X187689D01*
Y296321D01*
X190195D01*
Y298039D01*
D02*
G37*
G36*
X207583Y297025D02*
X207348D01*
Y293900D01*
X209096D01*
Y295512D01*
X208981Y296091D01*
X208653Y296582D01*
X208162Y296910D01*
X207583Y297025D01*
D02*
G37*
G36*
X205848D02*
X205614D01*
X205035Y296910D01*
X204544Y296582D01*
X204216Y296091D01*
X204101Y295512D01*
Y293900D01*
X205848D01*
Y297025D01*
D02*
G37*
G36*
X132457Y294402D02*
X123764D01*
Y293472D01*
X121385D01*
X121054Y293693D01*
X120079Y293888D01*
X119103Y293693D01*
X118276Y293141D01*
X117724Y292314D01*
X117530Y291339D01*
X117724Y290363D01*
X118276Y289536D01*
X119103Y288984D01*
X120079Y288790D01*
X121054Y288984D01*
X121668Y289394D01*
X123764D01*
Y288465D01*
X132457D01*
Y294402D01*
D02*
G37*
G36*
X194201Y294821D02*
X191695D01*
Y293102D01*
X194201D01*
Y294821D01*
D02*
G37*
G36*
X190195D02*
X187689D01*
Y293102D01*
X190195D01*
Y294821D01*
D02*
G37*
G36*
X110472Y293931D02*
X108860D01*
Y292183D01*
X111986D01*
Y292417D01*
X111871Y292997D01*
X111542Y293487D01*
X111052Y293815D01*
X110472Y293931D01*
D02*
G37*
G36*
X107360D02*
X105748D01*
X105169Y293815D01*
X104678Y293487D01*
X104350Y292997D01*
X104235Y292417D01*
Y292183D01*
X107360D01*
Y293931D01*
D02*
G37*
G36*
X209096Y292400D02*
X207348D01*
Y289274D01*
X207583D01*
X208162Y289389D01*
X208653Y289717D01*
X208981Y290208D01*
X209096Y290787D01*
Y292400D01*
D02*
G37*
G36*
X205848D02*
X204101D01*
Y290787D01*
X204216Y290208D01*
X204544Y289717D01*
X205035Y289389D01*
X205614Y289274D01*
X205848D01*
Y292400D01*
D02*
G37*
G36*
X111986Y290683D02*
X108860D01*
Y288935D01*
X110472D01*
X111052Y289051D01*
X111542Y289379D01*
X111871Y289870D01*
X111986Y290449D01*
Y290683D01*
D02*
G37*
G36*
X107360D02*
X104235D01*
Y290449D01*
X104350Y289870D01*
X104678Y289379D01*
X105169Y289051D01*
X105748Y288935D01*
X107360D01*
Y290683D01*
D02*
G37*
G36*
X141051Y288591D02*
X138545D01*
Y286872D01*
X141051D01*
Y288591D01*
D02*
G37*
G36*
X137045D02*
X134539D01*
Y286872D01*
X137045D01*
Y288591D01*
D02*
G37*
G36*
X141051Y285372D02*
X138545D01*
Y283653D01*
X141051D01*
Y285372D01*
D02*
G37*
G36*
X137045D02*
X134539D01*
Y283653D01*
X137045D01*
Y285372D01*
D02*
G37*
G36*
X19590Y297496D02*
X13654D01*
Y288803D01*
X14583D01*
Y287068D01*
X14267Y286596D01*
X14073Y285620D01*
X14267Y284645D01*
X14820Y283818D01*
X15647Y283265D01*
X16622Y283071D01*
X17597Y283265D01*
X18424Y283818D01*
X18977Y284645D01*
X19171Y285620D01*
X18977Y286596D01*
X18661Y287068D01*
Y288803D01*
X19590D01*
Y297496D01*
D02*
G37*
G36*
X141551Y281807D02*
X134039D01*
Y280472D01*
X132457D01*
Y281402D01*
X123764D01*
Y275465D01*
X126071D01*
Y273259D01*
X125755Y272786D01*
X125561Y271811D01*
X125755Y270836D01*
X126308Y270009D01*
X127135Y269456D01*
X128110Y269262D01*
X129086Y269456D01*
X129913Y270009D01*
X130465Y270836D01*
X130659Y271811D01*
X130465Y272786D01*
X130149Y273259D01*
Y275465D01*
X132457D01*
Y276394D01*
X134039D01*
Y275870D01*
X141551D01*
Y281807D01*
D02*
G37*
G36*
X30606Y281592D02*
X30372D01*
Y278467D01*
X32120D01*
Y280079D01*
X32004Y280658D01*
X31676Y281149D01*
X31185Y281477D01*
X30606Y281592D01*
D02*
G37*
G36*
X28872D02*
X28638D01*
X28059Y281477D01*
X27568Y281149D01*
X27240Y280658D01*
X27125Y280079D01*
Y278467D01*
X28872D01*
Y281592D01*
D02*
G37*
G36*
X48531Y277764D02*
X46026D01*
Y276045D01*
X48531D01*
Y277764D01*
D02*
G37*
G36*
X44526D02*
X42020D01*
Y276045D01*
X44526D01*
Y277764D01*
D02*
G37*
G36*
X32120Y276967D02*
X30372D01*
Y273841D01*
X30606D01*
X31185Y273956D01*
X31676Y274284D01*
X32004Y274775D01*
X32120Y275354D01*
Y276967D01*
D02*
G37*
G36*
X28872D02*
X27125D01*
Y275354D01*
X27240Y274775D01*
X27568Y274284D01*
X28059Y273956D01*
X28638Y273841D01*
X28872D01*
Y276967D01*
D02*
G37*
G36*
X219598Y287872D02*
X218623Y287678D01*
X217796Y287125D01*
X217244Y286298D01*
X217049Y285323D01*
X217244Y284347D01*
X217559Y283875D01*
Y282063D01*
X216630D01*
Y273370D01*
X222567D01*
Y282063D01*
X221638D01*
Y283875D01*
X221953Y284347D01*
X222147Y285323D01*
X221953Y286298D01*
X221401Y287125D01*
X220574Y287678D01*
X219598Y287872D01*
D02*
G37*
G36*
X222567Y297496D02*
X216630D01*
Y293065D01*
X205628Y282063D01*
X203630D01*
Y273370D01*
X209567D01*
Y280234D01*
X218136Y288803D01*
X222567D01*
Y297496D01*
D02*
G37*
G36*
X32591D02*
X26654D01*
Y290632D01*
X18085Y282063D01*
X13654D01*
Y273370D01*
X19590D01*
Y277801D01*
X30593Y288803D01*
X32591D01*
Y297496D01*
D02*
G37*
G36*
X48531Y274545D02*
X46026D01*
Y272827D01*
X48531D01*
Y274545D01*
D02*
G37*
G36*
X44526D02*
X42020D01*
Y272827D01*
X44526D01*
Y274545D01*
D02*
G37*
G36*
X49031Y270980D02*
X41520D01*
Y270051D01*
X37176D01*
X36704Y270367D01*
X35728Y270561D01*
X34753Y270367D01*
X33926Y269814D01*
X33373Y268987D01*
X33179Y268012D01*
X33373Y267036D01*
X33926Y266209D01*
X34753Y265657D01*
X35728Y265463D01*
X36704Y265657D01*
X37176Y265973D01*
X41520D01*
Y265043D01*
X49031D01*
Y270980D01*
D02*
G37*
G36*
X194701Y270390D02*
X187189D01*
Y264453D01*
X194701D01*
Y265382D01*
X198355D01*
X198828Y265066D01*
X199803Y264872D01*
X200779Y265066D01*
X201606Y265619D01*
X202158Y266446D01*
X202352Y267421D01*
X202158Y268397D01*
X201606Y269224D01*
X200779Y269776D01*
X199803Y269970D01*
X198828Y269776D01*
X198355Y269460D01*
X194701D01*
Y270390D01*
D02*
G37*
G36*
X194201Y262606D02*
X191695D01*
Y260888D01*
X194201D01*
Y262606D01*
D02*
G37*
G36*
X190195D02*
X187689D01*
Y260888D01*
X190195D01*
Y262606D01*
D02*
G37*
G36*
X207583Y261592D02*
X207348D01*
Y258467D01*
X209096D01*
Y260079D01*
X208981Y260658D01*
X208653Y261149D01*
X208162Y261477D01*
X207583Y261592D01*
D02*
G37*
G36*
X205849D02*
X205614D01*
X205035Y261477D01*
X204544Y261149D01*
X204216Y260658D01*
X204101Y260079D01*
Y258467D01*
X205849D01*
Y261592D01*
D02*
G37*
G36*
X194201Y259388D02*
X191695D01*
Y257669D01*
X194201D01*
Y259388D01*
D02*
G37*
G36*
X190195D02*
X187689D01*
Y257669D01*
X190195D01*
Y259388D01*
D02*
G37*
G36*
X209096Y256967D02*
X207348D01*
Y253841D01*
X207583D01*
X208162Y253956D01*
X208653Y254284D01*
X208981Y254775D01*
X209096Y255354D01*
Y256967D01*
D02*
G37*
G36*
X205849D02*
X204101D01*
Y255354D01*
X204216Y254775D01*
X204544Y254284D01*
X205035Y253956D01*
X205614Y253841D01*
X205849D01*
Y256967D01*
D02*
G37*
G36*
X19590Y262063D02*
X13654D01*
Y253370D01*
X14583D01*
Y252011D01*
X14267Y251539D01*
X14073Y250563D01*
X14267Y249588D01*
X14820Y248761D01*
X15647Y248208D01*
X16622Y248014D01*
X17597Y248208D01*
X18424Y248761D01*
X18977Y249588D01*
X19171Y250563D01*
X18977Y251539D01*
X18661Y252011D01*
Y253370D01*
X19590D01*
Y262063D01*
D02*
G37*
G36*
X30606Y246159D02*
X30372D01*
Y243033D01*
X32120D01*
Y244646D01*
X32004Y245225D01*
X31676Y245716D01*
X31185Y246044D01*
X30606Y246159D01*
D02*
G37*
G36*
X28872D02*
X28638D01*
X28059Y246044D01*
X27568Y245716D01*
X27240Y245225D01*
X27125Y244646D01*
Y243033D01*
X28872D01*
Y246159D01*
D02*
G37*
G36*
X48531Y242331D02*
X46026D01*
Y240612D01*
X48531D01*
Y242331D01*
D02*
G37*
G36*
X44526D02*
X42020D01*
Y240612D01*
X44526D01*
Y242331D01*
D02*
G37*
G36*
X32120Y241533D02*
X30372D01*
Y238408D01*
X30606D01*
X31185Y238523D01*
X31676Y238851D01*
X32004Y239342D01*
X32120Y239921D01*
Y241533D01*
D02*
G37*
G36*
X28872D02*
X27125D01*
Y239921D01*
X27240Y239342D01*
X27568Y238851D01*
X28059Y238523D01*
X28638Y238408D01*
X28872D01*
Y241533D01*
D02*
G37*
G36*
X219598Y251799D02*
X218623Y251605D01*
X217796Y251052D01*
X217244Y250225D01*
X217049Y249250D01*
X217244Y248274D01*
X217559Y247802D01*
Y246630D01*
X216630D01*
Y237937D01*
X222567D01*
Y246630D01*
X221638D01*
Y247802D01*
X221953Y248274D01*
X222147Y249250D01*
X221953Y250225D01*
X221401Y251052D01*
X220574Y251605D01*
X219598Y251799D01*
D02*
G37*
G36*
X222567Y262063D02*
X216630D01*
Y257632D01*
X205628Y246630D01*
X203630D01*
Y237937D01*
X209567D01*
Y244801D01*
X218136Y253370D01*
X222567D01*
Y262063D01*
D02*
G37*
G36*
X32591D02*
X26654D01*
Y255199D01*
X18085Y246630D01*
X13654D01*
Y237937D01*
X19590D01*
Y242368D01*
X30593Y253370D01*
X32591D01*
Y262063D01*
D02*
G37*
G36*
X48531Y239112D02*
X46026D01*
Y237394D01*
X48531D01*
Y239112D01*
D02*
G37*
G36*
X44526D02*
X42020D01*
Y237394D01*
X44526D01*
Y239112D01*
D02*
G37*
G36*
X49031Y235547D02*
X41520D01*
Y234618D01*
X37176D01*
X36704Y234934D01*
X35728Y235128D01*
X34753Y234934D01*
X33926Y234381D01*
X33373Y233554D01*
X33179Y232579D01*
X33373Y231603D01*
X33926Y230776D01*
X34753Y230224D01*
X35728Y230030D01*
X36704Y230224D01*
X37176Y230540D01*
X41520D01*
Y229610D01*
X49031D01*
Y235547D01*
D02*
G37*
G36*
X194701Y234957D02*
X187189D01*
Y229020D01*
X194701D01*
Y229949D01*
X198355D01*
X198828Y229633D01*
X199803Y229439D01*
X200779Y229633D01*
X201606Y230186D01*
X202158Y231013D01*
X202352Y231988D01*
X202158Y232964D01*
X201606Y233791D01*
X200779Y234343D01*
X199803Y234537D01*
X198828Y234343D01*
X198355Y234027D01*
X194701D01*
Y234957D01*
D02*
G37*
G36*
X194201Y227173D02*
X191695D01*
Y225455D01*
X194201D01*
Y227173D01*
D02*
G37*
G36*
X190195D02*
X187689D01*
Y225455D01*
X190195D01*
Y227173D01*
D02*
G37*
G36*
X207583Y226159D02*
X207348D01*
Y223033D01*
X209096D01*
Y224646D01*
X208981Y225225D01*
X208653Y225716D01*
X208162Y226044D01*
X207583Y226159D01*
D02*
G37*
G36*
X205848D02*
X205614D01*
X205035Y226044D01*
X204544Y225716D01*
X204216Y225225D01*
X204101Y224646D01*
Y223033D01*
X205848D01*
Y226159D01*
D02*
G37*
G36*
X194201Y223955D02*
X191695D01*
Y222236D01*
X194201D01*
Y223955D01*
D02*
G37*
G36*
X190195D02*
X187689D01*
Y222236D01*
X190195D01*
Y223955D01*
D02*
G37*
G36*
X209096Y221533D02*
X207348D01*
Y218408D01*
X207583D01*
X208162Y218523D01*
X208653Y218851D01*
X208981Y219342D01*
X209096Y219921D01*
Y221533D01*
D02*
G37*
G36*
X205848D02*
X204101D01*
Y219921D01*
X204216Y219342D01*
X204544Y218851D01*
X205035Y218523D01*
X205614Y218408D01*
X205848D01*
Y221533D01*
D02*
G37*
G36*
X19590Y226630D02*
X13654D01*
Y217937D01*
X14583D01*
Y217109D01*
X14267Y216637D01*
X14073Y215661D01*
X14267Y214686D01*
X14820Y213859D01*
X15647Y213306D01*
X16622Y213112D01*
X17597Y213306D01*
X18424Y213859D01*
X18977Y214686D01*
X19171Y215661D01*
X18977Y216637D01*
X18661Y217109D01*
Y217937D01*
X19590D01*
Y226630D01*
D02*
G37*
G36*
X112457Y281402D02*
X103764D01*
Y275465D01*
X112457D01*
Y276394D01*
X114731D01*
X118040Y273085D01*
Y209125D01*
X117724Y208653D01*
X117530Y207677D01*
X117724Y206702D01*
X118276Y205875D01*
X119103Y205322D01*
X120079Y205128D01*
X121054Y205322D01*
X121881Y205875D01*
X122434Y206702D01*
X122628Y207677D01*
X122434Y208653D01*
X122118Y209125D01*
Y273930D01*
X122118Y273930D01*
X121963Y274710D01*
X121521Y275372D01*
X121521Y275372D01*
X117018Y279875D01*
X116356Y280317D01*
X115576Y280472D01*
X112457D01*
Y281402D01*
D02*
G37*
G36*
X222567Y226630D02*
X216630D01*
Y222199D01*
X199321Y204890D01*
X191512D01*
Y205819D01*
X182819D01*
Y199882D01*
X191512D01*
Y200811D01*
X200165D01*
X200946Y200966D01*
X201607Y201409D01*
X218136Y217937D01*
X222567D01*
Y226630D01*
D02*
G37*
G36*
X169527Y205348D02*
X167915D01*
Y203600D01*
X171041D01*
Y203835D01*
X170926Y204414D01*
X170598Y204905D01*
X170107Y205233D01*
X169527Y205348D01*
D02*
G37*
G36*
X166415D02*
X164803D01*
X164224Y205233D01*
X163733Y204905D01*
X163405Y204414D01*
X163290Y203835D01*
Y203600D01*
X166415D01*
Y205348D01*
D02*
G37*
G36*
X130157D02*
X128545D01*
Y203600D01*
X131671D01*
Y203835D01*
X131556Y204414D01*
X131228Y204905D01*
X130737Y205233D01*
X130157Y205348D01*
D02*
G37*
G36*
X127045D02*
X125433D01*
X124854Y205233D01*
X124363Y204905D01*
X124035Y204414D01*
X123920Y203835D01*
Y203600D01*
X127045D01*
Y205348D01*
D02*
G37*
G36*
X90787D02*
X89175D01*
Y203600D01*
X92301D01*
Y203835D01*
X92185Y204414D01*
X91857Y204905D01*
X91366Y205233D01*
X90787Y205348D01*
D02*
G37*
G36*
X87675D02*
X86063D01*
X85484Y205233D01*
X84993Y204905D01*
X84665Y204414D01*
X84550Y203835D01*
Y203600D01*
X87675D01*
Y205348D01*
D02*
G37*
G36*
X51417D02*
X49805D01*
Y203600D01*
X52931D01*
Y203835D01*
X52815Y204414D01*
X52487Y204905D01*
X51996Y205233D01*
X51417Y205348D01*
D02*
G37*
G36*
X48305D02*
X46693D01*
X46114Y205233D01*
X45623Y204905D01*
X45295Y204414D01*
X45180Y203835D01*
Y203600D01*
X48305D01*
Y205348D01*
D02*
G37*
G36*
X228346Y210995D02*
X227315Y210859D01*
X226353Y210461D01*
X225527Y209827D01*
X224894Y209001D01*
X224495Y208040D01*
X224360Y207008D01*
X224495Y205976D01*
X224894Y205014D01*
X225527Y204189D01*
X226353Y203555D01*
X227315Y203157D01*
X228346Y203021D01*
X229378Y203157D01*
X230340Y203555D01*
X231166Y204189D01*
X231799Y205014D01*
X232197Y205976D01*
X232333Y207008D01*
X232197Y208040D01*
X231799Y209001D01*
X231166Y209827D01*
X230340Y210461D01*
X229378Y210859D01*
X228346Y210995D01*
D02*
G37*
G36*
X7874D02*
X6842Y210859D01*
X5881Y210461D01*
X5055Y209827D01*
X4421Y209001D01*
X4023Y208040D01*
X3887Y207008D01*
X4023Y205976D01*
X4421Y205014D01*
X5055Y204189D01*
X5881Y203555D01*
X6842Y203157D01*
X7874Y203021D01*
X8906Y203157D01*
X9867Y203555D01*
X10693Y204189D01*
X11327Y205014D01*
X11725Y205976D01*
X11861Y207008D01*
X11725Y208040D01*
X11327Y209001D01*
X10693Y209827D01*
X9867Y210461D01*
X8906Y210859D01*
X7874Y210995D01*
D02*
G37*
G36*
X29622Y230801D02*
X28647Y230607D01*
X27820Y230054D01*
X27267Y229227D01*
X27073Y228252D01*
X27267Y227276D01*
X27365Y227130D01*
X27098Y226630D01*
X26654D01*
Y218356D01*
X9083Y200786D01*
X8906Y200859D01*
X7874Y200995D01*
X6842Y200859D01*
X5881Y200461D01*
X5055Y199827D01*
X4421Y199001D01*
X4023Y198040D01*
X3887Y197008D01*
X4023Y195976D01*
X4421Y195014D01*
X5055Y194189D01*
X5881Y193555D01*
X6842Y193157D01*
X7874Y193021D01*
X8906Y193157D01*
X9867Y193555D01*
X10693Y194189D01*
X11327Y195014D01*
X11725Y195976D01*
X11861Y197008D01*
X11769Y197704D01*
X31064Y216999D01*
X31506Y217661D01*
X31561Y217937D01*
X32591D01*
Y226630D01*
X32146D01*
X31879Y227130D01*
X31977Y227276D01*
X32171Y228252D01*
X31977Y229227D01*
X31424Y230054D01*
X30597Y230607D01*
X29622Y230801D01*
D02*
G37*
G36*
X171041Y202100D02*
X167915D01*
Y200353D01*
X169527D01*
X170107Y200468D01*
X170598Y200796D01*
X170926Y201287D01*
X171041Y201866D01*
Y202100D01*
D02*
G37*
G36*
X166415D02*
X163290D01*
Y201866D01*
X163405Y201287D01*
X163733Y200796D01*
X164224Y200468D01*
X164803Y200353D01*
X166415D01*
Y202100D01*
D02*
G37*
G36*
X131671D02*
X128545D01*
Y200353D01*
X130157D01*
X130737Y200468D01*
X131228Y200796D01*
X131556Y201287D01*
X131671Y201866D01*
Y202100D01*
D02*
G37*
G36*
X127045D02*
X123920D01*
Y201866D01*
X124035Y201287D01*
X124363Y200796D01*
X124854Y200468D01*
X125433Y200353D01*
X127045D01*
Y202100D01*
D02*
G37*
G36*
X92301D02*
X89175D01*
Y200353D01*
X90787D01*
X91366Y200468D01*
X91857Y200796D01*
X92185Y201287D01*
X92301Y201866D01*
Y202100D01*
D02*
G37*
G36*
X87675D02*
X84550D01*
Y201866D01*
X84665Y201287D01*
X84993Y200796D01*
X85484Y200468D01*
X86063Y200353D01*
X87675D01*
Y202100D01*
D02*
G37*
G36*
X52931D02*
X49805D01*
Y200353D01*
X51417D01*
X51996Y200468D01*
X52487Y200796D01*
X52815Y201287D01*
X52931Y201866D01*
Y202100D01*
D02*
G37*
G36*
X48305D02*
X45180D01*
Y201866D01*
X45295Y201287D01*
X45623Y200796D01*
X46114Y200468D01*
X46693Y200353D01*
X48305D01*
Y202100D01*
D02*
G37*
G36*
X228346Y200995D02*
X227315Y200859D01*
X226353Y200461D01*
X225527Y199827D01*
X224894Y199001D01*
X224495Y198040D01*
X224360Y197008D01*
X224495Y195976D01*
X224569Y195799D01*
X204534Y175764D01*
X202630D01*
Y167071D01*
X203559D01*
Y165653D01*
X203354Y165346D01*
X203160Y164370D01*
X203354Y163395D01*
X203906Y162568D01*
X204733Y162015D01*
X205709Y161821D01*
X206684Y162015D01*
X207511Y162568D01*
X208064Y163395D01*
X208258Y164370D01*
X208064Y165346D01*
X207638Y165983D01*
Y167071D01*
X208567D01*
Y174030D01*
X224432Y189894D01*
X224894Y189703D01*
Y187758D01*
X227596D01*
Y190461D01*
X225651D01*
X225460Y190923D01*
X227650Y193113D01*
X228346Y193021D01*
X229378Y193157D01*
X230340Y193555D01*
X231166Y194189D01*
X231799Y195014D01*
X232197Y195976D01*
X232333Y197008D01*
X232197Y198040D01*
X231799Y199001D01*
X231166Y199827D01*
X230340Y200461D01*
X229378Y200859D01*
X228346Y200995D01*
D02*
G37*
G36*
X53402Y192819D02*
X44709D01*
Y191890D01*
X31705D01*
X31705Y191890D01*
X30925Y191734D01*
X30263Y191292D01*
X16180Y177209D01*
X15738Y176548D01*
X15583Y175767D01*
Y175764D01*
X14654D01*
Y167071D01*
X20591D01*
Y175764D01*
X20591Y175764D01*
X20591D01*
X20872Y176133D01*
X32550Y187811D01*
X44709D01*
Y186882D01*
X53402D01*
Y192819D01*
D02*
G37*
G36*
X231799Y190461D02*
X229097D01*
Y187758D01*
X231799D01*
Y190461D01*
D02*
G37*
G36*
X11327D02*
X8624D01*
Y187758D01*
X11327D01*
Y190461D01*
D02*
G37*
G36*
X7124D02*
X4421D01*
Y187758D01*
X7124D01*
Y190461D01*
D02*
G37*
G36*
X191512Y192819D02*
X182819D01*
Y188002D01*
X182705Y187429D01*
Y178953D01*
X181776D01*
Y171441D01*
X187713D01*
Y178953D01*
X186783D01*
Y186584D01*
X187081Y186882D01*
X191512D01*
Y187533D01*
X192012Y187724D01*
X192354Y187495D01*
X193330Y187301D01*
X194305Y187495D01*
X195132Y188048D01*
X195685Y188875D01*
X195879Y189850D01*
X195685Y190826D01*
X195132Y191653D01*
X194305Y192205D01*
X193330Y192399D01*
X192354Y192205D01*
X192012Y191976D01*
X191512Y192167D01*
Y192819D01*
D02*
G37*
G36*
X152142D02*
X143449D01*
Y188002D01*
X143335Y187429D01*
Y178953D01*
X142405D01*
Y171441D01*
X148343D01*
Y178953D01*
X147413D01*
Y186584D01*
X147711Y186882D01*
X152142D01*
Y187811D01*
X152969D01*
X153442Y187495D01*
X154417Y187301D01*
X155393Y187495D01*
X156220Y188048D01*
X156772Y188875D01*
X156966Y189850D01*
X156772Y190826D01*
X156220Y191653D01*
X155393Y192205D01*
X154417Y192399D01*
X153442Y192205D01*
X152969Y191890D01*
X152142D01*
Y192819D01*
D02*
G37*
G36*
X112772D02*
X104079D01*
Y188002D01*
X103965Y187429D01*
Y178953D01*
X103035D01*
Y171441D01*
X108972D01*
Y178953D01*
X108043D01*
Y186584D01*
X108341Y186882D01*
X112772D01*
Y187526D01*
X113272Y187721D01*
X113609Y187495D01*
X114585Y187301D01*
X115560Y187495D01*
X116387Y188048D01*
X116940Y188875D01*
X117134Y189850D01*
X116940Y190826D01*
X116387Y191653D01*
X115560Y192205D01*
X114585Y192399D01*
X113609Y192205D01*
X113272Y191980D01*
X112772Y192175D01*
Y192819D01*
D02*
G37*
G36*
X73402D02*
X64709D01*
Y188183D01*
X64679Y188139D01*
X64524Y187358D01*
Y178953D01*
X63595D01*
Y171441D01*
X69532D01*
Y178953D01*
X68602D01*
Y186514D01*
X68971Y186882D01*
X73402D01*
Y187811D01*
X74339D01*
X74812Y187495D01*
X75787Y187301D01*
X76763Y187495D01*
X77590Y188048D01*
X78142Y188875D01*
X78336Y189850D01*
X78142Y190826D01*
X77590Y191653D01*
X76763Y192205D01*
X75787Y192399D01*
X74812Y192205D01*
X74339Y191890D01*
X73402D01*
Y192819D01*
D02*
G37*
G36*
X152142Y205819D02*
X143449D01*
Y199882D01*
X152142D01*
Y200811D01*
X153321D01*
X162819Y191313D01*
Y186882D01*
X171512D01*
Y192819D01*
X167081D01*
X155607Y204292D01*
X154946Y204734D01*
X154165Y204890D01*
X152142D01*
Y205819D01*
D02*
G37*
G36*
X112772D02*
X104079D01*
Y199882D01*
X112772D01*
Y200811D01*
X113951D01*
X123449Y191313D01*
Y186882D01*
X132142D01*
Y192819D01*
X127711D01*
X116237Y204292D01*
X115576Y204734D01*
X114795Y204890D01*
X112772D01*
Y205819D01*
D02*
G37*
G36*
X73402D02*
X64709D01*
Y199882D01*
X73402D01*
Y200811D01*
X74581D01*
X84079Y191313D01*
Y186882D01*
X92772D01*
Y192819D01*
X88341D01*
X76867Y204292D01*
X76206Y204734D01*
X75425Y204890D01*
X73402D01*
Y205819D01*
D02*
G37*
G36*
X231799Y186258D02*
X229097D01*
Y183555D01*
X231799D01*
Y186258D01*
D02*
G37*
G36*
X227596D02*
X224894D01*
Y183555D01*
X227596D01*
Y186258D01*
D02*
G37*
G36*
X11327D02*
X8624D01*
Y183555D01*
X11327D01*
Y186258D01*
D02*
G37*
G36*
X7124D02*
X4421D01*
Y183555D01*
X7124D01*
Y186258D01*
D02*
G37*
G36*
X179929Y178453D02*
X178211D01*
Y175947D01*
X179929D01*
Y178453D01*
D02*
G37*
G36*
X140559D02*
X138841D01*
Y175947D01*
X140559D01*
Y178453D01*
D02*
G37*
G36*
X101189D02*
X99471D01*
Y175947D01*
X101189D01*
Y178453D01*
D02*
G37*
G36*
X176711D02*
X174992D01*
Y175947D01*
X176711D01*
Y178453D01*
D02*
G37*
G36*
X137341D02*
X135622D01*
Y175947D01*
X137341D01*
Y178453D01*
D02*
G37*
G36*
X97970D02*
X96252D01*
Y175947D01*
X97970D01*
Y178453D01*
D02*
G37*
G36*
X61748D02*
X60030D01*
Y175947D01*
X61748D01*
Y178453D01*
D02*
G37*
G36*
X58530D02*
X56811D01*
Y175947D01*
X58530D01*
Y178453D01*
D02*
G37*
G36*
X219583Y175293D02*
X219348D01*
Y172167D01*
X221096D01*
Y173779D01*
X220981Y174359D01*
X220653Y174850D01*
X220162Y175178D01*
X219583Y175293D01*
D02*
G37*
G36*
X217848D02*
X217614D01*
X217035Y175178D01*
X216544Y174850D01*
X216216Y174359D01*
X216101Y173779D01*
Y172167D01*
X217848D01*
Y175293D01*
D02*
G37*
G36*
X179929Y174447D02*
X178211D01*
Y171941D01*
X179929D01*
Y174447D01*
D02*
G37*
G36*
X176711D02*
X174992D01*
Y171941D01*
X176711D01*
Y174447D01*
D02*
G37*
G36*
X140559D02*
X138841D01*
Y171941D01*
X140559D01*
Y174447D01*
D02*
G37*
G36*
X137341D02*
X135622D01*
Y171941D01*
X137341D01*
Y174447D01*
D02*
G37*
G36*
X101189D02*
X99471D01*
Y171941D01*
X101189D01*
Y174447D01*
D02*
G37*
G36*
X97970D02*
X96252D01*
Y171941D01*
X97970D01*
Y174447D01*
D02*
G37*
G36*
X61748Y174447D02*
X60030D01*
Y171941D01*
X61748D01*
Y174447D01*
D02*
G37*
G36*
X58530D02*
X56811D01*
Y171941D01*
X58530D01*
Y174447D01*
D02*
G37*
G36*
X221096Y170667D02*
X219348D01*
Y167542D01*
X219583D01*
X220162Y167657D01*
X220653Y167985D01*
X220981Y168476D01*
X221096Y169055D01*
Y170667D01*
D02*
G37*
G36*
X217848D02*
X216101D01*
Y169055D01*
X216216Y168476D01*
X216544Y167985D01*
X217035Y167657D01*
X217614Y167542D01*
X217848D01*
Y170667D01*
D02*
G37*
G36*
X30622Y180699D02*
X29647Y180505D01*
X28820Y179952D01*
X28267Y179125D01*
X28073Y178150D01*
X28267Y177174D01*
X28583Y176702D01*
Y175764D01*
X27654D01*
Y167071D01*
X32470D01*
X33043Y166957D01*
X41520D01*
Y166028D01*
X49031D01*
Y171965D01*
X41520D01*
Y171035D01*
X33888D01*
X33591Y171333D01*
Y175764D01*
X32661D01*
Y176702D01*
X32977Y177174D01*
X33171Y178150D01*
X32977Y179125D01*
X32425Y179952D01*
X31598Y180505D01*
X30622Y180699D01*
D02*
G37*
G36*
X194201Y164575D02*
X191695D01*
Y162856D01*
X194201D01*
Y164575D01*
D02*
G37*
G36*
X190195D02*
X187689D01*
Y162856D01*
X190195D01*
Y164575D01*
D02*
G37*
G36*
X48531Y164181D02*
X46026D01*
Y162463D01*
X48531D01*
Y164181D01*
D02*
G37*
G36*
X44526D02*
X42020D01*
Y162463D01*
X44526D01*
Y164181D01*
D02*
G37*
G36*
X194201Y161356D02*
X191695D01*
Y159638D01*
X194201D01*
Y161356D01*
D02*
G37*
G36*
X190195D02*
X187689D01*
Y159638D01*
X190195D01*
Y161356D01*
D02*
G37*
G36*
X48531Y160963D02*
X46026D01*
Y159244D01*
X48531D01*
Y160963D01*
D02*
G37*
G36*
X44526D02*
X42020D01*
Y159244D01*
X44526D01*
Y160963D01*
D02*
G37*
G36*
X18606Y155293D02*
X18372D01*
Y152167D01*
X20120D01*
Y153779D01*
X20004Y154359D01*
X19676Y154850D01*
X19185Y155178D01*
X18606Y155293D01*
D02*
G37*
G36*
X16872D02*
X16638D01*
X16059Y155178D01*
X15568Y154850D01*
X15240Y154359D01*
X15124Y153779D01*
Y152167D01*
X16872D01*
Y155293D01*
D02*
G37*
G36*
X20120Y150667D02*
X18372D01*
Y147542D01*
X18606D01*
X19185Y147657D01*
X19676Y147985D01*
X20004Y148476D01*
X20120Y149055D01*
Y150667D01*
D02*
G37*
G36*
X16872D02*
X15124D01*
Y149055D01*
X15240Y148476D01*
X15568Y147985D01*
X16059Y147657D01*
X16638Y147542D01*
X16872D01*
Y150667D01*
D02*
G37*
G36*
X194701Y157791D02*
X187189D01*
Y151854D01*
X194701D01*
Y152784D01*
X201348D01*
X202630Y151502D01*
Y147071D01*
X203559D01*
Y146133D01*
X203243Y145660D01*
X203049Y144685D01*
X203243Y143710D01*
X203796Y142883D01*
X204623Y142330D01*
X205598Y142136D01*
X206574Y142330D01*
X207401Y142883D01*
X207953Y143710D01*
X208147Y144685D01*
X207953Y145660D01*
X207638Y146133D01*
Y147071D01*
X208567D01*
Y155764D01*
X204136D01*
X203635Y156265D01*
X202973Y156707D01*
X202193Y156862D01*
X194701D01*
Y157791D01*
D02*
G37*
G36*
X219583Y139860D02*
X219349D01*
Y136734D01*
X221096D01*
Y138347D01*
X220981Y138926D01*
X220653Y139417D01*
X220162Y139745D01*
X219583Y139860D01*
D02*
G37*
G36*
X217848D02*
X217614D01*
X217035Y139745D01*
X216544Y139417D01*
X216216Y138926D01*
X216101Y138347D01*
Y136734D01*
X217848D01*
Y139860D01*
D02*
G37*
G36*
X221096Y135234D02*
X219349D01*
Y132109D01*
X219583D01*
X220162Y132224D01*
X220653Y132552D01*
X220981Y133043D01*
X221096Y133622D01*
Y135234D01*
D02*
G37*
G36*
X217848D02*
X216101D01*
Y133622D01*
X216216Y133043D01*
X216544Y132552D01*
X217035Y132224D01*
X217614Y132109D01*
X217848D01*
Y135234D01*
D02*
G37*
G36*
X221567Y155764D02*
X215630D01*
Y148900D01*
X207061Y140331D01*
X202630D01*
Y131638D01*
X208567D01*
Y136069D01*
X219569Y147071D01*
X221567D01*
Y155764D01*
D02*
G37*
G36*
X33591D02*
X27654D01*
Y151333D01*
X16652Y140331D01*
X14654D01*
Y131638D01*
X20591D01*
Y138502D01*
X29159Y147071D01*
X33591D01*
Y155764D01*
D02*
G37*
G36*
X30622Y145265D02*
X29647Y145071D01*
X28820Y144519D01*
X28267Y143692D01*
X28073Y142717D01*
X28267Y141741D01*
X28583Y141269D01*
Y140331D01*
X27654D01*
Y131638D01*
X32470D01*
X33043Y131524D01*
X41520D01*
Y130595D01*
X49031D01*
Y136531D01*
X41520D01*
Y135602D01*
X33888D01*
X33591Y135900D01*
Y140331D01*
X32661D01*
Y141269D01*
X32977Y141741D01*
X33171Y142717D01*
X32977Y143692D01*
X32425Y144519D01*
X31598Y145071D01*
X30622Y145265D01*
D02*
G37*
G36*
X194201Y129254D02*
X191695D01*
Y127536D01*
X194201D01*
Y129254D01*
D02*
G37*
G36*
X190195D02*
X187689D01*
Y127536D01*
X190195D01*
Y129254D01*
D02*
G37*
G36*
X48531Y128748D02*
X46026D01*
Y127030D01*
X48531D01*
Y128748D01*
D02*
G37*
G36*
X44526D02*
X42020D01*
Y127030D01*
X44526D01*
Y128748D01*
D02*
G37*
G36*
X194201Y126036D02*
X191695D01*
Y124317D01*
X194201D01*
Y126036D01*
D02*
G37*
G36*
X190195D02*
X187689D01*
Y124317D01*
X190195D01*
Y126036D01*
D02*
G37*
G36*
X48531Y125530D02*
X46026D01*
Y123811D01*
X48531D01*
Y125530D01*
D02*
G37*
G36*
X44526D02*
X42020D01*
Y123811D01*
X44526D01*
Y125530D01*
D02*
G37*
G36*
X18606Y119860D02*
X18372D01*
Y116734D01*
X20120D01*
Y118347D01*
X20004Y118926D01*
X19676Y119416D01*
X19185Y119745D01*
X18606Y119860D01*
D02*
G37*
G36*
X16872D02*
X16638D01*
X16059Y119745D01*
X15568Y119416D01*
X15240Y118926D01*
X15124Y118347D01*
Y116734D01*
X16872D01*
Y119860D01*
D02*
G37*
G36*
X110472Y116765D02*
X108860D01*
Y115018D01*
X111986D01*
Y115252D01*
X111871Y115831D01*
X111542Y116322D01*
X111052Y116650D01*
X110472Y116765D01*
D02*
G37*
G36*
X107360D02*
X105748D01*
X105169Y116650D01*
X104678Y116322D01*
X104350Y115831D01*
X104235Y115252D01*
Y115018D01*
X107360D01*
Y116765D01*
D02*
G37*
G36*
X20120Y115234D02*
X18372D01*
Y112109D01*
X18606D01*
X19185Y112224D01*
X19676Y112552D01*
X20004Y113043D01*
X20120Y113622D01*
Y115234D01*
D02*
G37*
G36*
X16872D02*
X15124D01*
Y113622D01*
X15240Y113043D01*
X15568Y112552D01*
X16059Y112224D01*
X16638Y112109D01*
X16872D01*
Y115234D01*
D02*
G37*
G36*
X111986Y113518D02*
X108860D01*
Y111770D01*
X110472D01*
X111052Y111885D01*
X111542Y112213D01*
X111871Y112704D01*
X111986Y113284D01*
Y113518D01*
D02*
G37*
G36*
X107360D02*
X104235D01*
Y113284D01*
X104350Y112704D01*
X104678Y112213D01*
X105169Y111885D01*
X105748Y111770D01*
X107360D01*
Y113518D01*
D02*
G37*
G36*
X120079Y187273D02*
X119103Y187079D01*
X118276Y186527D01*
X117724Y185700D01*
X117530Y184724D01*
X117724Y183749D01*
X118040Y183276D01*
Y122299D01*
X118195Y121519D01*
X118637Y120857D01*
X123764Y115730D01*
Y111299D01*
X132457D01*
Y117236D01*
X128026D01*
X122118Y123144D01*
Y183276D01*
X122434Y183749D01*
X122628Y184724D01*
X122434Y185700D01*
X121881Y186527D01*
X121054Y187079D01*
X120079Y187273D01*
D02*
G37*
G36*
X141051Y111425D02*
X138545D01*
Y109707D01*
X141051D01*
Y111425D01*
D02*
G37*
G36*
X137045D02*
X134539D01*
Y109707D01*
X137045D01*
Y111425D01*
D02*
G37*
G36*
X194701Y122471D02*
X187189D01*
Y116534D01*
X194701D01*
Y117463D01*
X201236D01*
X202630Y116069D01*
Y111638D01*
X203559D01*
Y110700D01*
X203243Y110227D01*
X203049Y109252D01*
X203243Y108276D01*
X203796Y107450D01*
X204623Y106897D01*
X205598Y106703D01*
X206574Y106897D01*
X207401Y107450D01*
X207953Y108276D01*
X208147Y109252D01*
X207953Y110227D01*
X207638Y110700D01*
Y111638D01*
X208567D01*
Y120331D01*
X204136D01*
X203522Y120944D01*
X202861Y121386D01*
X202080Y121541D01*
X194701D01*
Y122471D01*
D02*
G37*
G36*
X141051Y108207D02*
X138545D01*
Y106488D01*
X141051D01*
Y108207D01*
D02*
G37*
G36*
X137045D02*
X134539D01*
Y106488D01*
X137045D01*
Y108207D01*
D02*
G37*
G36*
X141551Y104642D02*
X134039D01*
Y103307D01*
X132457D01*
Y104236D01*
X123764D01*
Y98299D01*
X126071D01*
Y95109D01*
X125755Y94637D01*
X125561Y93661D01*
X125755Y92686D01*
X126308Y91859D01*
X127135Y91307D01*
X128110Y91112D01*
X129086Y91307D01*
X129913Y91859D01*
X130465Y92686D01*
X130659Y93661D01*
X130465Y94637D01*
X130149Y95109D01*
Y98299D01*
X132457D01*
Y99229D01*
X134039D01*
Y98705D01*
X141551D01*
Y104642D01*
D02*
G37*
G36*
X219583Y104427D02*
X219348D01*
Y101301D01*
X221096D01*
Y102913D01*
X220981Y103492D01*
X220653Y103983D01*
X220162Y104312D01*
X219583Y104427D01*
D02*
G37*
G36*
X217848D02*
X217614D01*
X217035Y104312D01*
X216544Y103983D01*
X216216Y103492D01*
X216101Y102913D01*
Y101301D01*
X217848D01*
Y104427D01*
D02*
G37*
G36*
X218598Y100551D02*
D01*
D01*
D01*
D02*
G37*
G36*
X112457Y104236D02*
X103764D01*
Y98299D01*
X112457D01*
Y99229D01*
X113599D01*
X114072Y98913D01*
X115047Y98719D01*
X116023Y98913D01*
X116850Y99465D01*
X117402Y100292D01*
X117596Y101268D01*
X117402Y102243D01*
X116850Y103070D01*
X116023Y103623D01*
X115047Y103817D01*
X114072Y103623D01*
X113599Y103307D01*
X112457D01*
Y104236D01*
D02*
G37*
G36*
X221096Y99801D02*
X219348D01*
Y96676D01*
X219583D01*
X220162Y96791D01*
X220653Y97119D01*
X220981Y97610D01*
X221096Y98189D01*
Y99801D01*
D02*
G37*
G36*
X217848D02*
X216101D01*
Y98189D01*
X216216Y97610D01*
X216544Y97119D01*
X217035Y96791D01*
X217614Y96676D01*
X217848D01*
Y99801D01*
D02*
G37*
G36*
X221567Y120331D02*
X215630D01*
Y113467D01*
X207061Y104898D01*
X202630D01*
Y96205D01*
X208567D01*
Y100636D01*
X219569Y111638D01*
X221567D01*
Y120331D01*
D02*
G37*
G36*
X33591D02*
X27654D01*
Y115900D01*
X16652Y104898D01*
X14654D01*
Y96205D01*
X20591D01*
Y103069D01*
X29159Y111638D01*
X33591D01*
Y120331D01*
D02*
G37*
G36*
X30622Y109832D02*
X29647Y109638D01*
X28820Y109086D01*
X28267Y108259D01*
X28073Y107283D01*
X28267Y106308D01*
X28583Y105835D01*
Y104898D01*
X27654D01*
Y96205D01*
X32470D01*
X33043Y96091D01*
X41520D01*
Y95161D01*
X49031D01*
Y101098D01*
X41520D01*
Y100169D01*
X33888D01*
X33591Y100467D01*
Y104898D01*
X32661D01*
Y105835D01*
X32977Y106308D01*
X33171Y107283D01*
X32977Y108259D01*
X32425Y109086D01*
X31598Y109638D01*
X30622Y109832D01*
D02*
G37*
G36*
X194201Y93709D02*
X191695D01*
Y91990D01*
X194201D01*
Y93709D01*
D02*
G37*
G36*
X190195D02*
X187689D01*
Y91990D01*
X190195D01*
Y93709D01*
D02*
G37*
G36*
X48531Y93315D02*
X46026D01*
Y91597D01*
X48531D01*
Y93315D01*
D02*
G37*
G36*
X44526D02*
X42020D01*
Y91597D01*
X44526D01*
Y93315D01*
D02*
G37*
G36*
X194201Y90490D02*
X191695D01*
Y88772D01*
X194201D01*
Y90490D01*
D02*
G37*
G36*
X190195D02*
X187689D01*
Y88772D01*
X190195D01*
Y90490D01*
D02*
G37*
G36*
X48531Y90096D02*
X46026D01*
Y88378D01*
X48531D01*
Y90096D01*
D02*
G37*
G36*
X44526D02*
X42020D01*
Y88378D01*
X44526D01*
Y90096D01*
D02*
G37*
G36*
X18606Y84427D02*
X18372D01*
Y81301D01*
X20120D01*
Y82913D01*
X20004Y83492D01*
X19676Y83983D01*
X19185Y84311D01*
X18606Y84427D01*
D02*
G37*
G36*
X16872D02*
X16638D01*
X16059Y84311D01*
X15568Y83983D01*
X15240Y83492D01*
X15124Y82913D01*
Y81301D01*
X16872D01*
Y84427D01*
D02*
G37*
G36*
X20120Y79801D02*
X18372D01*
Y76676D01*
X18606D01*
X19185Y76791D01*
X19676Y77119D01*
X20004Y77610D01*
X20120Y78189D01*
Y79801D01*
D02*
G37*
G36*
X16872D02*
X15124D01*
Y78189D01*
X15240Y77610D01*
X15568Y77119D01*
X16059Y76791D01*
X16638Y76676D01*
X16872D01*
Y79801D01*
D02*
G37*
G36*
X194701Y86925D02*
X187189D01*
Y80988D01*
X194701D01*
Y81918D01*
X201348D01*
X202630Y80636D01*
Y76205D01*
X203559D01*
Y75377D01*
X203243Y74905D01*
X203049Y73929D01*
X203243Y72954D01*
X203796Y72127D01*
X204623Y71574D01*
X205598Y71380D01*
X206574Y71574D01*
X207401Y72127D01*
X207953Y72954D01*
X208147Y73929D01*
X207953Y74905D01*
X207638Y75377D01*
Y76205D01*
X208567D01*
Y84898D01*
X204136D01*
X203635Y85399D01*
X202973Y85841D01*
X202193Y85996D01*
X194701D01*
Y86925D01*
D02*
G37*
G36*
X219583Y68994D02*
X219348D01*
Y65868D01*
X221096D01*
Y67480D01*
X220981Y68059D01*
X220653Y68550D01*
X220162Y68878D01*
X219583Y68994D01*
D02*
G37*
G36*
X217848D02*
X217614D01*
X217035Y68878D01*
X216544Y68550D01*
X216216Y68059D01*
X216101Y67480D01*
Y65868D01*
X217848D01*
Y68994D01*
D02*
G37*
G36*
X221096Y64368D02*
X219348D01*
Y61243D01*
X219583D01*
X220162Y61358D01*
X220653Y61686D01*
X220981Y62177D01*
X221096Y62756D01*
Y64368D01*
D02*
G37*
G36*
X217848D02*
X216101D01*
Y62756D01*
X216216Y62177D01*
X216544Y61686D01*
X217035Y61358D01*
X217614Y61243D01*
X217848D01*
Y64368D01*
D02*
G37*
G36*
X221567Y84898D02*
X215630D01*
Y78034D01*
X207061Y69465D01*
X202630D01*
Y60772D01*
X208567D01*
Y65203D01*
X219569Y76205D01*
X221567D01*
Y84898D01*
D02*
G37*
G36*
X33591D02*
X27654D01*
Y80467D01*
X16652Y69465D01*
X14654D01*
Y60772D01*
X20591D01*
Y67636D01*
X29159Y76205D01*
X33591D01*
Y84898D01*
D02*
G37*
G36*
X30622Y74399D02*
X29647Y74205D01*
X28820Y73653D01*
X28267Y72826D01*
X28073Y71850D01*
X28267Y70875D01*
X28583Y70402D01*
Y69465D01*
X27654D01*
Y60772D01*
X32470D01*
X33043Y60658D01*
X41520D01*
Y59728D01*
X49031D01*
Y65665D01*
X41520D01*
Y64736D01*
X33888D01*
X33591Y65034D01*
Y69465D01*
X32661D01*
Y70402D01*
X32977Y70875D01*
X33171Y71850D01*
X32977Y72826D01*
X32425Y73653D01*
X31598Y74205D01*
X30622Y74399D01*
D02*
G37*
G36*
X194201Y58276D02*
X191695D01*
Y56557D01*
X194201D01*
Y58276D01*
D02*
G37*
G36*
X190195D02*
X187689D01*
Y56557D01*
X190195D01*
Y58276D01*
D02*
G37*
G36*
X48531Y57882D02*
X46026D01*
Y56163D01*
X48531D01*
Y57882D01*
D02*
G37*
G36*
X44526D02*
X42020D01*
Y56163D01*
X44526D01*
Y57882D01*
D02*
G37*
G36*
X194201Y55057D02*
X191695D01*
Y53339D01*
X194201D01*
Y55057D01*
D02*
G37*
G36*
X190195D02*
X187689D01*
Y53339D01*
X190195D01*
Y55057D01*
D02*
G37*
G36*
X48531Y54663D02*
X46026D01*
Y52945D01*
X48531D01*
Y54663D01*
D02*
G37*
G36*
X44526D02*
X42020D01*
Y52945D01*
X44526D01*
Y54663D01*
D02*
G37*
G36*
X18606Y48994D02*
X18372D01*
Y45868D01*
X20120D01*
Y47480D01*
X20004Y48059D01*
X19676Y48550D01*
X19185Y48878D01*
X18606Y48994D01*
D02*
G37*
G36*
X16872D02*
X16638D01*
X16059Y48878D01*
X15568Y48550D01*
X15240Y48059D01*
X15124Y47480D01*
Y45868D01*
X16872D01*
Y48994D01*
D02*
G37*
G36*
X179339Y44594D02*
X177620D01*
Y42089D01*
X179339D01*
Y44594D01*
D02*
G37*
G36*
X100598D02*
X98880D01*
Y42089D01*
X100598D01*
Y44594D01*
D02*
G37*
G36*
X61228D02*
X59510D01*
Y42089D01*
X61228D01*
Y44594D01*
D02*
G37*
G36*
X176120D02*
X174402D01*
Y42089D01*
X176120D01*
Y44594D01*
D02*
G37*
G36*
X97380D02*
X95661D01*
Y42089D01*
X97380D01*
Y44594D01*
D02*
G37*
G36*
X58010D02*
X56291D01*
Y42089D01*
X58010D01*
Y44594D01*
D02*
G37*
G36*
X140650D02*
X138931D01*
Y42089D01*
X140650D01*
Y44594D01*
D02*
G37*
G36*
X137431D02*
X135713D01*
Y42089D01*
X137431D01*
Y44594D01*
D02*
G37*
G36*
X20120Y44368D02*
X18372D01*
Y41243D01*
X18606D01*
X19185Y41358D01*
X19676Y41686D01*
X20004Y42177D01*
X20120Y42756D01*
Y44368D01*
D02*
G37*
G36*
X16872D02*
X15124D01*
Y42756D01*
X15240Y42177D01*
X15568Y41686D01*
X16059Y41358D01*
X16638Y41243D01*
X16872D01*
Y44368D01*
D02*
G37*
G36*
X179339Y40589D02*
X177620D01*
Y38083D01*
X179339D01*
Y40589D01*
D02*
G37*
G36*
X176120D02*
X174402D01*
Y38083D01*
X176120D01*
Y40589D01*
D02*
G37*
G36*
X140650Y40589D02*
X138931D01*
Y38083D01*
X140650D01*
Y40589D01*
D02*
G37*
G36*
X137431D02*
X135713D01*
Y38083D01*
X137431D01*
Y40589D01*
D02*
G37*
G36*
X100598Y40589D02*
X98880D01*
Y38083D01*
X100598D01*
Y40589D01*
D02*
G37*
G36*
X97380D02*
X95661D01*
Y38083D01*
X97380D01*
Y40589D01*
D02*
G37*
G36*
X61228D02*
X59510D01*
Y38083D01*
X61228D01*
Y40589D01*
D02*
G37*
G36*
X58010D02*
X56291D01*
Y38083D01*
X58010D01*
Y40589D01*
D02*
G37*
G36*
X194701Y51492D02*
X187189D01*
Y45555D01*
X194701D01*
Y46484D01*
X201348D01*
X202630Y45203D01*
Y40772D01*
X203559D01*
Y39724D01*
X203243Y39251D01*
X203049Y38276D01*
X203243Y37300D01*
X203796Y36473D01*
X204623Y35921D01*
X205598Y35727D01*
X206574Y35921D01*
X207401Y36473D01*
X207953Y37300D01*
X208147Y38276D01*
X207953Y39251D01*
X207638Y39724D01*
Y40772D01*
X208567D01*
Y49465D01*
X204136D01*
X203635Y49966D01*
X202973Y50408D01*
X202193Y50563D01*
X194701D01*
Y51492D01*
D02*
G37*
G36*
X221567Y49465D02*
X215630D01*
Y41348D01*
X203006Y28724D01*
X191512D01*
Y29653D01*
X182819D01*
Y23717D01*
X191512D01*
Y24646D01*
X203850D01*
X204631Y24801D01*
X205292Y25243D01*
X220040Y39991D01*
X220482Y40653D01*
X220506Y40772D01*
X221567D01*
Y49465D01*
D02*
G37*
G36*
X172555Y45094D02*
X166618D01*
Y37583D01*
X167547D01*
Y29951D01*
X167250Y29653D01*
X162819D01*
Y28724D01*
X161881D01*
X161408Y29040D01*
X160433Y29234D01*
X159458Y29040D01*
X158631Y28487D01*
X158078Y27661D01*
X157884Y26685D01*
X158078Y25710D01*
X158631Y24883D01*
X159458Y24330D01*
X160433Y24136D01*
X161408Y24330D01*
X161881Y24646D01*
X162819D01*
Y23717D01*
X171512D01*
Y28533D01*
X171626Y29106D01*
Y37583D01*
X172555D01*
Y45094D01*
D02*
G37*
G36*
X133866D02*
X127929D01*
Y37583D01*
X128858D01*
Y30632D01*
X127880Y29653D01*
X123449D01*
Y28724D01*
X122621D01*
X122149Y29040D01*
X121173Y29234D01*
X120198Y29040D01*
X119371Y28487D01*
X118818Y27661D01*
X118624Y26685D01*
X118818Y25710D01*
X119371Y24883D01*
X120198Y24330D01*
X121173Y24136D01*
X122149Y24330D01*
X122621Y24646D01*
X123449D01*
Y23717D01*
X132142D01*
Y28148D01*
X132340Y28346D01*
X132782Y29007D01*
X132937Y29787D01*
Y37583D01*
X133866D01*
Y45094D01*
D02*
G37*
G36*
X93815D02*
X87878D01*
Y37583D01*
X88807D01*
Y29951D01*
X88510Y29653D01*
X84079D01*
Y28724D01*
X82723D01*
X82250Y29040D01*
X81275Y29234D01*
X80299Y29040D01*
X79472Y28487D01*
X78920Y27661D01*
X78726Y26685D01*
X78920Y25710D01*
X79472Y24883D01*
X80299Y24330D01*
X81275Y24136D01*
X82250Y24330D01*
X82723Y24646D01*
X84079D01*
Y23717D01*
X92772D01*
Y28533D01*
X92886Y29106D01*
Y37583D01*
X93815D01*
Y45094D01*
D02*
G37*
G36*
X54445D02*
X48508D01*
Y37583D01*
X49437D01*
Y29951D01*
X49140Y29653D01*
X44709D01*
Y28724D01*
X43881D01*
X43409Y29040D01*
X42433Y29234D01*
X41458Y29040D01*
X40631Y28487D01*
X40078Y27661D01*
X39884Y26685D01*
X40078Y25710D01*
X40631Y24883D01*
X41458Y24330D01*
X42433Y24136D01*
X43409Y24330D01*
X43881Y24646D01*
X44709D01*
Y23717D01*
X53402D01*
Y28533D01*
X53516Y29106D01*
Y37583D01*
X54445D01*
Y45094D01*
D02*
G37*
G36*
X189527Y16183D02*
X187915D01*
Y14435D01*
X191041D01*
Y14669D01*
X190926Y15248D01*
X190598Y15739D01*
X190107Y16067D01*
X189527Y16183D01*
D02*
G37*
G36*
X150157D02*
X148545D01*
Y14435D01*
X151671D01*
Y14669D01*
X151556Y15248D01*
X151228Y15739D01*
X150737Y16067D01*
X150157Y16183D01*
D02*
G37*
G36*
X110787D02*
X109175D01*
Y14435D01*
X112301D01*
Y14669D01*
X112186Y15248D01*
X111857Y15739D01*
X111366Y16067D01*
X110787Y16183D01*
D02*
G37*
G36*
X71417D02*
X69805D01*
Y14435D01*
X72931D01*
Y14669D01*
X72815Y15248D01*
X72487Y15739D01*
X71996Y16067D01*
X71417Y16183D01*
D02*
G37*
G36*
X147045D02*
X145433D01*
X144854Y16067D01*
X144363Y15739D01*
X144035Y15248D01*
X143920Y14669D01*
Y14435D01*
X147045D01*
Y16183D01*
D02*
G37*
G36*
X107675D02*
X106063D01*
X105484Y16067D01*
X104993Y15739D01*
X104665Y15248D01*
X104550Y14669D01*
Y14435D01*
X107675D01*
Y16183D01*
D02*
G37*
G36*
X68305D02*
X66693D01*
X66114Y16067D01*
X65623Y15739D01*
X65295Y15248D01*
X65180Y14669D01*
Y14435D01*
X68305D01*
Y16183D01*
D02*
G37*
G36*
X186415D02*
X184803D01*
X184224Y16067D01*
X183733Y15739D01*
X183405Y15248D01*
X183290Y14669D01*
Y14435D01*
X186415D01*
Y16183D01*
D02*
G37*
G36*
X191041Y12935D02*
X187915D01*
Y11187D01*
X189527D01*
X190107Y11303D01*
X190598Y11631D01*
X190926Y12122D01*
X191041Y12701D01*
Y12935D01*
D02*
G37*
G36*
X186415D02*
X183290D01*
Y12701D01*
X183405Y12122D01*
X183733Y11631D01*
X184224Y11303D01*
X184803Y11187D01*
X186415D01*
Y12935D01*
D02*
G37*
G36*
X151671D02*
X148545D01*
Y11187D01*
X150157D01*
X150737Y11303D01*
X151228Y11631D01*
X151556Y12122D01*
X151671Y12701D01*
Y12935D01*
D02*
G37*
G36*
X147045D02*
X143920D01*
Y12701D01*
X144035Y12122D01*
X144363Y11631D01*
X144854Y11303D01*
X145433Y11187D01*
X147045D01*
Y12935D01*
D02*
G37*
G36*
X112301D02*
X109175D01*
Y11187D01*
X110787D01*
X111366Y11303D01*
X111857Y11631D01*
X112186Y12122D01*
X112301Y12701D01*
Y12935D01*
D02*
G37*
G36*
X107675D02*
X104550D01*
Y12701D01*
X104665Y12122D01*
X104993Y11631D01*
X105484Y11303D01*
X106063Y11187D01*
X107675D01*
Y12935D01*
D02*
G37*
G36*
X72931D02*
X69805D01*
Y11187D01*
X71417D01*
X71996Y11303D01*
X72487Y11631D01*
X72815Y12122D01*
X72931Y12701D01*
Y12935D01*
D02*
G37*
G36*
X68305D02*
X65180D01*
Y12701D01*
X65295Y12122D01*
X65623Y11631D01*
X66114Y11303D01*
X66693Y11187D01*
X68305D01*
Y12935D01*
D02*
G37*
G36*
X152142Y29653D02*
X143449D01*
Y23717D01*
X147880D01*
X159353Y12243D01*
X160015Y11801D01*
X160795Y11646D01*
X160795Y11646D01*
X162819D01*
Y10717D01*
X171512D01*
Y16654D01*
X162819D01*
Y15724D01*
X161640D01*
X152142Y25222D01*
Y29653D01*
D02*
G37*
G36*
X112772D02*
X104079D01*
Y23717D01*
X108510D01*
X119983Y12243D01*
X120645Y11801D01*
X121425Y11646D01*
X121425Y11646D01*
X123449D01*
Y10717D01*
X132142D01*
Y16654D01*
X123449D01*
Y15724D01*
X122270D01*
X112772Y25222D01*
Y29653D01*
D02*
G37*
G36*
X73402D02*
X64709D01*
Y23717D01*
X69140D01*
X80613Y12243D01*
X81275Y11801D01*
X82055Y11646D01*
X82055Y11646D01*
X84079D01*
Y10717D01*
X92772D01*
Y16654D01*
X84079D01*
Y15724D01*
X82900D01*
X73402Y25222D01*
Y29653D01*
D02*
G37*
G36*
X33591Y49465D02*
X27654D01*
Y40772D01*
X28583D01*
Y28351D01*
X28738Y27571D01*
X29180Y26909D01*
X43846Y12243D01*
X44508Y11801D01*
X44709Y11761D01*
Y10717D01*
X53402D01*
Y16654D01*
X45204D01*
X32661Y29196D01*
Y40772D01*
X33591D01*
Y49465D01*
D02*
G37*
G36*
X222441Y20719D02*
X221087Y20585D01*
X219785Y20190D01*
X218586Y19549D01*
X217534Y18686D01*
X216671Y17635D01*
X216030Y16435D01*
X215635Y15133D01*
X215502Y13780D01*
X215635Y12426D01*
X216030Y11124D01*
X216671Y9924D01*
X217534Y8873D01*
X218586Y8010D01*
X219785Y7369D01*
X221087Y6974D01*
X222441Y6841D01*
X223795Y6974D01*
X225096Y7369D01*
X226296Y8010D01*
X227347Y8873D01*
X228210Y9924D01*
X228852Y11124D01*
X229246Y12426D01*
X229380Y13780D01*
X229246Y15133D01*
X228852Y16435D01*
X228210Y17635D01*
X227347Y18686D01*
X226296Y19549D01*
X225096Y20190D01*
X223795Y20585D01*
X222441Y20719D01*
D02*
G37*
G36*
X13780D02*
X12426Y20585D01*
X11124Y20190D01*
X9924Y19549D01*
X8873Y18686D01*
X8010Y17635D01*
X7369Y16435D01*
X6974Y15133D01*
X6841Y13780D01*
X6974Y12426D01*
X7369Y11124D01*
X8010Y9924D01*
X8873Y8873D01*
X9924Y8010D01*
X11124Y7369D01*
X12426Y6974D01*
X13780Y6841D01*
X15133Y6974D01*
X16435Y7369D01*
X17635Y8010D01*
X18686Y8873D01*
X19549Y9924D01*
X20190Y11124D01*
X20585Y12426D01*
X20719Y13780D01*
X20585Y15133D01*
X20190Y16435D01*
X19549Y17635D01*
X18686Y18686D01*
X17635Y19549D01*
X16435Y20190D01*
X15133Y20585D01*
X13780Y20719D01*
D02*
G37*
%LPD*%
D12*
X128110Y271811D02*
Y278433D01*
X137390D02*
X137795Y278839D01*
X128110Y278433D02*
X137390D01*
X128110Y93661D02*
Y101268D01*
X137390D02*
X137795Y101673D01*
X128110Y101268D02*
X137390D01*
X205598Y144685D02*
Y151417D01*
X202193Y154823D02*
X205598Y151417D01*
X190945Y154823D02*
X202193D01*
X205598Y109252D02*
Y115984D01*
X202080Y119502D02*
X205598Y115984D01*
X190945Y119502D02*
X202080D01*
X205598Y73929D02*
Y80551D01*
X202193Y83957D02*
X205598Y80551D01*
X190945Y83957D02*
X202193D01*
X205598Y38276D02*
Y45118D01*
X202193Y48524D02*
X205598Y45118D01*
X190945Y48524D02*
X202193D01*
X160433Y26685D02*
X167165D01*
X169587Y29106D01*
Y41339D01*
X121173Y26685D02*
X127795D01*
X130898Y29787D01*
Y41339D01*
X81275Y26685D02*
X88425D01*
X90847Y29106D01*
Y41339D01*
X42433Y26685D02*
X49055D01*
X51476Y29106D01*
Y41339D01*
X69055Y189850D02*
X75787D01*
X66563Y187358D02*
X69055Y189850D01*
X66563Y175197D02*
Y187358D01*
X106004Y187429D02*
X108425Y189850D01*
X106004Y175197D02*
Y187429D01*
X108425Y189850D02*
X114585D01*
X187165D02*
X193330D01*
X147795D02*
X154417D01*
X145374Y187429D02*
X147795Y189850D01*
X145374Y175197D02*
Y187429D01*
X184744Y187429D02*
X187165Y189850D01*
X184744Y175197D02*
Y187429D01*
X190945Y231988D02*
X199803D01*
X219598Y242284D02*
Y249250D01*
X190945Y267421D02*
X199803D01*
X219598Y277716D02*
Y285323D01*
X190945Y302854D02*
X200098D01*
X219598Y313150D02*
Y320866D01*
X190945Y338287D02*
X200098D01*
X219598Y348583D02*
Y355128D01*
X177293Y352362D02*
Y361578D01*
X160433Y381016D02*
X167165D01*
X138091Y352362D02*
Y361706D01*
X121164Y381016D02*
X127795D01*
X98721Y352362D02*
Y361221D01*
X59350Y352362D02*
Y361516D01*
X81952Y381016D02*
X88425D01*
X42433D02*
X49055D01*
X35728Y338878D02*
X45276D01*
X16622Y321053D02*
Y328583D01*
Y285620D02*
Y293150D01*
Y250563D02*
Y257716D01*
X36122Y303445D02*
X45276D01*
X35728Y268012D02*
X45276D01*
X35728Y232579D02*
X45276D01*
X16622Y215661D02*
Y222284D01*
X30622Y65118D02*
Y71850D01*
Y65118D02*
X33043Y62697D01*
X45276D01*
X30622Y100551D02*
Y107283D01*
Y100551D02*
X33043Y98130D01*
X45276D01*
X30622Y135984D02*
Y142717D01*
Y135984D02*
X33043Y133563D01*
X45276D01*
X30622Y171417D02*
Y178150D01*
Y171417D02*
X33043Y168996D01*
X45276D01*
X218598Y41433D02*
Y45118D01*
X203850Y26685D02*
X218598Y41433D01*
X187165Y26685D02*
X203850D01*
X45288Y13685D02*
X49055D01*
X30622Y28351D02*
X45288Y13685D01*
X30622Y28351D02*
Y45118D01*
X31705Y189850D02*
X49055D01*
X17622Y175767D02*
X31705Y189850D01*
X17622Y171417D02*
Y175767D01*
X205598Y164480D02*
Y171417D01*
Y164480D02*
X205709Y164370D01*
X108110Y101268D02*
X115047D01*
X120079Y122299D02*
X128110Y114268D01*
X120079Y122299D02*
Y184724D01*
Y207677D02*
Y273930D01*
X115576Y278433D02*
X120079Y273930D01*
X114795Y202850D02*
X127795Y189850D01*
X108110Y278433D02*
X115576D01*
X120173Y291433D02*
X128110D01*
X120079Y291339D02*
X120173Y291433D01*
X29622Y222284D02*
Y228252D01*
X205598Y173945D02*
X228346Y196693D01*
X205598Y171417D02*
Y173945D01*
X218598Y148984D02*
Y151417D01*
X205598Y135984D02*
X218598Y148984D01*
Y113551D02*
Y115984D01*
X205598Y100551D02*
X218598Y113551D01*
Y78118D02*
Y80551D01*
X205598Y65118D02*
X218598Y78118D01*
X160795Y13685D02*
X167165D01*
X147795Y26685D02*
X160795Y13685D01*
X121425D02*
X127795D01*
X108425Y26685D02*
X121425Y13685D01*
X82055D02*
X88425D01*
X69055Y26685D02*
X82055Y13685D01*
X17622Y65118D02*
Y67551D01*
X30622Y80551D01*
X17622Y100551D02*
Y102984D01*
X30622Y115984D01*
X17622Y135984D02*
Y138417D01*
X30622Y151417D01*
X69055Y202850D02*
X75425D01*
X88425Y189850D01*
X108425Y202850D02*
X114795D01*
X147795D02*
X154165D01*
X167165Y189850D01*
X187165Y202850D02*
X200165D01*
X219598Y222284D01*
X206598Y242284D02*
Y244717D01*
X219598Y257716D01*
X206598Y277716D02*
Y280150D01*
X219598Y293150D01*
X206598Y313150D02*
Y315583D01*
X219598Y328583D01*
X206598Y348583D02*
Y361583D01*
X187165Y381016D02*
X206598Y361583D01*
X160795Y368016D02*
X167165D01*
X147795Y381016D02*
X160795Y368016D01*
X121425D02*
X127795D01*
X108425Y381016D02*
X121425Y368016D01*
X82055D02*
X88425D01*
X69055Y381016D02*
X82055Y368016D01*
X36055D02*
X49055D01*
X16622Y348583D02*
X36055Y368016D01*
X29622Y326150D02*
Y328583D01*
X16622Y313150D02*
X29622Y326150D01*
Y290717D02*
Y293150D01*
X16622Y277716D02*
X29622Y290717D01*
Y255283D02*
Y257716D01*
X16622Y242284D02*
X29622Y255283D01*
Y218441D02*
Y222284D01*
X7874Y196693D02*
X29622Y218441D01*
D14*
X137795Y108957D02*
D03*
Y101673D02*
D03*
Y286122D02*
D03*
Y278839D02*
D03*
X45276Y346161D02*
D03*
Y338878D02*
D03*
Y310728D02*
D03*
Y303445D02*
D03*
Y275295D02*
D03*
Y268012D02*
D03*
Y239862D02*
D03*
Y232579D02*
D03*
X190945Y224705D02*
D03*
Y231988D02*
D03*
Y260138D02*
D03*
Y267421D02*
D03*
Y295571D02*
D03*
Y302854D02*
D03*
Y331004D02*
D03*
Y338287D02*
D03*
X45276Y55413D02*
D03*
Y62697D02*
D03*
Y90847D02*
D03*
Y98130D02*
D03*
Y126279D02*
D03*
Y133563D02*
D03*
Y161713D02*
D03*
Y168996D02*
D03*
X190945Y162106D02*
D03*
Y154823D02*
D03*
Y126786D02*
D03*
Y119502D02*
D03*
Y91240D02*
D03*
Y83957D02*
D03*
Y55807D02*
D03*
Y48524D02*
D03*
D15*
X184577Y352362D02*
D03*
X177293D02*
D03*
X145374D02*
D03*
X138091D02*
D03*
X106004D02*
D03*
X98721D02*
D03*
X66634D02*
D03*
X59350D02*
D03*
X59280Y175197D02*
D03*
X66563D02*
D03*
X98721D02*
D03*
X106004D02*
D03*
X138091D02*
D03*
X145374D02*
D03*
X177461D02*
D03*
X184744D02*
D03*
X176870Y41339D02*
D03*
X169587D02*
D03*
X138181D02*
D03*
X130898D02*
D03*
X98130D02*
D03*
X90847D02*
D03*
X58760D02*
D03*
X51476D02*
D03*
D16*
X128110Y101268D02*
D03*
X108110D02*
D03*
X128110Y278433D02*
D03*
X108110D02*
D03*
X167165Y381016D02*
D03*
X187165D02*
D03*
X127795D02*
D03*
X147795D02*
D03*
X88425D02*
D03*
X108425D02*
D03*
X49055D02*
D03*
X69055D02*
D03*
X187165Y189850D02*
D03*
X167165D02*
D03*
X147795D02*
D03*
X127795D02*
D03*
X108425D02*
D03*
X88425D02*
D03*
X69055D02*
D03*
X49055D02*
D03*
Y26685D02*
D03*
X69055D02*
D03*
X88425D02*
D03*
X108425D02*
D03*
X127795D02*
D03*
X147795D02*
D03*
X167165D02*
D03*
X187165D02*
D03*
D17*
X128110Y114268D02*
D03*
Y291433D02*
D03*
X167165Y368016D02*
D03*
X127795D02*
D03*
X88425D02*
D03*
X49055D02*
D03*
X187165Y202850D02*
D03*
X147795D02*
D03*
X108425D02*
D03*
X69055D02*
D03*
X49055Y13685D02*
D03*
X88425D02*
D03*
X127795D02*
D03*
X167165D02*
D03*
D18*
X108110Y114268D02*
D03*
Y291433D02*
D03*
X187165Y368016D02*
D03*
X147795D02*
D03*
X108425D02*
D03*
X69055D02*
D03*
X167165Y202850D02*
D03*
X127795D02*
D03*
X88425D02*
D03*
X49055D02*
D03*
X69055Y13685D02*
D03*
X108425D02*
D03*
X147795D02*
D03*
X187165D02*
D03*
D19*
X219598Y348583D02*
D03*
Y328583D02*
D03*
Y313150D02*
D03*
Y293150D02*
D03*
Y277716D02*
D03*
Y257716D02*
D03*
Y242284D02*
D03*
Y222284D02*
D03*
X205598Y151417D02*
D03*
Y171417D02*
D03*
Y115984D02*
D03*
Y135984D02*
D03*
Y80551D02*
D03*
Y100551D02*
D03*
Y45118D02*
D03*
Y65118D02*
D03*
X30622D02*
D03*
Y45118D02*
D03*
Y100551D02*
D03*
Y80551D02*
D03*
Y171417D02*
D03*
Y151417D02*
D03*
Y135984D02*
D03*
Y115984D02*
D03*
X16622Y222284D02*
D03*
Y242284D02*
D03*
Y257716D02*
D03*
Y277716D02*
D03*
Y293150D02*
D03*
Y313150D02*
D03*
Y328583D02*
D03*
Y348583D02*
D03*
D20*
X206598D02*
D03*
Y313150D02*
D03*
Y277716D02*
D03*
Y242284D02*
D03*
X218598Y151417D02*
D03*
Y115984D02*
D03*
Y80551D02*
D03*
Y45118D02*
D03*
X17622Y65118D02*
D03*
Y100551D02*
D03*
Y171417D02*
D03*
Y135984D02*
D03*
X29622Y222284D02*
D03*
Y257716D02*
D03*
Y293150D02*
D03*
Y328583D02*
D03*
D21*
X206598D02*
D03*
Y293150D02*
D03*
Y257716D02*
D03*
Y222284D02*
D03*
X218598Y171417D02*
D03*
Y135984D02*
D03*
Y100551D02*
D03*
Y65118D02*
D03*
X17622Y45118D02*
D03*
Y80551D02*
D03*
Y151417D02*
D03*
Y115984D02*
D03*
X29622Y242284D02*
D03*
Y277716D02*
D03*
Y313150D02*
D03*
Y348583D02*
D03*
D34*
X228346Y207008D02*
D03*
Y197008D02*
D03*
X7874Y207008D02*
D03*
Y197008D02*
D03*
D35*
X228346Y187008D02*
D03*
X7874D02*
D03*
D36*
X222441Y379921D02*
D03*
X13780D02*
D03*
X222441Y13780D02*
D03*
X13780D02*
D03*
D37*
X128110Y271811D02*
D03*
Y93661D02*
D03*
X205598Y144685D02*
D03*
Y109252D02*
D03*
Y73929D02*
D03*
Y38276D02*
D03*
X160433Y26685D02*
D03*
X121173D02*
D03*
X81275D02*
D03*
X42433D02*
D03*
X75787Y189850D02*
D03*
X114585D02*
D03*
X193330D02*
D03*
X154417D02*
D03*
X199803Y231988D02*
D03*
X219598Y249250D02*
D03*
X199803Y267421D02*
D03*
X219598Y285323D02*
D03*
X200098Y302854D02*
D03*
X219598Y320866D02*
D03*
X200098Y338287D02*
D03*
X219598Y355128D02*
D03*
X177293Y361578D02*
D03*
X160433Y381016D02*
D03*
X138091Y361706D02*
D03*
X121164Y381016D02*
D03*
X98721Y361221D02*
D03*
X59350Y361516D02*
D03*
X81952Y381016D02*
D03*
X42433D02*
D03*
X35728Y338878D02*
D03*
X16622Y321053D02*
D03*
Y285620D02*
D03*
Y250563D02*
D03*
X36122Y303445D02*
D03*
X35728Y268012D02*
D03*
X35728Y232579D02*
D03*
X16622Y215661D02*
D03*
X30622Y71850D02*
D03*
Y107283D02*
D03*
Y142717D02*
D03*
Y178150D02*
D03*
X205709Y164370D02*
D03*
X115047Y101268D02*
D03*
X120079Y184724D02*
D03*
Y207677D02*
D03*
Y291339D02*
D03*
X29622Y228252D02*
D03*
M02*
