G04*
G04 #@! TF.GenerationSoftware,Altium Limited,Altium Designer,20.2.6 (244)*
G04*
G04 Layer_Color=8421504*
%FSLAX25Y25*%
%MOIN*%
G70*
G04*
G04 #@! TF.SameCoordinates,5A4684AA-0BDD-4268-B9F4-3C1D46E6F2CF*
G04*
G04*
G04 #@! TF.FilePolarity,Positive*
G04*
G01*
G75*
%ADD14R,0.05512X0.03937*%
%ADD15R,0.03937X0.05512*%
%ADD16R,0.06693X0.03937*%
%ADD17R,0.06693X0.03937*%
G04:AMPARAMS|DCode=18|XSize=66.93mil|YSize=39.37mil|CornerRadius=9.84mil|HoleSize=0mil|Usage=FLASHONLY|Rotation=0.000|XOffset=0mil|YOffset=0mil|HoleType=Round|Shape=RoundedRectangle|*
%AMROUNDEDRECTD18*
21,1,0.06693,0.01968,0,0,0.0*
21,1,0.04724,0.03937,0,0,0.0*
1,1,0.01968,0.02362,-0.00984*
1,1,0.01968,-0.02362,-0.00984*
1,1,0.01968,-0.02362,0.00984*
1,1,0.01968,0.02362,0.00984*
%
%ADD18ROUNDEDRECTD18*%
%ADD19R,0.03937X0.06693*%
%ADD20R,0.03937X0.06693*%
G04:AMPARAMS|DCode=21|XSize=66.93mil|YSize=39.37mil|CornerRadius=9.84mil|HoleSize=0mil|Usage=FLASHONLY|Rotation=90.000|XOffset=0mil|YOffset=0mil|HoleType=Round|Shape=RoundedRectangle|*
%AMROUNDEDRECTD21*
21,1,0.06693,0.01968,0,0,90.0*
21,1,0.04724,0.03937,0,0,90.0*
1,1,0.01968,0.00984,0.02362*
1,1,0.01968,0.00984,-0.02362*
1,1,0.01968,-0.00984,-0.02362*
1,1,0.01968,-0.00984,0.02362*
%
%ADD21ROUNDEDRECTD21*%
D14*
X137795Y108957D02*
D03*
Y101673D02*
D03*
Y286122D02*
D03*
Y278839D02*
D03*
X45276Y346161D02*
D03*
Y338878D02*
D03*
Y310728D02*
D03*
Y303445D02*
D03*
Y275295D02*
D03*
Y268012D02*
D03*
Y239862D02*
D03*
Y232579D02*
D03*
X190945Y224705D02*
D03*
Y231988D02*
D03*
Y260138D02*
D03*
Y267421D02*
D03*
Y295571D02*
D03*
Y302854D02*
D03*
Y331004D02*
D03*
Y338287D02*
D03*
X45276Y55413D02*
D03*
Y62697D02*
D03*
Y90847D02*
D03*
Y98130D02*
D03*
Y126279D02*
D03*
Y133563D02*
D03*
Y161713D02*
D03*
Y168996D02*
D03*
X190945Y162106D02*
D03*
Y154823D02*
D03*
Y126786D02*
D03*
Y119502D02*
D03*
Y91240D02*
D03*
Y83957D02*
D03*
Y55807D02*
D03*
Y48524D02*
D03*
D15*
X184577Y352362D02*
D03*
X177293D02*
D03*
X145374D02*
D03*
X138091D02*
D03*
X106004D02*
D03*
X98721D02*
D03*
X66634D02*
D03*
X59350D02*
D03*
X59280Y175197D02*
D03*
X66563D02*
D03*
X98721D02*
D03*
X106004D02*
D03*
X138091D02*
D03*
X145374D02*
D03*
X177461D02*
D03*
X184744D02*
D03*
X176870Y41339D02*
D03*
X169587D02*
D03*
X138181D02*
D03*
X130898D02*
D03*
X98130D02*
D03*
X90847D02*
D03*
X58760D02*
D03*
X51476D02*
D03*
D16*
X128110Y101268D02*
D03*
X108110D02*
D03*
X128110Y278433D02*
D03*
X108110D02*
D03*
X167165Y381016D02*
D03*
X187165D02*
D03*
X127795D02*
D03*
X147795D02*
D03*
X88425D02*
D03*
X108425D02*
D03*
X49055D02*
D03*
X69055D02*
D03*
X187165Y189850D02*
D03*
X167165D02*
D03*
X147795D02*
D03*
X127795D02*
D03*
X108425D02*
D03*
X88425D02*
D03*
X69055D02*
D03*
X49055D02*
D03*
Y26685D02*
D03*
X69055D02*
D03*
X88425D02*
D03*
X108425D02*
D03*
X127795D02*
D03*
X147795D02*
D03*
X167165D02*
D03*
X187165D02*
D03*
D17*
X128110Y114268D02*
D03*
Y291433D02*
D03*
X167165Y368016D02*
D03*
X127795D02*
D03*
X88425D02*
D03*
X49055D02*
D03*
X187165Y202850D02*
D03*
X147795D02*
D03*
X108425D02*
D03*
X69055D02*
D03*
X49055Y13685D02*
D03*
X88425D02*
D03*
X127795D02*
D03*
X167165D02*
D03*
D18*
X108110Y114268D02*
D03*
Y291433D02*
D03*
X187165Y368016D02*
D03*
X147795D02*
D03*
X108425D02*
D03*
X69055D02*
D03*
X167165Y202850D02*
D03*
X127795D02*
D03*
X88425D02*
D03*
X49055D02*
D03*
X69055Y13685D02*
D03*
X108425D02*
D03*
X147795D02*
D03*
X187165D02*
D03*
D19*
X219598Y348583D02*
D03*
Y328583D02*
D03*
Y313150D02*
D03*
Y293150D02*
D03*
Y277716D02*
D03*
Y257716D02*
D03*
Y242284D02*
D03*
Y222284D02*
D03*
X205598Y151417D02*
D03*
Y171417D02*
D03*
Y115984D02*
D03*
Y135984D02*
D03*
Y80551D02*
D03*
Y100551D02*
D03*
Y45118D02*
D03*
Y65118D02*
D03*
X30622D02*
D03*
Y45118D02*
D03*
Y100551D02*
D03*
Y80551D02*
D03*
Y171417D02*
D03*
Y151417D02*
D03*
Y135984D02*
D03*
Y115984D02*
D03*
X16622Y222284D02*
D03*
Y242284D02*
D03*
Y257716D02*
D03*
Y277716D02*
D03*
Y293150D02*
D03*
Y313150D02*
D03*
Y328583D02*
D03*
Y348583D02*
D03*
D20*
X206598D02*
D03*
Y313150D02*
D03*
Y277716D02*
D03*
Y242284D02*
D03*
X218598Y151417D02*
D03*
Y115984D02*
D03*
Y80551D02*
D03*
Y45118D02*
D03*
X17622Y65118D02*
D03*
Y100551D02*
D03*
Y171417D02*
D03*
Y135984D02*
D03*
X29622Y222284D02*
D03*
Y257716D02*
D03*
Y293150D02*
D03*
Y328583D02*
D03*
D21*
X206598D02*
D03*
Y293150D02*
D03*
Y257716D02*
D03*
Y222284D02*
D03*
X218598Y171417D02*
D03*
Y135984D02*
D03*
Y100551D02*
D03*
Y65118D02*
D03*
X17622Y45118D02*
D03*
Y80551D02*
D03*
Y151417D02*
D03*
Y115984D02*
D03*
X29622Y242284D02*
D03*
Y277716D02*
D03*
Y313150D02*
D03*
Y348583D02*
D03*
M02*
