M48
;Layer_Color=9474304
;FILE_FORMAT=2:5
INCH,LZ
;TYPE=PLATED
T1F00S00C0.02000
T2F00S00C0.03346
T3F00S00C0.03543
T4F00S00C0.03937
T5F00S00C0.04724
;TYPE=NON_PLATED
T6F00S00C0.11811
%
T01
X0122441Y0025
X0139459Y00175
X0179941
Y00785
X0139787Y0078342
X0122441Y0085843
X0094441Y0064
Y0059
Y00535
Y0048
Y0108843
Y0114342
Y0119843
Y0124843
Y0169
Y01745
Y018
X0122441Y01465
X0139941Y0139
X0179441
X0031941Y0134
X0034378Y01255
X0094441Y0185
Y0228842
Y0234343
Y0239843
Y0244843
X0122441Y0206343
X0139726Y0198843
X0179941Y0199
T02
X0146441Y0033
Y0045598
Y005426
Y0062921
X0166441
Y005426
Y0045598
Y0033
Y00935
Y0106098
Y011476
Y0123421
X0146441
Y011476
Y0106098
Y00935
Y0154
Y0166598
Y017526
X0166441
Y0166598
Y0154
Y0183921
X0146441
Y0213843
Y0226441
Y0235102
Y0243764
X0166441
Y0235102
Y0226441
Y0213843
T03
X0195071Y0037815
Y0047657
Y00575
X0194941Y0098658
Y01085
Y0118342
Y0159158
Y0169
Y0178842
Y0219
Y0228842
Y0238685
T04
X0077756Y0015748
X0087598
T05
X0082996Y0048295
Y0058295
Y0068295
Y0078295
Y0088295
Y0098295
Y0108295
Y0118295
Y0128295
Y0138295
Y0148295
Y0158295
Y0168295
Y0178295
X0012996
Y0168295
Y0158295
Y0148295
Y0138295
Y0128295
Y0118295
Y0108295
Y0098295
Y0088295
Y0078295
Y0068295
Y0058295
Y0048295
Y0188295
Y0198295
Y0208295
Y0218295
Y0228295
Y0238295
X0082996
Y0228295
Y0218295
Y0208295
Y0198295
Y0188295
T06
X0013779Y0013779
X0194882Y001378
X0013779Y0261812
X0194882Y0261811
M30
