M48
;Layer_Color=9474304
;FILE_FORMAT=2:5
INCH,LZ
;TYPE=PLATED
T1F00S00C0.02000
T2F00S00C0.03543
;TYPE=NON_PLATED
T3F00S00C0.11811
%
T01
X0042433Y0026685
X0081275
X0121173
X0160433
X0205598Y0038276
Y0073929
Y0109252
Y0144685
X0205709Y016437
X019333Y018985
X0154417
X0120079Y0184724
X0114585Y018985
X0120079Y0207677
X0075787Y018985
X0115047Y0101268
X012811Y0093661
X0030622Y0107283
Y007185
Y0142717
Y017815
X0029622Y0228252
X0035728Y0232579
X0035728Y0268012
X0036122Y0303445
X0035728Y0338878
X0016622Y0321053
Y028562
Y0250563
Y0215661
X012811Y0271811
X0120079Y0291339
X0138091Y0361706
X0177293Y0361578
X0200098Y0338287
X0200098Y0302854
X0199803Y0267421
X0199803Y0231988
X0098721Y0361221
X005935Y0361516
X0219598Y0355128
Y0320866
Y0285323
Y024925
X0160433Y0381016
X0121164
X0081952
X0042433
T02
X0228346Y0187008
Y0197008
Y0207008
X0007874
Y0197008
Y0187008
T03
X001378Y001378
X0222441
Y0379921
X001378
M30
